<svg width="175" height="44" viewBox="0 0 175 44" fill="none" xmlns="http://www.w3.org/2000/svg">
<path d="M24.4924 0H20.4924C9.44674 0 0.492432 8.9543 0.492432 20V24C0.492432 35.0457 9.44674 44 20.4924 44H24.4924C35.5381 44 44.4924 35.0457 44.4924 24V20C44.4924 8.9543 35.5381 0 24.4924 0Z" fill="#EB6753"/>
<path d="M30.5658 34.7499C30.5652 34.7499 30.5646 34.7493 30.5646 34.7487C30.5646 34.4779 30.5646 34.2429 30.5646 34.0078C30.5646 28.0291 30.5599 22.0505 30.5742 16.0718C30.5742 15.6273 30.4535 15.356 30.0807 15.0943C27.5209 13.3006 24.9815 11.4782 22.4338 9.66775C22.1795 9.48764 21.7954 9.74607 21.797 10.0577L21.834 17.2797C21.8375 17.9575 22.5 18.4356 23.1444 18.2253C23.5995 18.0768 24.0534 17.9287 24.5097 17.7798C25.1562 17.5687 25.8204 18.0505 25.8204 18.7306V33.7618C25.8204 34.3141 25.3727 34.7618 24.8204 34.7618H21.9101C21.3579 34.7618 20.9101 34.3141 20.9101 33.7618V21.3163C20.9101 20.6366 20.2466 20.1548 19.6002 20.365C19.0403 20.5471 18.4972 20.724 17.9549 20.9021C16.6893 21.3179 15.4322 21.7637 14.1547 22.1401C13.5895 22.3062 13.3995 22.5536 13.4055 23.1678C13.4425 26.7947 13.4234 30.4216 13.4234 34.0484C13.4234 34.1274 13.4234 34.2063 13.4234 34.2874C13.4234 34.5415 13.2174 34.7475 12.9633 34.7475C12.7092 34.7475 12.5032 34.5415 12.5032 34.2874C12.5032 34.2552 12.5032 34.2229 12.5032 34.1906C12.5032 30.2244 12.5104 26.2593 12.4925 22.2931C12.4901 21.8521 12.6335 21.686 13.0446 21.5546C15.468 20.779 17.876 19.958 20.2983 19.1813C20.7524 19.0355 20.9018 18.8299 20.8982 18.3447C20.8743 14.9772 20.885 11.6085 20.885 8.24091C20.885 8.21296 20.885 8.18501 20.885 8.15684C20.885 7.86927 21.2099 7.67754 21.4443 7.84416C24.6577 10.1278 27.8723 12.4091 31.0725 14.7107C31.2745 14.8553 31.4741 15.1684 31.4752 15.4026C31.4968 21.7398 31.492 28.0769 31.492 34.4141C31.492 34.6035 31.3246 34.7499 31.1352 34.7499H30.5658ZM24.9254 19.988C24.9254 19.3082 24.2636 18.8326 23.6184 19.0467C23.2149 19.1806 22.8193 19.3069 22.4194 19.4179C21.9653 19.5433 21.7909 19.7345 21.7933 20.2353C21.8148 24.5767 21.8064 28.9182 21.8052 33.2597C21.8052 33.5679 22.0551 33.8178 22.3633 33.8178H23.9254C24.4777 33.8178 24.9254 33.3701 24.9254 32.8178V19.988Z" fill="white"/>
<path d="M67.3354 29.276C65.9554 29.276 64.6674 29.0537 63.4714 28.609C62.2908 28.1643 61.2404 27.5127 60.3204 26.654L62.2524 24.331C63.8471 25.711 65.5798 26.401 67.4504 26.401C68.2784 26.401 68.9148 26.24 69.3594 25.918C69.8194 25.5807 70.0494 25.1513 70.0494 24.63C70.0494 24.262 69.9421 23.963 69.7274 23.733C69.5128 23.503 69.1754 23.3113 68.7154 23.158C68.2708 22.9893 67.6038 22.8053 66.7144 22.606C65.4418 22.3147 64.3991 22.0003 63.5864 21.663C62.7891 21.3103 62.1528 20.8273 61.6774 20.214C61.2174 19.6007 60.9874 18.811 60.9874 17.845C60.9874 16.879 61.2328 16.028 61.7234 15.292C62.2141 14.5407 62.9041 13.958 63.7934 13.544C64.6828 13.13 65.7024 12.923 66.8524 12.923C69.2598 12.923 71.3221 13.6513 73.0394 15.108L71.2684 17.569C70.5478 16.9863 69.7964 16.5493 69.0144 16.258C68.2478 15.9513 67.4888 15.798 66.7374 15.798C66.0474 15.798 65.4878 15.959 65.0584 16.281C64.6291 16.603 64.4144 17.0093 64.4144 17.5C64.4144 17.8833 64.5218 18.19 64.7364 18.42C64.9664 18.65 65.3114 18.8493 65.7714 19.018C66.2468 19.1867 66.9291 19.3707 67.8184 19.57C69.0758 19.846 70.1031 20.168 70.9004 20.536C71.7131 20.8887 72.3418 21.364 72.7864 21.962C73.2464 22.56 73.4764 23.3267 73.4764 24.262C73.4764 25.2587 73.2311 26.1403 72.7404 26.907C72.2498 27.6583 71.5368 28.241 70.6014 28.655C69.6814 29.069 68.5928 29.276 67.3354 29.276ZM83.0523 16.833C83.8957 16.833 84.647 17.0323 85.3063 17.431C85.981 17.8143 86.5023 18.3587 86.8703 19.064C87.2537 19.754 87.4453 20.5437 87.4453 21.433V29H84.2253V22.146C84.2253 21.41 84.0107 20.812 83.5813 20.352C83.1673 19.892 82.623 19.662 81.9483 19.662C81.243 19.662 80.6527 19.8843 80.1773 20.329C79.702 20.7737 79.4643 21.318 79.4643 21.962V29H76.1063V12.923H79.4643V18.558C79.8323 18.0213 80.3307 17.5997 80.9593 17.293C81.588 16.9863 82.2857 16.833 83.0523 16.833ZM95.4504 16.833C96.4777 16.833 97.3901 17.04 98.1874 17.454C98.9847 17.868 99.5981 18.4583 100.027 19.225C100.472 19.9763 100.694 20.8657 100.694 21.893V29H97.4514V27.804C97.0374 28.264 96.5084 28.6243 95.8644 28.885C95.2357 29.1457 94.5917 29.276 93.9324 29.276C93.0891 29.276 92.3301 29.1227 91.6554 28.816C90.9807 28.494 90.4441 28.0493 90.0454 27.482C89.6621 26.8993 89.4704 26.2323 89.4704 25.481C89.4704 24.7143 89.6851 24.032 90.1144 23.434C90.5591 22.836 91.1571 22.3683 91.9084 22.031C92.6597 21.6937 93.4877 21.525 94.3924 21.525C95.4197 21.525 96.4394 21.732 97.4514 22.146V21.893C97.4514 21.203 97.2214 20.6357 96.7614 20.191C96.3014 19.7463 95.6114 19.524 94.6914 19.524C93.7407 19.524 92.7134 19.8077 91.6094 20.375L90.4824 18.144C92.1997 17.27 93.8557 16.833 95.4504 16.833ZM94.6914 26.953C95.3661 26.953 95.9641 26.8073 96.4854 26.516C97.0067 26.2093 97.3287 25.7877 97.4514 25.251V24.17C96.6694 23.8633 95.8107 23.71 94.8754 23.71C94.2621 23.71 93.7407 23.871 93.3114 24.193C92.8821 24.515 92.6674 24.9137 92.6674 25.389C92.6674 25.8643 92.8591 26.2477 93.2424 26.539C93.6257 26.815 94.1087 26.953 94.6914 26.953ZM107.001 19.34C107.4 18.558 107.952 17.9447 108.657 17.5C109.378 17.0553 110.183 16.833 111.072 16.833V19.662C109.83 19.662 108.841 19.9917 108.105 20.651C107.369 21.3103 107.001 22.1997 107.001 23.319V29H103.643V17.109H107.001V19.34ZM118.977 26.677C119.529 26.677 120.081 26.5697 120.633 26.355C121.201 26.1403 121.676 25.8567 122.059 25.504L123.945 27.436C123.424 27.988 122.703 28.4327 121.783 28.77C120.879 29.1073 119.982 29.276 119.092 29.276C117.927 29.276 116.854 29.0077 115.872 28.471C114.906 27.9343 114.14 27.1907 113.572 26.24C113.02 25.2893 112.744 24.216 112.744 23.02C112.744 21.8393 113.013 20.7813 113.549 19.846C114.101 18.9107 114.845 18.1747 115.78 17.638C116.716 17.1013 117.758 16.833 118.908 16.833C120.135 16.833 121.201 17.1167 122.105 17.684C123.01 18.2513 123.7 19.0717 124.175 20.145C124.651 21.2183 124.888 22.4833 124.888 23.94H115.941C116.095 24.768 116.44 25.435 116.976 25.941C117.513 26.4317 118.18 26.677 118.977 26.677ZM118.954 19.432C118.218 19.432 117.582 19.662 117.045 20.122C116.509 20.5667 116.148 21.1723 115.964 21.939H121.668C121.53 21.1723 121.224 20.5667 120.748 20.122C120.273 19.662 119.675 19.432 118.954 19.432ZM138.821 25.941V29H127.551V13.199H130.955V25.941H138.821ZM141.176 17.109H144.534V29H141.176V17.109ZM142.878 15.476C142.356 15.476 141.919 15.2997 141.567 14.947C141.214 14.579 141.038 14.142 141.038 13.636C141.038 13.1607 141.214 12.7467 141.567 12.394C141.935 12.026 142.372 11.842 142.878 11.842C143.368 11.842 143.79 12.026 144.143 12.394C144.495 12.7467 144.672 13.1607 144.672 13.636C144.672 14.142 144.495 14.579 144.143 14.947C143.79 15.2997 143.368 15.476 142.878 15.476ZM146.423 17.109H149.919L153.116 25.136L156.244 17.109H159.763L154.68 29H151.552L146.423 17.109ZM167.066 26.677C167.618 26.677 168.17 26.5697 168.722 26.355C169.289 26.1403 169.765 25.8567 170.148 25.504L172.034 27.436C171.513 27.988 170.792 28.4327 169.872 28.77C168.967 29.1073 168.07 29.276 167.181 29.276C166.016 29.276 164.942 29.0077 163.961 28.471C162.995 27.9343 162.228 27.1907 161.661 26.24C161.109 25.2893 160.833 24.216 160.833 23.02C160.833 21.8393 161.101 20.7813 161.638 19.846C162.19 18.9107 162.934 18.1747 163.869 17.638C164.804 17.1013 165.847 16.833 166.997 16.833C168.224 16.833 169.289 17.1167 170.194 17.684C171.099 18.2513 171.789 19.0717 172.264 20.145C172.739 21.2183 172.977 22.4833 172.977 23.94H164.03C164.183 24.768 164.528 25.435 165.065 25.941C165.602 26.4317 166.269 26.677 167.066 26.677ZM167.043 19.432C166.307 19.432 165.671 19.662 165.134 20.122C164.597 20.5667 164.237 21.1723 164.053 21.939H169.757C169.619 21.1723 169.312 20.5667 168.837 20.122C168.362 19.662 167.764 19.432 167.043 19.432Z" fill="white"/>
</svg>
