<?xml version="1.0" encoding="UTF-8"?>
<svg id="Capa_2" data-name="Capa 2" xmlns="http://www.w3.org/2000/svg" viewBox="0 0 172.48 44">
  <defs>
    <style>
      .cls-1 {
        fill: #eb6753;
      }

      .cls-2 {
        fill: #fff;
      }

      .cls-3 {
        fill: #181a20;
      }
    </style>
  </defs>
  <g id="Capa_1-2" data-name="Capa 1">
    <path class="cls-1" d="M24,0h-4C8.95,0,0,8.95,0,20v4c0,11.05,8.95,20,20,20h4c11.05,0,20-8.95,20-20v-4C44,8.95,35.05,0,24,0Z"/>
    <path class="cls-2" d="M30.07,34.75s0,0,0,0v-.74c0-5.98,0-11.96,0-17.94,0-.44-.12-.72-.49-.98-2.56-1.79-5.1-3.62-7.65-5.43-.25-.18-.64,.08-.64,.39l.04,7.22c0,.68,.67,1.16,1.31,.95,.46-.15,.91-.3,1.37-.45,.65-.21,1.31,.27,1.31,.95v15.03c0,.55-.45,1-1,1h-2.91c-.55,0-1-.45-1-1v-12.45c0-.68-.66-1.16-1.31-.95-.56,.18-1.1,.36-1.65,.54-1.27,.42-2.52,.86-3.8,1.24-.57,.17-.76,.41-.75,1.03,.04,3.63,.02,7.25,.02,10.88v.24c0,.25-.21,.46-.46,.46s-.46-.21-.46-.46v-.1c0-3.97,0-7.93-.01-11.9,0-.44,.14-.61,.55-.74,2.42-.78,4.83-1.6,7.25-2.37,.45-.15,.6-.35,.6-.84-.02-3.37-.01-6.74-.01-10.1v-.08c0-.29,.32-.48,.56-.31,3.21,2.28,6.43,4.56,9.63,6.87,.2,.14,.4,.46,.4,.69,.02,6.34,.02,12.67,.02,19.01,0,.19-.17,.34-.36,.34h-.57Zm-5.64-14.76c0-.68-.66-1.16-1.31-.94-.4,.13-.8,.26-1.2,.37-.45,.13-.63,.32-.63,.82,.02,4.34,.01,8.68,.01,13.02,0,.31,.25,.56,.56,.56h1.56c.55,0,1-.45,1-1v-12.83Z"/>
    <path class="cls-3" d="M66.84,29.28c-1.38,0-2.67-.22-3.86-.67-1.18-.44-2.23-1.1-3.15-1.95l1.93-2.32c1.59,1.38,3.33,2.07,5.2,2.07,.83,0,1.46-.16,1.91-.48,.46-.34,.69-.77,.69-1.29,0-.37-.11-.67-.32-.9-.21-.23-.55-.42-1.01-.57-.44-.17-1.11-.35-2-.55-1.27-.29-2.32-.61-3.13-.94-.8-.35-1.43-.84-1.91-1.45-.46-.61-.69-1.4-.69-2.37s.25-1.82,.74-2.55c.49-.75,1.18-1.33,2.07-1.75,.89-.41,1.91-.62,3.06-.62,2.41,0,4.47,.73,6.19,2.18l-1.77,2.46c-.72-.58-1.47-1.02-2.25-1.31-.77-.31-1.53-.46-2.28-.46-.69,0-1.25,.16-1.68,.48-.43,.32-.64,.73-.64,1.22,0,.38,.11,.69,.32,.92,.23,.23,.58,.43,1.04,.6,.48,.17,1.16,.35,2.05,.55,1.26,.28,2.28,.6,3.08,.97,.81,.35,1.44,.83,1.89,1.43,.46,.6,.69,1.36,.69,2.3,0,1-.25,1.88-.74,2.65-.49,.75-1.2,1.33-2.14,1.75-.92,.41-2.01,.62-3.27,.62Zm15.72-12.44c.84,0,1.59,.2,2.25,.6,.67,.38,1.2,.93,1.56,1.63,.38,.69,.57,1.48,.57,2.37v7.57h-3.22v-6.85c0-.74-.21-1.33-.64-1.79-.41-.46-.96-.69-1.63-.69s-1.3,.22-1.77,.67c-.48,.44-.71,.99-.71,1.63v7.04h-3.36V12.92h3.36v5.64c.37-.54,.87-.96,1.49-1.27,.63-.31,1.33-.46,2.09-.46Zm12.4,0c1.03,0,1.94,.21,2.74,.62s1.41,1,1.84,1.77c.44,.75,.67,1.64,.67,2.67v7.11h-3.24v-1.2c-.41,.46-.94,.82-1.59,1.08-.63,.26-1.27,.39-1.93,.39-.84,0-1.6-.15-2.28-.46-.67-.32-1.21-.77-1.61-1.33-.38-.58-.58-1.25-.58-2s.21-1.45,.64-2.05c.44-.6,1.04-1.07,1.79-1.4,.75-.34,1.58-.51,2.48-.51,1.03,0,2.05,.21,3.06,.62v-.25c0-.69-.23-1.26-.69-1.7s-1.15-.67-2.07-.67-1.98,.28-3.08,.85l-1.13-2.23c1.72-.87,3.37-1.31,4.97-1.31Zm-.76,10.12c.67,0,1.27-.15,1.79-.44,.52-.31,.84-.73,.97-1.27v-1.08c-.78-.31-1.64-.46-2.58-.46-.61,0-1.13,.16-1.56,.48-.43,.32-.64,.72-.64,1.2s.19,.86,.58,1.15c.38,.28,.87,.41,1.45,.41Zm12.31-7.61c.4-.78,.95-1.4,1.66-1.84,.72-.44,1.53-.67,2.42-.67v2.83c-1.24,0-2.23,.33-2.97,.99-.74,.66-1.1,1.55-1.1,2.67v5.68h-3.36v-11.89h3.36v2.23Zm11.98,7.34c.55,0,1.1-.11,1.66-.32,.57-.21,1.04-.5,1.43-.85l1.89,1.93c-.52,.55-1.24,1-2.16,1.33-.9,.34-1.8,.51-2.69,.51-1.17,0-2.24-.27-3.22-.8-.97-.54-1.73-1.28-2.3-2.23-.55-.95-.83-2.02-.83-3.22s.27-2.24,.81-3.17c.55-.94,1.3-1.67,2.23-2.21,.94-.54,1.98-.81,3.13-.81,1.23,0,2.29,.28,3.2,.85,.9,.57,1.59,1.39,2.07,2.46,.48,1.07,.71,2.34,.71,3.8h-8.95c.15,.83,.5,1.49,1.03,2,.54,.49,1.2,.74,2,.74Zm-.02-7.25c-.74,0-1.37,.23-1.91,.69-.54,.44-.9,1.05-1.08,1.82h5.7c-.14-.77-.44-1.37-.92-1.82-.47-.46-1.07-.69-1.79-.69Zm19.87,6.51v3.06h-11.27V13.2h3.4v12.74h7.87Zm2.35-8.83h3.36v11.89h-3.36v-11.89Zm1.7-1.63c-.52,0-.96-.18-1.31-.53-.35-.37-.53-.8-.53-1.31,0-.48,.18-.89,.53-1.24,.37-.37,.8-.55,1.31-.55s.91,.18,1.26,.55c.35,.35,.53,.77,.53,1.24,0,.51-.18,.94-.53,1.31-.35,.35-.78,.53-1.26,.53Zm3.54,1.63h3.5l3.2,8.03,3.13-8.03h3.52l-5.08,11.89h-3.13l-5.13-11.89Zm20.64,9.57c.55,0,1.1-.11,1.66-.32,.57-.21,1.04-.5,1.43-.85l1.89,1.93c-.52,.55-1.24,1-2.16,1.33-.9,.34-1.8,.51-2.69,.51-1.16,0-2.24-.27-3.22-.8-.97-.54-1.73-1.28-2.3-2.23-.55-.95-.83-2.02-.83-3.22s.27-2.24,.81-3.17c.55-.94,1.3-1.67,2.23-2.21,.93-.54,1.98-.81,3.13-.81,1.23,0,2.29,.28,3.2,.85s1.6,1.39,2.07,2.46c.47,1.07,.71,2.34,.71,3.8h-8.95c.15,.83,.5,1.49,1.04,2,.54,.49,1.2,.74,2,.74Zm-.02-7.25c-.74,0-1.37,.23-1.91,.69-.54,.44-.9,1.05-1.08,1.82h5.7c-.14-.77-.45-1.37-.92-1.82-.48-.46-1.07-.69-1.79-.69Z"/>
  </g>
</svg>