<svg xmlns="http://www.w3.org/2000/svg" width="629" height="482" viewBox="0 0 629 482" fill="none">
    <g clip-path="url(#clip0_2524_441)">
        <path d="M578.913 175.747H554.912V264.071H578.913V175.747Z" fill="#F76652" />
        <path d="M575.339 184.35H558.455V240.583H575.339V184.35Z" fill="#FAFDFF" />
        <path
            d="M570.064 254.629C571.808 252.886 571.808 250.058 570.064 248.315C568.32 246.571 565.492 246.571 563.747 248.315C562.003 250.058 562.003 252.886 563.747 254.629C565.492 256.373 568.32 256.373 570.064 254.629Z"
            fill="#2E3D63" />
        <path d="M601.889 174.576L578.07 177.527L588.937 265.179L612.756 262.228L601.889 174.576Z"
            fill="#F76652" />
        <path d="M599.391 183.528L582.635 185.604L589.554 241.409L606.309 239.333L599.391 183.528Z"
            fill="#FAFDFF" />
        <path
            d="M602.786 253.963C604.293 252.011 603.933 249.207 601.98 247.7C600.027 246.192 597.223 246.553 595.715 248.505C594.207 250.457 594.568 253.261 596.521 254.768C598.473 256.275 601.278 255.914 602.786 253.963Z"
            fill="#2E3D63" />
        <path
            d="M264.011 276.157C259.396 253.413 241.38 164.406 235.693 136.572C234.71 131.69 230.392 128.177 225.419 128.177L139.391 128.088L169.377 285.653C170.866 293.393 175.273 300.299 181.705 304.853C186.767 308.455 192.812 310.42 199.036 310.509L264.011 311.313V276.157Z"
            fill="#475577" />
        <path
            d="M340.72 315.868H197.577C188.644 315.868 179.979 312.712 173.1 306.997C166.251 301.281 161.635 293.363 160.087 284.67L133.972 134.548C133.436 131.482 135.49 128.564 138.558 128.058C141.625 127.522 144.543 129.576 145.049 132.643L171.164 282.765C172.236 288.808 175.482 294.375 180.306 298.394C185.16 302.442 191.294 304.645 197.577 304.645H340.75C343.847 304.645 346.378 307.175 346.378 310.271C346.348 313.367 343.847 315.868 340.72 315.868Z"
            fill="#727B91" />
        <path
            d="M384.554 481.5C484.414 481.5 565.366 477.861 565.366 473.373C565.366 468.885 484.414 465.246 384.554 465.246C284.694 465.246 203.742 468.885 203.742 473.373C203.742 477.861 284.694 481.5 384.554 481.5Z"
            fill="#181a20" />
        <path d="M383.569 429.799L362.242 434.722L368.594 462.22L389.92 457.297L383.569 429.799Z"
            fill="#FFCBBB" />
        <path d="M362.189 434.734L364.572 445.004L384.434 433.632L383.54 429.822L362.189 434.734Z"
            fill="#F6AF9B" />
        <path
            d="M401.943 453.309C401.347 453.309 400.811 453.19 400.335 452.892L400.156 452.773L400.216 452.565C401.198 448.903 403.938 445.659 406.052 443.605C406.946 442.712 409.268 440.806 411.383 441.848C412.991 442.652 413.378 444.885 412.723 446.433C412.067 448.04 410.638 449.112 409.328 449.975L408.941 450.213C407.065 451.434 404.206 453.309 401.943 453.309ZM400.871 452.476C402.926 453.428 406.618 451.017 408.643 449.707L409.03 449.469C410.251 448.665 411.591 447.653 412.216 446.195C412.752 444.885 412.455 443.039 411.144 442.384C409.387 441.491 407.333 443.247 406.529 444.021C404.444 445.986 401.854 449.052 400.871 452.476Z"
            fill="#350453" />
        <path
            d="M400.216 453.786L400.097 453.577C398.161 450.332 397.774 446.105 397.744 443.128C397.744 441.878 397.982 438.871 400.216 438.097C401.913 437.502 403.759 438.782 404.444 440.33C405.129 441.938 404.921 443.694 404.593 445.242L404.504 445.688C403.968 448.427 403.074 453.041 400.424 453.726L400.216 453.786ZM401.109 438.574C400.871 438.574 400.662 438.604 400.424 438.693C398.578 439.318 398.37 442.027 398.37 443.158C398.37 445.986 398.757 449.975 400.514 453.101C402.628 452.297 403.491 447.981 403.938 445.599L404.027 445.153C404.325 443.724 404.534 442.057 403.908 440.598C403.432 439.526 402.3 438.574 401.109 438.574Z"
            fill="#350453" />
        <path
            d="M426.271 459.025L401.585 452.952C397.922 452.059 394.527 450.064 391.788 447.207L387.589 442.86C387.589 442.86 382.706 447.028 384.046 455.155C384.82 459.918 371.42 460.9 367.876 459.352C367.876 459.352 367.846 459.352 367.787 459.382C366.655 459.918 366.06 461.198 366.357 462.418L368.829 473.076C369.067 474.058 370.02 474.653 371.003 474.445L426.39 461.674C427.611 461.317 427.551 459.352 426.271 459.025Z"
            fill="#2E3D63" />
        <path
            d="M371.956 470.754C371.807 470.754 371.688 470.664 371.658 470.515C371.628 470.367 371.718 470.188 371.896 470.158L419.809 459.084C419.958 459.054 420.136 459.144 420.166 459.322C420.196 459.471 420.107 459.65 419.928 459.68L372.015 470.754C371.986 470.754 371.956 470.754 371.956 470.754Z"
            fill="white" />
        <path
            d="M398.249 462.537C398.22 462.537 398.219 462.537 398.19 462.537C394.08 461.823 390.358 458.876 388.72 455.066C387.499 452.238 387.41 448.874 388.452 445.867C388.512 445.718 388.691 445.629 388.84 445.688C388.988 445.748 389.078 445.927 389.018 446.075C388.035 448.933 388.125 452.148 389.286 454.827C390.835 458.489 394.378 461.257 398.279 461.942C398.428 461.972 398.547 462.121 398.517 462.299C398.517 462.448 398.398 462.537 398.249 462.537Z"
            fill="white" />
        <path d="M285.721 433.811H263.834V462.031H285.721V433.811Z" fill="#FFCBBB" />
        <path d="M263.834 433.811V444.349L285.751 437.74V433.811H263.834Z" fill="#F6AF9B" />
        <path
            d="M299.567 460.96C298.524 460.96 297.572 460.722 296.916 460.096L296.768 459.948L296.887 459.739C298.673 456.405 302.068 453.845 304.599 452.327C305.671 451.672 308.351 450.303 310.168 451.821C311.537 452.982 311.418 455.214 310.436 456.584C309.423 458.013 307.785 458.727 306.326 459.263L305.909 459.412C304.272 460.007 301.681 460.96 299.567 460.96ZM297.512 459.829C299.299 461.228 303.438 459.709 305.701 458.876L306.118 458.727C307.488 458.221 309.036 457.536 309.929 456.256C310.763 455.095 310.882 453.22 309.751 452.297C308.232 451.047 305.85 452.267 304.867 452.863C302.485 454.292 299.269 456.703 297.512 459.829Z"
            fill="#350453" />
        <path
            d="M296.619 460.93L296.559 460.722C295.398 457.12 295.964 452.922 296.619 450.005C296.887 448.784 297.81 445.897 300.133 445.659C301.919 445.45 303.438 447.117 303.736 448.784C304.034 450.481 303.438 452.178 302.783 453.607L302.604 454.024C301.532 456.405 299.537 460.87 296.827 460.93H296.619ZM300.43 446.254C300.371 446.254 300.282 446.254 300.222 446.254C298.257 446.462 297.482 449.023 297.214 450.124C296.589 452.892 296.053 456.852 297.066 460.275C299.299 459.977 301.115 455.929 302.098 453.756L302.277 453.339C302.872 451.999 303.468 450.422 303.17 448.874C302.932 447.594 301.77 446.254 300.43 446.254Z"
            fill="#350453" />
        <path
            d="M320.828 471.915L298.138 460.424C294.773 458.727 291.914 456.018 289.859 452.625L286.762 447.445C286.762 447.445 281.075 450.422 280.539 458.638C280.211 463.431 266.93 461.406 263.863 459.084C263.863 459.084 263.833 459.084 263.774 459.084C262.553 459.352 261.689 460.454 261.689 461.734V472.659C261.689 473.671 262.493 474.475 263.506 474.475H320.352C321.603 474.445 321.99 472.51 320.828 471.915Z"
            fill="#2E3D63" />
        <path
            d="M314.485 471.111H265.292C265.113 471.111 264.994 470.962 264.994 470.813C264.994 470.635 265.143 470.516 265.292 470.516H314.485C314.664 470.516 314.783 470.664 314.783 470.813C314.783 470.992 314.634 471.111 314.485 471.111Z"
            fill="white" />
        <path
            d="M292.777 469.027C292.747 469.027 292.688 469.027 292.658 468.997C288.816 467.39 285.868 463.669 285.124 459.59C284.588 456.554 285.243 453.25 286.94 450.571C287.03 450.422 287.208 450.392 287.357 450.481C287.506 450.571 287.536 450.749 287.447 450.898C285.839 453.458 285.213 456.614 285.72 459.501C286.434 463.401 289.233 466.913 292.896 468.461C293.045 468.521 293.134 468.7 293.045 468.848C293.015 468.968 292.896 469.027 292.777 469.027Z"
            fill="white" />
        <path
            d="M359.36 250.407C353.464 256.39 343.548 255.557 335.657 252.52C335.478 252.461 335.27 252.372 335.091 252.312C322.168 247.132 311.18 237.338 304.509 225.163C304.36 224.895 304.212 224.627 304.063 224.359C298.822 214.417 288.727 165.596 312.43 170.984C321.691 173.098 331.429 185.601 337.474 192.328C345.275 201.021 352.124 210.606 357.812 220.817C360.403 225.461 362.785 230.343 363.499 235.612C364.214 240.881 363.083 246.596 359.36 250.407Z"
            fill="#FFCBBB" />
        <path
            d="M335.658 252.52C335.479 252.461 335.27 252.372 335.092 252.312C322.168 247.132 311.18 237.338 304.51 225.163C305.254 224.925 305.999 224.687 306.654 224.419C311.269 222.514 315.915 220.579 320.53 218.674C320.709 231.355 326.397 243.828 335.658 252.52Z"
            fill="#F6AF9B" />
        <path
            d="M290.992 169.615H247.873L251.476 158.72C252.31 156.16 254.722 154.433 257.402 154.433H281.492C284.202 154.433 286.584 156.16 287.418 158.72L290.992 169.615Z"
            fill="#B9B5B2" />
        <path
            d="M314.336 271.602C297.928 288.005 221.518 271.602 221.518 271.602L228.992 209.237L221.369 170.359C221.369 164.912 225.806 160.476 231.255 160.476H304.301C309.75 160.476 314.187 164.912 314.187 170.359C314.157 170.33 332.203 253.681 314.336 271.602Z"
            fill="#B9B5B2" />
        <path
            d="M388.753 430.298L360.672 437.949C357.307 438.871 353.883 436.728 353.198 433.305L328.006 306.193H294.148C271.487 305.598 261.869 293.184 261.869 280.354L258.266 267.732C257.849 267.315 322.467 264.785 349.356 265.797C360.464 266.214 369.814 274.222 371.958 285.117L393.1 423.332C393.666 426.428 391.79 429.465 388.753 430.298Z"
            fill="#FCA32D" />
        <path d="M255.496 306.282H328.333L255.496 291.845V306.282Z" fill="#EF8E18" />
        <path
            d="M295.517 282.884V430C295.517 433.305 292.837 436.014 289.502 436.014H260.051C256.716 436.014 254.036 433.335 254.036 430L252.964 408.091L248.021 306.193H227.385C224.913 306.134 222.62 305.925 220.447 305.598C202.729 302.889 195.105 291.815 195.105 280.354L204.128 263.535C203.682 263.088 252.756 264.904 279.169 265.916C288.311 266.244 295.517 273.745 295.517 282.884Z"
            fill="#FFB548" />
        <path
            d="M282.981 378.65C282.803 378.65 282.684 378.501 282.684 378.352L285.006 289.731C285.006 282.229 279.914 275.799 272.619 274.043C272.47 274.013 272.351 273.835 272.41 273.686C272.44 273.537 272.619 273.418 272.768 273.477C280.331 275.293 285.632 281.961 285.632 289.761L283.309 378.382C283.279 378.501 283.16 378.65 282.981 378.65Z"
            fill="#FCA32D" />
        <path
            d="M281.7 427.917C281.521 427.917 281.402 427.768 281.402 427.619L282.296 393.951C282.296 393.772 282.445 393.653 282.593 393.653C282.772 393.653 282.891 393.802 282.891 393.951L281.998 427.619C281.998 427.768 281.849 427.917 281.7 427.917Z"
            fill="#FCA32D" />
        <path
            d="M359.69 296.786C359.541 296.786 359.422 296.697 359.392 296.548L358.886 293.928C358.171 290.237 356.534 286.754 354.181 283.867C350.072 278.776 343.937 275.68 337.416 275.353L323.808 274.668C323.629 274.668 323.51 274.519 323.51 274.341C323.51 274.162 323.629 274.043 323.837 274.043L337.446 274.728C344.146 275.055 350.429 278.24 354.658 283.48C357.07 286.457 358.737 290.029 359.482 293.809L359.988 296.459C360.018 296.608 359.928 296.786 359.75 296.816C359.72 296.786 359.72 296.786 359.69 296.786Z"
            fill="#EF8E18" />
        <path
            d="M373.268 366.087C373.119 366.087 373 365.998 372.97 365.849L361.387 306.848C361.357 306.699 361.446 306.521 361.625 306.491C361.774 306.461 361.952 306.55 361.982 306.729L373.566 365.73C373.596 365.879 373.506 366.058 373.328 366.087C373.328 366.087 373.298 366.087 373.268 366.087Z"
            fill="#EF8E18" />
        <path
            d="M382.113 411.068C381.964 411.068 381.845 410.978 381.815 410.829L374.252 372.309C374.222 372.16 374.311 371.982 374.49 371.952C374.669 371.922 374.818 372.011 374.847 372.19L382.411 410.71C382.441 410.859 382.351 411.038 382.173 411.068C382.143 411.068 382.143 411.068 382.113 411.068Z"
            fill="#EF8E18" />
        <path
            d="M238.492 204.266C237.48 225.759 234.026 247.162 228.249 267.881C226.819 273.061 225.182 278.3 222.442 282.914C219.702 287.558 215.682 291.607 210.62 293.482C202.997 296.31 193.974 293.541 188.168 287.796C182.361 282.081 179.502 273.864 178.907 265.738C178.311 257.611 179.77 249.484 181.587 241.536C182.808 236.297 184.148 231.057 185.756 225.907C187.572 220.073 189.627 214.357 192.098 208.761C193.26 206.141 194.481 203.581 195.791 201.051C198.828 195.186 202.342 189.59 206.362 184.35C211.752 177.355 221.221 163.632 230.601 172.413C238.969 180.302 238.999 193.698 238.492 204.266Z"
            fill="#FFCBBB" />
        <path
            d="M233.401 228.467L185.756 225.967C187.572 220.132 189.627 214.417 192.099 208.82L233.401 228.467Z"
            fill="#F6AF9B" />
        <path
            d="M261.927 131.452L253.887 129.874L250.701 104.005C250.194 99.8672 253.053 96.0569 257.162 95.402L282.682 91.2939L282.295 101.088L261.927 131.452Z"
            fill="#2E3D63" />
        <path
            d="M296.589 110.971C296.589 118.592 293.343 124.784 289.353 124.784C285.363 124.784 282.117 118.592 282.117 110.971C282.117 103.35 285.363 100.165 289.353 100.165C293.343 100.165 296.589 103.35 296.589 110.971Z"
            fill="#2E3D63" />
        <path
            d="M281.849 111.269V139.638V157.172L272.29 163.185L257.938 157.172V139.638V111.269H269.878H281.849Z"
            fill="#FFCBBB" />
        <path d="M281.849 141.037V155.415C277.68 151.218 271.069 144.729 267.287 141.037H281.849Z"
            fill="#F6AF9B" />
        <path
            d="M290.87 100.344L294.682 133.417C295.724 142.615 286.85 149.789 278.095 146.783C271.425 144.49 265.35 141.216 264.606 136.929C263.117 128.415 264.159 110.078 264.517 104.868C264.576 104.035 265.172 103.35 266.006 103.172L288.696 98.7362C289.739 98.5278 290.751 99.272 290.87 100.344Z"
            fill="#FFCBBB" />
        <path
            d="M296.529 105.434C290.425 108.441 272.469 105.404 269.342 99.0935C266.245 92.7826 277.144 84.626 285.273 82.572C291.884 80.9049 298.852 82.2445 301.979 88.5257C305.105 94.8068 302.664 102.427 296.529 105.434Z"
            fill="#2E3D63" />
        <path
            d="M278.185 95.6105C278.185 99.5994 275.147 104.124 269.787 104.124C264.427 104.124 258.77 99.5994 258.77 95.6105C258.77 91.6215 263.117 88.3767 268.477 88.3767C273.837 88.3767 278.185 91.6215 278.185 95.6105Z"
            fill="#2E3D63" />
        <path
            d="M294.117 106.982H270.831C266.781 106.982 263.803 110.763 264.727 114.692L265.65 118.532C265.65 118.532 267.407 125.379 256.627 125.974L257.788 102.487H293.105L294.117 106.982Z"
            fill="#2E3D63" />
        <path
            d="M253.857 114.394C253.767 114.394 253.678 114.365 253.618 114.275C253.529 114.156 253.559 113.948 253.678 113.859L261.331 108.143C261.45 108.054 261.658 108.084 261.748 108.203C261.837 108.322 261.807 108.53 261.688 108.619L254.035 114.335C253.976 114.394 253.916 114.394 253.857 114.394Z"
            fill="#727B91" />
        <path
            d="M254.78 118.473C254.691 118.473 254.602 118.443 254.542 118.354C254.453 118.235 254.483 118.026 254.602 117.937L262.255 112.221C262.374 112.132 262.582 112.162 262.672 112.281C262.761 112.4 262.731 112.608 262.612 112.698L254.959 118.413C254.9 118.443 254.84 118.473 254.78 118.473Z"
            fill="#727B91" />
        <path
            d="M257.638 133.595C260.829 133.595 263.415 131.01 263.415 127.82C263.415 124.631 260.829 122.045 257.638 122.045C254.448 122.045 251.861 124.631 251.861 127.82C251.861 131.01 254.448 133.595 257.638 133.595Z"
            fill="#FFCBBB" />
        <path
            d="M260.944 128.207C260.795 128.207 260.676 128.088 260.646 127.969C260.408 126.57 259.246 125.349 257.876 125.052C256.507 124.754 254.928 125.379 254.154 126.54C254.065 126.689 253.886 126.719 253.737 126.629C253.588 126.54 253.559 126.361 253.648 126.213C254.571 124.813 256.387 124.099 257.996 124.456C259.633 124.813 260.944 126.213 261.212 127.88C261.241 128.058 261.122 128.207 260.973 128.237C261.003 128.207 260.973 128.207 260.944 128.207Z"
            fill="#350453" />
        <path
            d="M255.137 129.576C255.018 129.576 254.899 129.487 254.839 129.368C254.243 127.612 255.077 125.528 256.685 124.605C256.834 124.516 257.013 124.575 257.102 124.724C257.191 124.873 257.132 125.052 256.983 125.141C255.643 125.915 254.928 127.731 255.405 129.189C255.464 129.338 255.375 129.517 255.226 129.576C255.196 129.547 255.167 129.576 255.137 129.576Z"
            fill="#350453" />
        <path
            d="M278.216 120.705C278.792 120.705 279.258 120.239 279.258 119.663C279.258 119.088 278.792 118.622 278.216 118.622C277.64 118.622 277.174 119.088 277.174 119.663C277.174 120.239 277.64 120.705 278.216 120.705Z"
            fill="#350453" />
        <path
            d="M288.728 120.705C289.303 120.705 289.77 120.239 289.77 119.663C289.77 119.088 289.303 118.622 288.728 118.622C288.152 118.622 287.686 119.088 287.686 119.663C287.686 120.239 288.152 120.705 288.728 120.705Z"
            fill="#350453" />
        <path
            d="M275.823 114.091C278.291 113.393 280.122 112.224 279.911 111.481C279.701 110.737 277.529 110.7 275.061 111.399C272.592 112.097 270.761 113.266 270.972 114.01C271.182 114.753 273.354 114.79 275.823 114.091Z"
            fill="#2E3D63" />
        <path
            d="M292.752 113.281C292.963 112.537 291.132 111.368 288.664 110.67C286.195 109.972 284.023 110.008 283.813 110.752C283.602 111.495 285.433 112.664 287.901 113.362C290.37 114.061 292.542 114.024 292.752 113.281Z"
            fill="#2E3D63" />
        <path
            d="M283.934 128.981C283.785 128.981 283.666 128.892 283.636 128.743C283.606 128.594 283.696 128.415 283.874 128.386L286.405 127.82C286.703 127.612 286.822 127.225 286.733 126.867L283.189 114.186C283.16 114.037 283.249 113.859 283.398 113.829C283.576 113.769 283.725 113.888 283.755 114.037L287.269 126.719C287.448 127.344 287.18 127.999 286.644 128.356L286.554 128.386L283.964 128.981C283.964 128.981 283.964 128.981 283.934 128.981Z"
            fill="#350453" />
        <path
            d="M285.272 133.684C284.766 133.536 284.23 133.476 283.724 133.476C281.967 133.506 280.27 134.429 279.257 135.858C279.168 136.006 279.198 136.185 279.347 136.274C279.496 136.364 279.674 136.334 279.764 136.185C280.657 134.905 282.176 134.071 283.724 134.071C285.272 134.042 286.821 134.816 287.744 136.096C287.833 136.245 288.042 136.274 288.161 136.155C288.31 136.066 288.34 135.858 288.22 135.738C287.506 134.726 286.434 134.012 285.272 133.684Z"
            fill="#350453" />
        <path
            d="M272.558 94.5982C272.439 94.5982 272.29 94.5686 272.171 94.5387C271.069 94.241 270.652 92.9014 270.89 91.7405C271.099 90.7581 271.635 89.8948 272.23 89.1804C272.111 89.0911 271.992 89.0315 271.873 88.972C270.771 88.3766 269.372 88.1682 267.674 88.3171C264.786 88.6148 262.046 89.8948 259.932 91.8893C259.813 92.0084 259.634 92.0084 259.515 91.8893C259.396 91.7702 259.396 91.5916 259.515 91.4725C261.719 89.359 264.607 88.0492 267.615 87.7217C269.431 87.5431 270.95 87.7812 272.171 88.4362C272.349 88.5255 272.498 88.6148 272.647 88.7338C272.796 88.5552 272.945 88.4064 273.094 88.2575C277.352 83.9709 283.248 81.4406 289.353 81.2917C289.531 81.2917 289.65 81.4108 289.65 81.5894C289.65 81.768 289.531 81.8871 289.353 81.8871C283.427 82.0359 277.65 84.5067 273.511 88.6743C273.392 88.7934 273.243 88.9422 273.124 89.0911C274.077 89.9544 274.642 91.1451 274.553 92.3358C274.523 92.9907 274.285 93.5563 273.898 93.9731C273.541 94.3601 273.064 94.5982 272.558 94.5982ZM272.707 89.5674C272.171 90.2223 271.665 90.9962 271.486 91.8595C271.307 92.7228 271.575 93.7647 272.32 93.9433C272.707 94.0326 273.153 93.8838 273.451 93.5563C273.719 93.2587 273.898 92.8121 273.928 92.3061C274.017 91.3237 273.541 90.3116 272.707 89.5674Z"
            fill="#FEF4DE" />
        <path
            d="M240.309 162.53C237.897 161.339 235.247 160.625 232.716 160.476C225.212 160 217.857 163.512 212.259 168.573C206.69 173.634 202.64 180.123 198.918 186.672C193.737 195.841 189.091 205.308 185.012 215.012L240.309 230.432V162.53Z"
            fill="#B9B5B2" />
        <path
            d="M239.802 191.108C239.653 191.108 239.534 191.019 239.504 190.87C237.658 180.659 230.273 171.61 220.625 167.769C220.476 167.71 220.387 167.531 220.446 167.382C220.506 167.234 220.685 167.144 220.833 167.204C230.66 171.104 238.224 180.362 240.07 190.751C240.1 190.929 239.981 191.078 239.832 191.108C239.832 191.108 239.832 191.108 239.802 191.108Z"
            fill="white" />
        <path
            d="M265.203 176.968C265.114 176.968 265.055 176.938 264.995 176.879L252.22 163.989C252.101 163.87 252.101 163.691 252.22 163.572C252.339 163.453 252.518 163.453 252.637 163.572L265.114 176.164L270.325 166.102C270.415 165.954 270.593 165.894 270.742 165.983C270.891 166.073 270.951 166.251 270.861 166.4L265.471 176.819C265.442 176.908 265.352 176.968 265.263 176.968C265.233 176.968 265.233 176.968 265.203 176.968Z"
            fill="white" />
        <path
            d="M279.497 175.479C279.407 175.479 279.318 175.42 279.258 175.36L272.767 166.43C272.677 166.281 272.707 166.102 272.826 166.013C272.945 165.924 273.154 165.954 273.243 166.073L279.497 174.646L288.043 163.602C288.132 163.483 288.341 163.453 288.46 163.542C288.579 163.632 288.609 163.84 288.519 163.959L279.705 175.331C279.675 175.42 279.586 175.479 279.497 175.479Z"
            fill="white" />
        <path
            d="M234.471 217.126C234.442 217.126 234.412 217.126 234.382 217.126L190.549 202.837C190.4 202.777 190.311 202.628 190.37 202.45C190.43 202.301 190.579 202.212 190.757 202.271L234.59 216.56C234.739 216.62 234.829 216.768 234.769 216.947C234.71 217.066 234.59 217.126 234.471 217.126Z"
            fill="white" />
        <path
            d="M273.005 260.528C272.826 260.528 272.707 260.379 272.707 260.231V176.67C272.707 176.492 272.856 176.372 273.005 176.372C273.184 176.372 273.303 176.521 273.303 176.67V260.231C273.303 260.379 273.184 260.528 273.005 260.528Z"
            fill="white" />
        <path d="M267.348 230.075L267.437 236.803L270.087 237.755L274.465 232.665L267.348 230.075Z"
            fill="#FADDBF" />
        <path
            d="M274.465 232.665L285.75 201.706L290.038 189.858L286.495 188.578L282.922 187.268L278.634 199.116L267.348 230.075L274.465 232.665Z"
            fill="#FFB548" />
        <path
            d="M272.143 231.831L283.428 200.842L287.746 189.024L287.895 189.084L288.044 189.143L283.756 200.961L272.47 231.95L272.143 231.831Z"
            fill="#FBF2D5" />
        <path
            d="M269.344 230.819L280.6 199.83L284.918 187.982L285.066 188.042L285.245 188.101L280.927 199.949L269.642 230.908L269.344 230.819Z"
            fill="#FBF2D5" />
        <path d="M267.467 240.792L270.088 237.755L267.438 236.803L267.467 240.792Z" fill="#0F3843" />
        <path
            d="M287.717 182.058L289.742 182.802C291.082 183.279 291.767 184.767 291.29 186.107L290.248 188.935L283.369 186.434L284.411 183.606C284.888 182.267 286.377 181.582 287.717 182.058Z"
            fill="#F76652" />
        <path d="M282.52 187.388L290.299 190.219L291.276 187.533L283.497 184.703L282.52 187.388Z"
            fill="#2E3D63" />
        <path
            d="M295.994 221.591C295.667 223.734 293.284 224.687 290.991 224.984C292.123 225.729 292.897 226.681 292.897 227.961C292.867 232.367 288.282 233.022 286.019 232.605C286.763 233.052 287.329 233.677 287.597 234.51C288.043 235.969 287.239 237.577 286.048 238.499C284.827 239.422 283.309 239.809 281.79 240.047C281.224 240.137 280.688 240.226 280.122 240.286C280.301 241.595 279.676 242.965 278.723 243.888C277.532 244.989 275.954 245.525 274.375 245.912C270.623 246.805 265.859 247.073 261.72 246.12C261.243 247.073 260.737 248.025 260.231 248.978C258.533 252.104 256.657 255.14 254.633 258.057C245.878 270.739 234.264 281.485 220.805 289.017C215.504 291.993 209.489 294.554 203.504 293.452C196.834 292.232 191.593 286.427 189.806 279.878C188.377 274.519 188.525 266.72 191.533 261.838C194.124 257.641 198.174 253.562 201.39 249.811C209.191 240.702 218.095 232.516 227.832 225.491C233.371 221.502 239.208 217.87 245.252 214.655C248.647 212.839 255.407 210.577 261.601 209.743C272.231 208.344 283.338 210.904 292.48 216.5C294.327 217.721 296.322 219.448 295.994 221.591Z"
            fill="#FFCBBB" />
        <path
            d="M260.231 249.008C258.533 252.133 256.657 255.17 254.632 258.087C245.193 247.906 238.076 235.403 234.234 222.156L244.061 219.299C247.188 230.134 252.816 240.405 260.231 249.008Z"
            fill="#2E3D63" />
        <path
            d="M192.158 261.243C192.099 261.243 192.039 261.213 191.979 261.183C191.831 261.094 191.801 260.915 191.89 260.766C193.766 257.968 196.208 255.229 198.56 252.61C199.483 251.598 200.347 250.615 201.151 249.663C208.983 240.524 217.886 232.337 227.653 225.282C232.18 222.008 236.914 218.971 241.738 216.262C241.887 216.173 242.066 216.233 242.155 216.381C242.245 216.53 242.185 216.709 242.036 216.798C237.212 219.507 232.507 222.544 227.981 225.788C218.244 232.814 209.37 240.97 201.568 250.079C200.734 251.062 199.871 252.014 198.947 253.056C196.595 255.676 194.183 258.385 192.337 261.153C192.337 261.213 192.247 261.243 192.158 261.243Z"
            fill="#350453" />
        <path
            d="M286.108 224.925C281.016 224.925 275.953 223.972 271.219 222.127C271.07 222.067 270.981 221.889 271.04 221.74C271.1 221.591 271.278 221.502 271.427 221.561C277.293 223.853 283.696 224.746 289.949 224.121C290.098 224.121 290.247 224.24 290.277 224.389C290.306 224.568 290.158 224.687 290.009 224.717C288.728 224.865 287.418 224.925 286.108 224.925Z"
            fill="#350453" />
        <path
            d="M274.642 240.881C271.188 240.881 267.734 240.405 264.458 239.482C264.309 239.422 264.22 239.273 264.25 239.125C264.309 238.976 264.458 238.886 264.607 238.916C269.372 240.256 274.553 240.613 279.496 239.958C279.645 239.928 279.824 240.047 279.824 240.226C279.854 240.405 279.734 240.554 279.556 240.554C277.948 240.762 276.31 240.881 274.642 240.881Z"
            fill="#350453" />
        <path
            d="M279.945 233.528C276.133 233.528 272.351 232.843 268.748 231.534C268.599 231.474 268.51 231.295 268.569 231.147C268.629 230.998 268.808 230.908 268.957 230.968C274.287 232.933 280.064 233.439 285.632 232.427C285.781 232.397 285.96 232.516 285.99 232.665C286.019 232.814 285.9 232.992 285.751 233.022C283.816 233.349 281.88 233.528 279.945 233.528Z"
            fill="#350453" />
        <path
            d="M241.381 236.624C247.449 236.624 252.369 231.706 252.369 225.639C252.369 219.573 247.449 214.655 241.381 214.655C235.312 214.655 230.393 219.573 230.393 225.639C230.393 231.706 235.312 236.624 241.381 236.624Z"
            fill="#2E3D63" />
        <path
            d="M241.381 232.903C245.394 232.903 248.647 229.651 248.647 225.639C248.647 221.628 245.394 218.376 241.381 218.376C237.368 218.376 234.115 221.628 234.115 225.639C234.115 229.651 237.368 232.903 241.381 232.903Z"
            fill="white" />
        <path
            d="M241.38 226.413C241.807 226.413 242.154 226.067 242.154 225.639C242.154 225.212 241.807 224.865 241.38 224.865C240.952 224.865 240.605 225.212 240.605 225.639C240.605 226.067 240.952 226.413 241.38 226.413Z"
            fill="#2E2E2E" />
        <path d="M241.298 220.307L241.084 225.512L241.679 225.537L241.893 220.331L241.298 220.307Z"
            fill="#350453" />
        <path d="M244.447 228.438L241.201 226.056L241.559 225.58L244.804 227.932L244.447 228.438Z"
            fill="#350453" />
        <path
            d="M310.912 230.849L355.162 202.182C355.162 202.182 331.101 159.375 303.14 160.417C275.149 161.488 310.912 230.849 310.912 230.849Z"
            fill="#B9B5B2" />
        <path
            d="M421.477 195.543C423.651 194.859 425.884 194.115 427.433 192.477C428.981 190.84 429.488 187.952 427.88 186.345C426.51 185.005 424.187 185.095 422.579 186.137C420.971 187.178 419.988 188.935 419.244 190.691C418.797 191.733 418.44 192.954 418.857 193.995C419.274 195.067 420.822 195.692 421.596 194.859L421.477 195.543Z"
            fill="#FFCBBB" />
        <path
            d="M420.882 203.641C423.055 202.956 425.289 202.212 426.837 200.574C428.386 198.937 428.892 196.05 427.284 194.442C425.914 193.102 423.591 193.192 421.983 194.234C420.375 195.276 419.393 197.032 418.648 198.788C418.202 199.83 417.844 201.051 418.261 202.093C418.678 203.164 420.226 203.789 421.001 202.956L420.882 203.641Z"
            fill="#FFCBBB" />
        <path
            d="M419.096 211.47C421.27 210.785 423.504 210.041 425.052 208.404C426.601 206.736 427.107 203.879 425.499 202.271C424.129 200.932 421.806 201.021 420.198 202.063C418.59 203.105 417.608 204.861 416.863 206.617C416.416 207.659 416.059 208.88 416.476 209.922C416.893 210.993 418.441 211.619 419.216 210.785L419.096 211.47Z"
            fill="#FFCBBB" />
        <path
            d="M340.422 218.138L389.139 202.509C389.139 202.509 409.358 193.341 415.075 196.05C423.115 199.89 416.117 217.334 403.104 229.777C387.828 244.394 358.765 251.985 358.765 251.985C347.807 257.164 334.764 251.419 331.28 239.839C328.927 231.921 329.821 223.437 340.422 218.138Z"
            fill="#FFCBBB" />
        <path
            d="M394.291 188.339C395.214 187.565 396.167 186.821 397.328 186.524C398.49 186.226 399.859 186.464 400.574 187.417C401.348 188.459 401.11 189.917 400.783 191.167C398.698 198.997 394.41 206.23 388.544 211.797C387.204 213.047 385.774 214.268 384.077 214.923C381.814 215.816 378.896 215.637 377.317 213.553C375.948 211.797 376.901 210.011 377.854 208.284C380.504 203.462 383.75 198.967 387.442 194.918C389.556 192.567 391.849 190.364 394.291 188.339Z"
            fill="#FFCBBB" />
        <path
            d="M395.482 213.464C394.827 218.078 392.237 222.424 388.365 225.014C384.494 227.604 379.343 228.319 374.995 226.652C373.983 226.265 381.933 211.797 382.767 210.547C384.435 208.046 386.251 205.695 388.246 203.462C390.39 201.051 392.177 199.145 393.934 202.956C395.423 206.201 395.989 209.951 395.482 213.464Z"
            fill="#FFCBBB" />
        <path
            d="M321.365 252.729H321.335C321.156 252.699 321.067 252.55 321.067 252.401C323.777 233.052 321.484 212.958 315.886 194.234C315.826 194.085 315.915 193.906 316.094 193.847C316.243 193.787 316.422 193.876 316.481 194.055C322.109 212.839 324.402 233.052 321.662 252.461C321.633 252.61 321.514 252.729 321.365 252.729Z"
            fill="white" />
        <path
            d="M318.357 202.807C318.297 202.807 318.208 202.777 318.149 202.747C318.029 202.628 318 202.45 318.119 202.331C320.173 199.919 321.245 196.704 321.126 193.549C321.126 193.37 321.245 193.251 321.424 193.221C321.573 193.221 321.722 193.341 321.752 193.519C321.901 196.823 320.739 200.187 318.595 202.718C318.536 202.747 318.446 202.807 318.357 202.807Z"
            fill="white" />
        <path
            d="M394.738 191.614C393.905 191.614 393.071 191.316 392.445 190.78C392.326 190.661 392.297 190.483 392.416 190.364C392.535 190.245 392.713 190.215 392.833 190.334C393.666 191.048 394.947 191.227 395.959 190.751C396.972 190.274 397.627 189.173 397.597 188.072C397.597 187.893 397.716 187.774 397.895 187.774C398.073 187.774 398.193 187.893 398.193 188.072C398.222 189.411 397.418 190.751 396.197 191.316C395.751 191.495 395.245 191.614 394.738 191.614Z"
            fill="#350453" />
        <path
            d="M392.564 221.74C392.504 221.74 392.445 221.71 392.385 221.68C392.236 221.591 392.206 221.383 392.325 221.263C395.869 216.381 396.524 209.922 394.023 204.831C393.963 204.712 393.993 204.593 394.053 204.504C395.154 203.224 396.167 201.795 397.001 200.306C397.09 200.158 397.269 200.098 397.417 200.187C397.566 200.277 397.626 200.455 397.537 200.604C396.703 202.063 395.75 203.462 394.648 204.742C397.149 210.011 396.435 216.59 392.802 221.591C392.742 221.68 392.653 221.74 392.564 221.74Z"
            fill="#350453" />
        <path
            d="M341.525 219.924C341.406 219.924 341.316 219.864 341.257 219.745C341.167 219.596 341.227 219.418 341.376 219.328C353.466 213.196 366.062 208.642 378.837 205.784C379.015 205.754 379.164 205.843 379.194 206.022C379.224 206.171 379.134 206.349 378.956 206.379C366.241 209.207 353.674 213.762 341.614 219.864C341.614 219.924 341.584 219.924 341.525 219.924Z"
            fill="#350453" />
        <path d="M176.285 190.929H100.828V256.271H176.285V190.929Z" fill="white" />
        <path d="M121.852 235.016L107.439 225.788H136.324L121.852 235.016Z" fill="#E1E7F7" />
        <path d="M125.514 228.973L136.324 225.788L107.35 225.133L125.514 228.973Z" fill="white" />
        <path
            d="M175.302 226.175H101.84C101.542 226.175 101.334 225.937 101.334 225.669C101.334 225.401 101.572 225.163 101.84 225.163H175.302C175.6 225.163 175.809 225.401 175.809 225.669C175.809 225.937 175.6 226.175 175.302 226.175Z"
            fill="#E1E7F7" />
        <path
            d="M175.302 248.74H101.84C101.542 248.74 101.334 248.502 101.334 248.234C101.334 247.966 101.572 247.728 101.84 247.728H175.302C175.6 247.728 175.809 247.966 175.809 248.234C175.809 248.502 175.6 248.74 175.302 248.74Z"
            fill="#E1E7F7" />
        <path
            d="M175.302 231.534H101.84C101.542 231.534 101.334 231.295 101.334 231.027C101.334 230.76 101.572 230.521 101.84 230.521H175.302C175.6 230.521 175.809 230.76 175.809 231.027C175.809 231.295 175.6 231.534 175.302 231.534Z"
            fill="#E1E7F7" />
        <path
            d="M175.302 197.091H101.84C101.542 197.091 101.334 196.853 101.334 196.585C101.334 196.317 101.572 196.079 101.84 196.079H175.302C175.6 196.079 175.809 196.317 175.809 196.585C175.809 196.853 175.6 197.091 175.302 197.091Z"
            fill="#E1E7F7" />
        <path
            d="M175.302 202.867H101.84C101.542 202.867 101.334 202.628 101.334 202.36C101.334 202.063 101.572 201.854 101.84 201.854H175.302C175.6 201.854 175.809 202.093 175.809 202.36C175.839 202.658 175.6 202.867 175.302 202.867Z"
            fill="#E1E7F7" />
        <path
            d="M175.302 209.029H101.84C101.542 209.029 101.334 208.79 101.334 208.522C101.334 208.255 101.572 208.016 101.84 208.016H175.302C175.6 208.016 175.809 208.255 175.809 208.522C175.809 208.79 175.6 209.029 175.302 209.029Z"
            fill="#E1E7F7" />
        <path
            d="M154.875 191.644H101.84C101.542 191.644 101.334 191.406 101.334 191.138C101.334 190.84 101.572 190.632 101.84 190.632H154.875C162.23 190.632 168.99 187.982 172.92 183.517C173.099 183.309 173.426 183.279 173.665 183.457C173.873 183.636 173.903 183.963 173.724 184.202C169.555 188.845 162.528 191.644 154.875 191.644Z"
            fill="white" />
        <path
            d="M175.302 214.476H101.84C101.542 214.476 101.334 214.238 101.334 213.97C101.334 213.702 101.572 213.464 101.84 213.464H175.302C175.6 213.464 175.809 213.702 175.809 213.97C175.809 214.238 175.6 214.476 175.302 214.476Z"
            fill="#E1E7F7" />
        <path
            d="M175.302 220.757H101.84C101.542 220.757 101.334 220.519 101.334 220.251C101.334 219.983 101.572 219.745 101.84 219.745H175.302C175.6 219.745 175.809 219.983 175.809 220.251C175.809 220.519 175.6 220.757 175.302 220.757Z"
            fill="#E1E7F7" />
        <path
            d="M175.302 237.547H101.84C101.542 237.547 101.334 237.309 101.334 237.041C101.334 236.743 101.572 236.535 101.84 236.535H175.302C175.6 236.535 175.809 236.773 175.809 237.041C175.839 237.309 175.6 237.547 175.302 237.547Z"
            fill="#E1E7F7" />
        <path
            d="M175.302 243.024H101.84C101.542 243.024 101.334 242.786 101.334 242.518C101.334 242.25 101.572 242.012 101.84 242.012H175.302C175.6 242.012 175.809 242.25 175.809 242.518C175.809 242.786 175.6 243.024 175.302 243.024Z"
            fill="#E1E7F7" />
        <path d="M157.467 223.883L131.59 213.226H166.311L157.467 223.883Z" fill="#E1E7F7" />
        <path d="M159.313 219.001L130.756 212.928H165.477L159.313 219.001Z" fill="white" />
        <path d="M104.879 195.454L115.569 208.403L143.263 195.484L104.879 195.454Z" fill="#E1E7F7" />
        <path d="M104.432 195.454L109.881 203.849L142.339 195.454H104.432Z" fill="white" />
        <path
            d="M155.769 252.074V255.527H122.239V252.074C122.239 249.544 120.184 247.49 117.653 247.49H95.498V265.083H182.509V247.49H160.354C157.823 247.46 155.769 249.544 155.769 252.074Z"
            fill="#F76652" />
        <path fill-rule="evenodd" clip-rule="evenodd"
            d="M328.004 263.237C328.004 259.129 323.358 255.795 317.641 255.795H300.667C294.95 255.795 290.305 259.129 290.305 263.237C290.305 263.713 290.841 264.1 291.496 264.1H326.812C327.468 264.1 328.004 263.713 328.004 263.237Z"
            fill="white" />
        <path
            d="M169.257 476.112C168.811 476.112 168.394 475.814 168.275 475.338L117.563 268.744L66.8511 475.338C66.732 475.874 66.1662 476.201 65.6302 476.082C65.0942 475.963 64.7666 475.397 64.8857 474.862L116.58 264.309C116.699 263.862 117.086 263.535 117.563 263.535C118.039 263.535 118.427 263.862 118.546 264.309L170.24 474.862C170.359 475.397 170.032 475.933 169.496 476.082C169.406 476.112 169.347 476.112 169.257 476.112Z"
            fill="#181a20" />
        <path
            d="M595.113 476.112C594.666 476.112 594.249 475.814 594.13 475.338L543.418 268.744L492.707 475.338C492.587 475.874 492.022 476.201 491.486 476.082C490.95 475.963 490.622 475.397 490.741 474.862L542.436 264.309C542.555 263.862 542.942 263.535 543.418 263.535C543.895 263.535 544.282 263.862 544.401 264.309L596.096 474.862C596.215 475.397 595.887 475.933 595.351 476.082C595.292 476.112 595.202 476.112 595.113 476.112Z"
            fill="#181a20" />
        <path d="M629 263.713H48.8652V271.751H629V263.713Z" fill="#181a20" />
        <path
            d="M400.87 233.885H560.272C561.165 233.885 561.91 233.141 562.059 232.159L574.982 131.095C575.131 129.874 574.297 128.802 573.196 128.802H413.764C412.871 128.802 412.127 129.547 411.978 130.529L399.054 231.593C398.935 232.784 399.798 233.885 400.87 233.885Z"
            fill="#727B91" />
        <path d="M473.32 182.237L476.655 233.885H498.304L473.32 182.237Z" fill="#475577" />
        <path d="M473.291 182.237H503.962L528.887 265.648H498.245L473.291 182.237Z" fill="#727B91" />
        <path
            d="M463.434 265.916H553.512C553.512 262.582 550.802 259.873 547.467 259.873H469.478C466.143 259.843 463.434 262.552 463.434 265.916Z"
            fill="#727B91" />
        <path
            d="M537.402 157.499C538.406 157.499 539.219 156.686 539.219 155.683C539.219 154.68 538.406 153.867 537.402 153.867C536.399 153.867 535.586 154.68 535.586 155.683C535.586 156.686 536.399 157.499 537.402 157.499Z"
            fill="#475577" />
        <path
            d="M531.924 157.499C532.927 157.499 533.74 156.686 533.74 155.683C533.74 154.68 532.927 153.867 531.924 153.867C530.921 153.867 530.107 154.68 530.107 155.683C530.107 156.686 530.921 157.499 531.924 157.499Z"
            fill="#475577" />
        <path
            d="M526.445 157.499C527.449 157.499 528.262 156.686 528.262 155.683C528.262 154.68 527.449 153.867 526.445 153.867C525.442 153.867 524.629 154.68 524.629 155.683C524.629 156.686 525.442 157.499 526.445 157.499Z"
            fill="#475577" />
        <path
            d="M520.965 157.499C521.968 157.499 522.781 156.686 522.781 155.683C522.781 154.68 521.968 153.867 520.965 153.867C519.962 153.867 519.148 154.68 519.148 155.683C519.148 156.686 519.962 157.499 520.965 157.499Z"
            fill="#475577" />
        <path
            d="M515.486 157.499C516.49 157.499 517.303 156.686 517.303 155.683C517.303 154.68 516.49 153.867 515.486 153.867C514.483 153.867 513.67 154.68 513.67 155.683C513.67 156.686 514.483 157.499 515.486 157.499Z"
            fill="#475577" />
        <path
            d="M509.977 157.499C510.98 157.499 511.793 156.686 511.793 155.683C511.793 154.68 510.98 153.867 509.977 153.867C508.973 153.867 508.16 154.68 508.16 155.683C508.16 156.686 508.973 157.499 509.977 157.499Z"
            fill="#475577" />
        <path
            d="M504.498 157.499C505.501 157.499 506.315 156.686 506.315 155.683C506.315 154.68 505.501 153.867 504.498 153.867C503.495 153.867 502.682 154.68 502.682 155.683C502.682 156.686 503.495 157.499 504.498 157.499Z"
            fill="#475577" />
        <path
            d="M499.02 157.499C500.023 157.499 500.836 156.686 500.836 155.683C500.836 154.68 500.023 153.867 499.02 153.867C498.016 153.867 497.203 154.68 497.203 155.683C497.203 156.686 498.016 157.499 499.02 157.499Z"
            fill="#475577" />
        <path
            d="M493.539 157.499C494.542 157.499 495.356 156.686 495.356 155.683C495.356 154.68 494.542 153.867 493.539 153.867C492.536 153.867 491.723 154.68 491.723 155.683C491.723 156.686 492.536 157.499 493.539 157.499Z"
            fill="#475577" />
        <path
            d="M488.061 157.499C489.064 157.499 489.877 156.686 489.877 155.683C489.877 154.68 489.064 153.867 488.061 153.867C487.057 153.867 486.244 154.68 486.244 155.683C486.244 156.686 487.057 157.499 488.061 157.499Z"
            fill="#475577" />
        <path
            d="M482.582 157.499C483.585 157.499 484.399 156.686 484.399 155.683C484.399 154.68 483.585 153.867 482.582 153.867C481.579 153.867 480.766 154.68 480.766 155.683C480.766 156.686 481.579 157.499 482.582 157.499Z"
            fill="#475577" />
        <path
            d="M477.104 157.499C478.107 157.499 478.92 156.686 478.92 155.683C478.92 154.68 478.107 153.867 477.104 153.867C476.1 153.867 475.287 154.68 475.287 155.683C475.287 156.686 476.1 157.499 477.104 157.499Z"
            fill="#475577" />
        <path
            d="M471.594 157.499C472.597 157.499 473.41 156.686 473.41 155.683C473.41 154.68 472.597 153.867 471.594 153.867C470.591 153.867 469.777 154.68 469.777 155.683C469.777 156.686 470.591 157.499 471.594 157.499Z"
            fill="#475577" />
        <path
            d="M466.115 157.499C467.119 157.499 467.932 156.686 467.932 155.683C467.932 154.68 467.119 153.867 466.115 153.867C465.112 153.867 464.299 154.68 464.299 155.683C464.299 156.686 465.112 157.499 466.115 157.499Z"
            fill="#475577" />
        <path
            d="M460.635 157.499C461.638 157.499 462.451 156.686 462.451 155.683C462.451 154.68 461.638 153.867 460.635 153.867C459.632 153.867 458.818 154.68 458.818 155.683C458.818 156.686 459.632 157.499 460.635 157.499Z"
            fill="#475577" />
        <path
            d="M455.156 157.499C456.159 157.499 456.973 156.686 456.973 155.683C456.973 154.68 456.159 153.867 455.156 153.867C454.153 153.867 453.34 154.68 453.34 155.683C453.34 156.686 454.153 157.499 455.156 157.499Z"
            fill="#475577" />
        <path
            d="M537.402 167.531C538.406 167.531 539.219 166.718 539.219 165.715C539.219 164.712 538.406 163.899 537.402 163.899C536.399 163.899 535.586 164.712 535.586 165.715C535.586 166.718 536.399 167.531 537.402 167.531Z"
            fill="#475577" />
        <path
            d="M531.924 167.531C532.927 167.531 533.74 166.718 533.74 165.715C533.74 164.712 532.927 163.899 531.924 163.899C530.921 163.899 530.107 164.712 530.107 165.715C530.107 166.718 530.921 167.531 531.924 167.531Z"
            fill="#475577" />
        <path
            d="M526.445 167.531C527.449 167.531 528.262 166.718 528.262 165.715C528.262 164.712 527.449 163.899 526.445 163.899C525.442 163.899 524.629 164.712 524.629 165.715C524.629 166.718 525.442 167.531 526.445 167.531Z"
            fill="#475577" />
        <path
            d="M520.965 167.531C521.968 167.531 522.781 166.718 522.781 165.715C522.781 164.712 521.968 163.899 520.965 163.899C519.962 163.899 519.148 164.712 519.148 165.715C519.148 166.718 519.962 167.531 520.965 167.531Z"
            fill="#475577" />
        <path
            d="M515.486 167.531C516.49 167.531 517.303 166.718 517.303 165.715C517.303 164.712 516.49 163.899 515.486 163.899C514.483 163.899 513.67 164.712 513.67 165.715C513.67 166.718 514.483 167.531 515.486 167.531Z"
            fill="#475577" />
        <path
            d="M509.977 167.531C510.98 167.531 511.793 166.718 511.793 165.715C511.793 164.712 510.98 163.899 509.977 163.899C508.973 163.899 508.16 164.712 508.16 165.715C508.16 166.718 508.973 167.531 509.977 167.531Z"
            fill="#475577" />
        <path
            d="M504.498 167.531C505.501 167.531 506.315 166.718 506.315 165.715C506.315 164.712 505.501 163.899 504.498 163.899C503.495 163.899 502.682 164.712 502.682 165.715C502.682 166.718 503.495 167.531 504.498 167.531Z"
            fill="#475577" />
        <path
            d="M499.02 167.531C500.023 167.531 500.836 166.718 500.836 165.715C500.836 164.712 500.023 163.899 499.02 163.899C498.016 163.899 497.203 164.712 497.203 165.715C497.203 166.718 498.016 167.531 499.02 167.531Z"
            fill="#475577" />
        <path
            d="M493.539 167.531C494.542 167.531 495.356 166.718 495.356 165.715C495.356 164.712 494.542 163.899 493.539 163.899C492.536 163.899 491.723 164.712 491.723 165.715C491.723 166.718 492.536 167.531 493.539 167.531Z"
            fill="#475577" />
        <path
            d="M488.061 167.531C489.064 167.531 489.877 166.718 489.877 165.715C489.877 164.712 489.064 163.899 488.061 163.899C487.057 163.899 486.244 164.712 486.244 165.715C486.244 166.718 487.057 167.531 488.061 167.531Z"
            fill="#475577" />
        <path
            d="M482.582 167.531C483.585 167.531 484.399 166.718 484.399 165.715C484.399 164.712 483.585 163.899 482.582 163.899C481.579 163.899 480.766 164.712 480.766 165.715C480.766 166.718 481.579 167.531 482.582 167.531Z"
            fill="#475577" />
        <path
            d="M477.104 167.531C478.107 167.531 478.92 166.718 478.92 165.715C478.92 164.712 478.107 163.899 477.104 163.899C476.1 163.899 475.287 164.712 475.287 165.715C475.287 166.718 476.1 167.531 477.104 167.531Z"
            fill="#475577" />
        <path
            d="M471.594 167.531C472.597 167.531 473.41 166.718 473.41 165.715C473.41 164.712 472.597 163.899 471.594 163.899C470.591 163.899 469.777 164.712 469.777 165.715C469.777 166.718 470.591 167.531 471.594 167.531Z"
            fill="#475577" />
        <path
            d="M466.115 167.531C467.119 167.531 467.932 166.718 467.932 165.715C467.932 164.712 467.119 163.899 466.115 163.899C465.112 163.899 464.299 164.712 464.299 165.715C464.299 166.718 465.112 167.531 466.115 167.531Z"
            fill="#475577" />
        <path
            d="M460.635 167.531C461.638 167.531 462.451 166.718 462.451 165.715C462.451 164.712 461.638 163.899 460.635 163.899C459.632 163.899 458.818 164.712 458.818 165.715C458.818 166.718 459.632 167.531 460.635 167.531Z"
            fill="#475577" />
        <path
            d="M455.156 167.531C456.159 167.531 456.973 166.718 456.973 165.715C456.973 164.712 456.159 163.899 455.156 163.899C454.153 163.899 453.34 164.712 453.34 165.715C453.34 166.718 454.153 167.531 455.156 167.531Z"
            fill="#475577" />
        <path
            d="M540.231 162.53C541.234 162.53 542.047 161.717 542.047 160.714C542.047 159.711 541.234 158.898 540.231 158.898C539.227 158.898 538.414 159.711 538.414 160.714C538.414 161.717 539.227 162.53 540.231 162.53Z"
            fill="#475577" />
        <path
            d="M534.752 162.53C535.755 162.53 536.568 161.717 536.568 160.714C536.568 159.711 535.755 158.898 534.752 158.898C533.749 158.898 532.936 159.711 532.936 160.714C532.936 161.717 533.749 162.53 534.752 162.53Z"
            fill="#475577" />
        <path
            d="M529.273 162.53C530.277 162.53 531.09 161.717 531.09 160.714C531.09 159.711 530.277 158.898 529.273 158.898C528.27 158.898 527.457 159.711 527.457 160.714C527.457 161.717 528.27 162.53 529.273 162.53Z"
            fill="#475577" />
        <path
            d="M523.764 162.53C524.767 162.53 525.58 161.717 525.58 160.714C525.58 159.711 524.767 158.898 523.764 158.898C522.761 158.898 521.947 159.711 521.947 160.714C521.947 161.717 522.761 162.53 523.764 162.53Z"
            fill="#475577" />
        <path
            d="M518.285 162.53C519.288 162.53 520.102 161.717 520.102 160.714C520.102 159.711 519.288 158.898 518.285 158.898C517.282 158.898 516.469 159.711 516.469 160.714C516.469 161.717 517.282 162.53 518.285 162.53Z"
            fill="#475577" />
        <path
            d="M512.805 162.53C513.808 162.53 514.621 161.717 514.621 160.714C514.621 159.711 513.808 158.898 512.805 158.898C511.802 158.898 510.988 159.711 510.988 160.714C510.988 161.717 511.802 162.53 512.805 162.53Z"
            fill="#475577" />
        <path
            d="M507.326 162.53C508.329 162.53 509.143 161.717 509.143 160.714C509.143 159.711 508.329 158.898 507.326 158.898C506.323 158.898 505.51 159.711 505.51 160.714C505.51 161.717 506.323 162.53 507.326 162.53Z"
            fill="#475577" />
        <path
            d="M501.848 162.53C502.851 162.53 503.664 161.717 503.664 160.714C503.664 159.711 502.851 158.898 501.848 158.898C500.845 158.898 500.031 159.711 500.031 160.714C500.031 161.717 500.845 162.53 501.848 162.53Z"
            fill="#475577" />
        <path
            d="M496.369 162.53C497.372 162.53 498.186 161.717 498.186 160.714C498.186 159.711 497.372 158.898 496.369 158.898C495.366 158.898 494.553 159.711 494.553 160.714C494.553 161.717 495.366 162.53 496.369 162.53Z"
            fill="#475577" />
        <path
            d="M490.889 162.53C491.892 162.53 492.705 161.717 492.705 160.714C492.705 159.711 491.892 158.898 490.889 158.898C489.886 158.898 489.072 159.711 489.072 160.714C489.072 161.717 489.886 162.53 490.889 162.53Z"
            fill="#475577" />
        <path
            d="M485.381 162.53C486.384 162.53 487.197 161.717 487.197 160.714C487.197 159.711 486.384 158.898 485.381 158.898C484.378 158.898 483.564 159.711 483.564 160.714C483.564 161.717 484.378 162.53 485.381 162.53Z"
            fill="#475577" />
        <path
            d="M479.9 162.53C480.904 162.53 481.717 161.717 481.717 160.714C481.717 159.711 480.904 158.898 479.9 158.898C478.897 158.898 478.084 159.711 478.084 160.714C478.084 161.717 478.897 162.53 479.9 162.53Z"
            fill="#475577" />
        <path
            d="M474.422 162.53C475.425 162.53 476.238 161.717 476.238 160.714C476.238 159.711 475.425 158.898 474.422 158.898C473.419 158.898 472.605 159.711 472.605 160.714C472.605 161.717 473.419 162.53 474.422 162.53Z"
            fill="#475577" />
        <path
            d="M468.943 162.53C469.947 162.53 470.76 161.717 470.76 160.714C470.76 159.711 469.947 158.898 468.943 158.898C467.94 158.898 467.127 159.711 467.127 160.714C467.127 161.717 467.94 162.53 468.943 162.53Z"
            fill="#475577" />
        <path
            d="M463.464 162.53C464.467 162.53 465.279 161.717 465.279 160.714C465.279 159.711 464.467 158.898 463.464 158.898C462.461 158.898 461.646 159.711 461.646 160.714C461.646 161.717 462.461 162.53 463.464 162.53Z"
            fill="#475577" />
        <path
            d="M457.984 162.53C458.988 162.53 459.801 161.717 459.801 160.714C459.801 159.711 458.988 158.898 457.984 158.898C456.981 158.898 456.168 159.711 456.168 160.714C456.168 161.717 456.981 162.53 457.984 162.53Z"
            fill="#475577" />
        <path
            d="M471.624 385.169C469.391 386.3 467.128 387.402 465.162 388.92C463.614 390.14 462.274 391.659 460.755 392.879C460.458 389.575 460.577 386.27 461.113 382.996C459.266 386.687 458.075 390.676 457.599 394.784C455.663 395.618 453.549 396.154 451.614 397.047C450.81 397.434 450.065 397.85 449.321 398.356C448.993 395.35 448.278 392.403 447.236 389.605C447.117 393.653 446.521 397.702 445.449 401.601C440.953 406.067 437.231 407.019 431.484 414.193C431.424 409.341 431.662 404.459 432.139 399.637C432.496 395.677 433.032 391.688 434.253 387.908C436.427 385.705 439.107 384.008 442.025 383.026C440.209 382.668 438.303 382.609 436.457 382.817C436.457 382.788 436.486 382.758 436.486 382.728C438.809 378.56 442.799 375.524 447.385 374.214C450.154 373.44 453.37 372.636 455.634 372.458C453.698 371.327 451.554 370.553 449.35 370.195C449.559 370.076 449.738 369.987 449.946 369.868C456.527 366.385 464.031 364.926 471.475 364.956C473.53 364.956 475.585 365.075 477.58 365.522C479.635 365.998 481.57 366.772 483.446 367.695C484.578 368.26 487.496 370.493 487.496 370.493C487.496 370.493 481.957 379.9 471.624 385.169Z"
            fill="#A2CDB7" />
        <path
            d="M496.46 414.461C496.192 414.461 495.983 414.253 495.953 413.985C495.566 402.941 494.107 391.867 491.636 381.061C490.832 377.608 489.76 373.708 486.99 371.327C484.727 369.392 481.422 368.499 477.134 368.647C469.659 368.915 461.798 371.982 455.009 377.28C449.321 381.716 444.17 387.729 439.316 395.648C439.167 395.886 438.869 395.945 438.631 395.826C438.393 395.677 438.333 395.38 438.452 395.141C443.365 387.134 448.577 381.031 454.383 376.506C461.351 371.088 469.391 367.933 477.104 367.665C481.66 367.516 485.203 368.499 487.645 370.582C490.653 373.142 491.784 377.221 492.618 380.853C495.12 391.688 496.579 402.822 496.966 413.955C496.966 414.193 496.757 414.431 496.46 414.461Z"
            fill="#91B8A4" />
        <path
            d="M488.24 344.535C488.24 344.535 467.961 339.266 463.107 335.069C465.757 333.461 468.646 332.3 471.653 331.586C466.293 327.716 459.712 325.572 453.102 325.483C452.298 324.65 451.464 323.816 450.66 322.983C448.724 320.988 446.729 318.994 444.466 317.446C448.01 316.404 451.643 315.689 455.335 315.332C451.672 313.844 447.563 314.111 443.602 314.111C440.327 314.111 436.873 313.873 434.014 312.385C434.014 312.385 434.014 312.385 433.984 312.385C431.9 310.837 430.351 308.694 428.594 306.759C426.629 304.615 424.098 302.621 421.18 302.532C430.351 299.882 440.178 299.674 449.499 301.728C453.429 303.692 456.943 306.55 459.653 310.033C458.64 308.098 457.836 306.074 457.211 303.99C460.338 305.151 463.375 306.58 466.264 308.277C467.782 310.331 468.884 312.712 469.956 315.064C470.909 317.148 471.862 319.202 472.815 321.286C472.666 317.743 471.862 314.26 470.462 311.016C470.671 311.164 470.879 311.313 471.088 311.462C473.202 313.01 479.098 318.22 485.589 332.002C488.24 337.688 488.24 344.535 488.24 344.535Z"
            fill="#A2CDB7" />
        <path
            d="M502.95 409.698C502.861 409.698 502.742 409.669 502.653 409.609C502.295 409.341 502.266 408.835 502.176 406.394C501.968 399.726 501.372 382.014 491.724 353.823C484.071 331.437 467.455 319.738 449.678 308.813C449.439 308.664 449.38 308.366 449.499 308.128C449.648 307.89 449.946 307.83 450.184 307.949C468.14 318.994 484.875 330.782 492.647 353.495C502.325 381.805 502.921 399.637 503.159 406.364C503.189 407.555 503.218 408.597 503.308 408.895C503.457 409.073 503.457 409.311 503.308 409.49C503.248 409.609 503.099 409.698 502.95 409.698Z"
            fill="#91B8A4" />
        <path
            d="M587.4 346.262C583.202 342.66 577.782 340.486 572.243 340.248C575.966 341.29 579.39 343.344 582.13 346.083C582.457 346.41 582.844 347.006 583.321 347.661C577.484 349.655 571.469 351.769 566.109 353.763C556.58 347.244 551.22 348.018 549.731 347.542C554.228 349.596 558.069 352.364 561.404 355.787C560.213 356.264 559.052 356.74 557.95 357.187C553.037 359.211 547.468 358.407 543.21 355.252C541.9 354.269 540.619 353.763 539.339 354.448C528.291 360.461 531.15 354.448 523.914 356.8C523.02 349.625 533.353 341.26 538.386 337.897C559.409 323.995 588.979 324.471 609.525 339.028C609.376 339.058 599.311 342.243 587.4 346.262Z"
            fill="#A2CDB7" />
        <path
            d="M517.273 414.699C517.035 414.699 516.827 414.521 516.767 414.283C514.772 400.053 514.653 387.55 516.41 377.161C518.077 367.427 521.412 359.241 526.385 352.781C534.634 342.064 547.23 335.813 564.918 333.669C565.186 333.64 565.454 333.818 565.484 334.116C565.514 334.384 565.335 334.652 565.037 334.681C547.647 336.795 535.259 342.898 527.189 353.406C522.336 359.747 519.03 367.784 517.392 377.34C515.636 387.64 515.755 400.023 517.75 414.163C517.78 414.431 517.601 414.699 517.333 414.729C517.303 414.699 517.303 414.699 517.273 414.699Z"
            fill="#91B8A4" />
        <path
            d="M518.227 321.911C520.579 314.856 524.659 308.515 529.185 302.621C546.277 280.294 570.606 263.594 597.585 255.616C590.796 262.404 578.17 279.133 577.544 279.52C576.77 279.967 563.281 281.485 557.712 283.301C562.804 283.361 568.283 282.884 573.792 283.599C570.427 291.339 559.231 300.984 559.231 300.984C559.231 300.984 550.387 302.412 546.069 303.722C549.047 304.02 551.906 304.526 555.687 305.002C554.318 307.086 549.106 313.873 548.154 314.201C540.649 316.761 532.609 319.887 527.22 325.126C533.056 322.685 538.744 322.596 543.508 321.822C542.913 321.911 533.86 334.622 528.053 339.117C525.612 340.993 519.209 343.999 519.209 343.999C519.209 343.999 514.355 333.521 518.227 321.911Z"
            fill="#A2CDB7" />
        <path
            d="M505.898 413.36C505.868 413.36 505.839 413.36 505.809 413.36C505.541 413.3 505.362 413.032 505.422 412.764C507.595 402.435 509.68 392.313 511.437 382.133C512.032 378.679 512.628 375.137 513.194 371.743C516.678 350.548 520.311 328.639 531.269 310.003C535.378 303.008 540.649 296.191 547.855 288.54C548.034 288.332 548.362 288.332 548.57 288.511C548.778 288.689 548.778 289.017 548.6 289.225C541.453 296.816 536.212 303.603 532.162 310.51C521.293 328.996 517.72 350.816 514.236 371.922C513.67 375.345 513.075 378.888 512.479 382.341C510.692 392.522 508.608 402.673 506.464 413.003C506.345 413.211 506.136 413.36 505.898 413.36Z"
            fill="#91B8A4" />
        <path
            d="M511.497 302.799C515.934 299.197 523.349 296.518 523.528 296.548C523.081 304.705 522.098 312.831 520.58 320.869C519.508 326.674 517.929 332.449 514.415 337.42C510.753 342.66 507.418 338.343 504.499 334.771C496.578 325.096 493.184 313.189 494.018 301.073C494.018 300.954 494.047 300.805 494.047 300.686C497.799 303.901 501.283 307.473 504.351 311.343C503.755 308.842 503.874 303.841 495.387 289.91C496.37 284.164 497.74 278.389 499.229 272.733C502.713 273.954 506.465 278.538 506.703 279.848C505.72 275.68 504.738 271.513 503.815 267.345C503.338 265.232 503.01 262.969 502.564 260.737C504.41 255.438 515.994 234.897 522.694 230.462C519.299 242.161 521.324 254.396 522.664 266.393C521.562 267.554 515.368 268.566 513.82 276.514C514.296 274.073 522.188 270.649 523.14 271.126C523.26 272.316 523.349 273.507 523.408 274.728C523.766 280.741 523.825 286.784 523.617 292.797C522.962 292.946 522.336 293.184 521.741 293.452C517.453 295.268 513.731 298.632 511.497 302.799Z"
            fill="#A2CDB7" />
        <path
            d="M513.433 417.617C513.165 417.617 512.957 417.438 512.927 417.17C509.175 379.096 507.745 340.367 508.609 302.115C508.996 284.7 509.889 266.244 515.905 249.037C515.994 248.77 516.292 248.65 516.53 248.74C516.798 248.829 516.917 249.127 516.828 249.365C510.872 266.452 510.009 284.789 509.592 302.145C508.728 340.367 510.157 379.037 513.909 417.051C513.939 417.319 513.731 417.557 513.463 417.587C513.463 417.617 513.433 417.617 513.433 417.617Z"
            fill="#91B8A4" />
        <path
            d="M535.199 409.162L534.127 419.7L534.008 420.921L528.559 474.088H483.564L478.145 420.921L478.026 419.7L476.924 409.162H535.199Z"
            fill="white" />
        <path d="M534.127 419.7L534.008 420.921H478.144L478.025 419.7H534.127Z" fill="#E1E7F7" />
        <path
            d="M33.3214 234.987C33.0534 234.987 32.8152 234.897 32.6067 234.689C32.2196 234.302 32.2196 233.677 32.6067 233.26L53.9575 211.916C54.3446 211.529 54.97 211.529 55.3869 211.916C55.774 212.303 55.774 212.928 55.3869 213.345L34.0361 234.689C33.8276 234.868 33.5894 234.987 33.3214 234.987Z"
            fill="#181a20" />
        <path
            d="M54.6722 234.987C54.4042 234.987 54.166 234.897 53.9575 234.689L32.6067 213.345C32.2196 212.958 32.2196 212.333 32.6067 211.916C32.9939 211.529 33.6192 211.529 34.0361 211.916L55.3869 233.26C55.774 233.647 55.774 234.272 55.3869 234.689C55.1784 234.868 54.9402 234.987 54.6722 234.987Z"
            fill="#181a20" />
        <path
            d="M543.925 94.8662C543.657 94.8662 543.419 94.7769 543.21 94.5685C542.823 94.1815 542.823 93.5563 543.21 93.1396L561.256 75.0998C561.643 74.7128 562.268 74.7128 562.685 75.0998C563.072 75.4868 563.072 76.112 562.685 76.5287L544.64 94.5685C544.461 94.7769 544.193 94.8662 543.925 94.8662Z"
            fill="#181a20" />
        <path
            d="M561.97 94.8662C561.702 94.8662 561.464 94.7769 561.256 94.5685L543.21 76.5287C542.823 76.1417 542.823 75.5166 543.21 75.0998C543.597 74.7128 544.223 74.7128 544.64 75.0998L562.685 93.1396C563.072 93.5266 563.072 94.1517 562.685 94.5685C562.477 94.7769 562.238 94.8662 561.97 94.8662Z"
            fill="#181a20" />
        <path
            d="M109.107 30.0005C108.839 30.0005 108.6 29.9112 108.392 29.7029C108.005 29.3159 108.005 28.6907 108.392 28.274L120.124 16.5749C120.512 16.1879 121.137 16.1879 121.554 16.5749C121.941 16.9619 121.941 17.5871 121.554 18.0038L109.821 29.7326C109.643 29.9112 109.375 30.0005 109.107 30.0005Z"
            fill="#181a20" />
        <path
            d="M120.839 30.0007C120.571 30.0007 120.333 29.9114 120.124 29.703L108.392 17.9742C108.005 17.5872 108.005 16.9621 108.392 16.5453C108.779 16.1584 109.404 16.1584 109.821 16.5453L121.554 28.2742C121.941 28.6611 121.941 29.2863 121.554 29.703C121.345 29.9114 121.107 30.0007 120.839 30.0007Z"
            fill="#181a20" />
        <path
            d="M230.957 71.7361H200.375C189.179 71.7361 180.037 62.6269 180.037 51.4042V20.8319C180.037 9.63894 189.149 0.5 200.375 0.5H230.987C242.184 0.5 251.326 9.60917 251.326 20.8319V51.4042C251.296 62.5972 242.184 71.7361 230.957 71.7361ZM200.375 2.49449C190.281 2.49449 182.062 10.7106 182.062 20.8021V51.4042C182.062 61.4957 190.281 69.7119 200.375 69.7119H230.987C241.082 69.7119 249.301 61.4957 249.301 51.4042V20.8319C249.301 10.7404 241.082 2.52426 230.987 2.52426H200.375V2.49449Z"
            fill="#181a20" />
        <path
            d="M215.682 59.6203C202.729 59.6203 192.188 49.0822 192.188 36.1329C192.188 23.1836 202.729 12.6455 215.682 12.6455C228.636 12.6455 239.176 23.1836 239.176 36.1329C239.176 49.0822 228.636 59.6203 215.682 59.6203ZM215.682 14.6102C203.831 14.6102 194.182 24.2552 194.182 36.1031C194.182 47.951 203.831 57.596 215.682 57.596C227.534 57.596 237.182 47.951 237.182 36.1031C237.182 24.2552 227.534 14.6102 215.682 14.6102Z"
            fill="#181a20" />
        <path
            d="M199.81 53.488C199.542 53.488 199.303 53.3987 199.095 53.1903C198.708 52.8033 198.708 52.1782 199.095 51.7614L231.106 19.79C231.493 19.403 232.119 19.403 232.536 19.79C232.923 20.177 232.923 20.8021 232.536 21.2189L200.524 53.1903C200.346 53.3689 200.078 53.488 199.81 53.488Z"
            fill="#181a20" />
        <path
            d="M162.14 169.794H1.42847C0.862685 169.794 0.416016 169.347 0.416016 168.782V71.7659C0.416016 63.6391 7.02672 57.0305 15.1561 57.0305H148.353C156.482 57.0305 163.093 63.6391 163.093 71.7659V168.782C163.153 169.347 162.706 169.794 162.14 169.794ZM2.44092 167.799H161.128V71.7659C161.128 64.7405 155.41 59.025 148.383 59.025H15.1859C8.15829 59.025 2.44092 64.7405 2.44092 71.7659V167.799Z"
            fill="#181a20" />
        <path
            d="M162.588 82.0956H1.01245C0.44667 82.0956 0 81.649 0 81.0834C0 80.5178 0.44667 80.0713 1.01245 80.0713H162.588C163.153 80.0713 163.6 80.5178 163.6 81.0834C163.6 81.649 163.124 82.0956 162.588 82.0956Z"
            fill="#181a20" />
        <path
            d="M17.838 75.993C14.6219 75.993 12.0312 73.3734 12.0312 70.1882C12.0312 66.9732 14.6517 64.3833 17.838 64.3833C21.054 64.3833 23.6447 67.0029 23.6447 70.1882C23.6744 73.3734 21.054 75.993 17.838 75.993ZM17.838 66.348C15.7237 66.348 14.0264 68.0448 14.0264 70.1584C14.0264 72.272 15.7237 73.9688 17.838 73.9688C19.9522 73.9688 21.6495 72.272 21.6495 70.1584C21.6495 68.0448 19.9522 66.348 17.838 66.348Z"
            fill="#181a20" />
        <path
            d="M32.5469 75.993C29.3309 75.993 26.7402 73.3734 26.7402 70.1882C26.7402 66.9732 29.3607 64.3833 32.5469 64.3833C35.763 64.3833 38.3536 67.0029 38.3536 70.1882C38.3536 73.3734 35.763 75.993 32.5469 75.993ZM32.5469 66.348C30.4327 66.348 28.7354 68.0448 28.7354 70.1584C28.7354 72.272 30.4327 73.9688 32.5469 73.9688C34.6612 73.9688 36.3585 72.272 36.3585 70.1584C36.3585 68.0448 34.6612 66.348 32.5469 66.348Z"
            fill="#181a20" />
        <path
            d="M47.2579 75.993C44.0419 75.993 41.4512 73.3734 41.4512 70.1882C41.4512 66.9732 44.0716 64.3833 47.2579 64.3833C50.4739 64.3833 53.0646 67.0029 53.0646 70.1882C53.0646 73.3734 50.4441 75.993 47.2579 75.993ZM47.2579 66.348C45.1436 66.348 43.4463 68.0448 43.4463 70.1584C43.4463 72.272 45.1436 73.9688 47.2579 73.9688C49.3721 73.9688 51.0695 72.272 51.0695 70.1584C51.0695 68.0448 49.3423 66.348 47.2579 66.348Z"
            fill="#181a20" />
        <path fill-rule="evenodd" clip-rule="evenodd"
            d="M92.5788 105.464L92.4597 105.345C89.3628 102.219 84.2708 102.219 81.1441 105.345L73.9378 112.549C70.8409 115.645 70.8409 120.735 73.9378 123.861L74.0569 123.98C74.3249 124.248 74.5929 124.486 74.8609 124.694L77.5112 122.045C77.2134 121.866 76.9156 121.658 76.6476 121.39L76.5285 121.271C74.8311 119.574 74.8311 116.835 76.5285 115.139L83.7348 107.935C85.4321 106.238 88.1717 106.238 89.869 107.935L89.9881 108.054C91.6855 109.751 91.6855 112.489 89.9881 114.186L86.7126 117.461C87.2783 118.86 87.5463 120.348 87.5166 121.837L92.549 116.806C95.6757 113.65 95.6757 108.56 92.5788 105.464ZM81.9183 115.853C81.6503 115.585 81.3823 115.347 81.1143 115.139L78.4641 117.788C78.7618 117.967 79.0596 118.175 79.3276 118.443L79.4467 118.562C81.1441 120.259 81.1441 122.998 79.4467 124.694L72.2405 131.898C70.5431 133.595 67.8036 133.595 66.1062 131.898L65.9871 131.779C64.2898 130.082 64.2898 127.344 65.9871 125.647L69.2627 122.372C68.6969 120.973 68.4289 119.485 68.4587 117.996L63.4262 123.027C60.3293 126.153 60.3293 131.214 63.4262 134.339L63.5453 134.458C66.6422 137.584 71.7342 137.584 74.8609 134.458L82.0672 127.254C85.1641 124.159 85.1641 119.068 82.0672 115.942L81.9183 115.853Z"
            fill="#181a20" />
    </g>
    <defs>
        <clipPath id="clip0_2524_441">
            <rect width="629" height="481" fill="white" transform="translate(0 0.5)" />
        </clipPath>
    </defs>
</svg>