<svg width="18" height="17" viewBox="0 0 18 17" fill="none" xmlns="http://www.w3.org/2000/svg">
<path d="M15.2222 6.30961V12.018C15.2222 13.5114 15.2222 14.2582 14.9316 14.8286C14.6759 15.3303 14.268 15.7383 13.7662 15.994C13.1957 16.2846 12.4491 16.2846 10.9556 16.2846H7.04444C5.55097 16.2846 4.80423 16.2846 4.2338 15.994C3.73204 15.7383 3.32409 15.3303 3.06843 14.8286C2.77778 14.2582 2.77778 13.5114 2.77778 12.018V6.30903M17 8.28465L14.5852 5.60196M9.87609 0.86368C9.30809 0.66584 8.68978 0.665884 8.12169 0.863804C7.47493 1.08915 6.92588 1.69934 5.82768 2.91974L1 8.28465" stroke="black" stroke-linecap="round" stroke-linejoin="round"/>
</svg>
