<svg width="30" height="31" viewBox="0 0 30 31" fill="none" xmlns="http://www.w3.org/2000/svg">
<path d="M17.0056 2.06487C17.2736 2.07998 17.5417 2.09409 17.8108 2.10921C20.8522 2.28859 23.3878 3.56946 25.3751 5.82485C28.4206 9.28149 29.002 14.0291 26.8525 18.1237C24.8903 21.8615 21.738 23.873 17.4923 24.1239C15.8648 24.2207 14.3309 23.8387 12.8233 23.2854C12.1501 23.0385 11.4709 23.2794 11.2855 23.8155C11.093 24.3718 11.4044 24.9291 12.0756 25.179C13.952 25.8774 15.8728 26.2211 17.8924 26.0407C21.4135 25.7252 24.3855 24.3265 26.7245 21.67C29.386 18.6477 30.425 15.1034 29.8435 11.1297C29.3517 7.76883 27.7423 5.00956 25.0667 2.89627C22.4213 0.805155 19.4353 -0.200597 16.0431 0.0332049C13.5257 0.206541 11.2845 1.08431 9.25381 2.54759C7.81774 3.58256 6.66485 4.87553 5.78608 6.41137C4.74606 8.22938 4.12729 10.1633 4.03155 12.2766C3.96403 13.7721 4.14946 15.2233 4.54955 16.6463C5.00808 18.2748 5.76592 19.7683 6.81803 21.0986C7.05788 21.4019 7.01959 21.5984 6.75353 21.8615C5.6329 22.972 4.53241 24.1027 3.42387 25.2264C2.42215 26.2422 1.40027 27.2399 0.43382 28.289C0.188933 28.5551 -0.0347919 29.0045 0.0045111 29.3381C0.101257 30.1806 1.04352 30.4225 1.69555 29.7997C2.53199 28.9985 3.33821 28.1671 4.15752 27.3478C5.73569 25.7686 7.31385 24.1894 8.89202 22.6102C9.67203 21.8292 9.68211 21.4453 8.94543 20.6018C8.91217 20.5635 8.8769 20.5272 8.84365 20.4899C6.27081 17.5653 5.44948 14.2075 6.36353 10.4263C7.48215 5.79663 11.7037 2.03967 17.0046 2.06587L17.0056 2.06487ZM20.8411 11.0078C20.8573 11.0562 20.8734 11.1045 20.8895 11.1539C20.3191 11.8533 19.7326 12.5406 19.1854 13.2581C18.9495 13.5665 18.7732 13.5524 18.492 13.3347C17.6435 12.6777 16.7808 12.0387 15.9192 11.3998C15.2057 10.8718 14.7401 10.9121 14.1072 11.548C12.913 12.7492 11.7188 13.9515 10.5307 15.1588C10.3795 15.312 10.2354 15.4853 10.1386 15.6758C9.9401 16.0648 10.0399 16.4306 10.3281 16.738C10.6203 17.0484 10.9902 17.1612 11.3792 16.9718C11.614 16.8579 11.8216 16.6684 12.0101 16.482C12.9503 15.5478 13.8885 14.6116 14.8076 13.6572C15.0666 13.3882 15.248 13.3569 15.5544 13.5988C16.4614 14.3163 17.3895 15.0086 18.3227 15.6909C18.9667 16.1615 19.5129 16.0728 20.0279 15.45C20.2949 15.1265 20.5539 14.797 20.8159 14.4695C21.7995 13.237 22.7821 12.0045 23.7657 10.773C24.0771 10.382 24.1406 9.95972 23.9259 9.50522C23.7244 9.07893 23.3575 8.98319 22.9242 8.98723C22.0011 8.99629 21.078 8.98723 20.1548 8.99126C19.4816 8.99428 19.0322 9.37522 19.0271 9.93654C19.0211 10.5614 19.4343 10.9735 20.1135 11.0088C20.3564 11.0209 20.6003 11.0108 20.8431 11.0108L20.8411 11.0078Z" fill="white"/>
<path d="M17.0063 2.06484C11.7054 2.03864 7.4829 5.7956 6.36528 10.4253C5.45225 14.2064 6.27257 17.5643 8.8454 20.4889C8.87866 20.5272 8.91393 20.5634 8.94719 20.6007C9.68286 21.4442 9.67379 21.8282 8.89377 22.6092C7.31561 24.1894 5.73744 25.7686 4.15928 27.3467C3.33996 28.166 2.53375 28.9985 1.6973 29.7986C1.04628 30.4224 0.10402 30.1806 0.00626646 29.3371C-0.0320287 29.0035 0.190688 28.554 0.435576 28.288C1.40203 27.2389 2.4239 26.2412 3.42562 25.2254C4.53316 24.1017 5.63465 22.971 6.75529 21.8604C7.02033 21.5974 7.05863 21.4009 6.81979 21.0976C5.76667 19.7663 5.00883 18.2738 4.5513 16.6452C4.15122 15.2223 3.96579 13.7701 4.03331 12.2755C4.12905 10.1623 4.74782 8.22835 5.78783 6.41034C6.6656 4.8745 7.81949 3.58153 9.25556 2.54655C11.2842 1.08428 13.5265 0.206516 16.0439 0.0331803C19.436 -0.200622 22.4221 0.806139 25.0674 2.89625C27.7421 5.01055 29.3515 7.76982 29.8443 11.1297C30.4258 15.1033 29.3867 18.6477 26.7252 21.67C24.3862 24.3254 21.4143 25.7252 17.8931 26.0407C15.8736 26.2221 13.9528 25.8774 12.0763 25.179C11.4061 24.9301 11.0947 24.3718 11.2862 23.8155C11.4716 23.2794 12.1509 23.0385 12.8241 23.2854C14.3317 23.8377 15.8655 24.2196 17.4931 24.1239C21.7378 23.8729 24.8901 21.8614 26.8532 18.1236C29.0028 14.0301 28.4213 9.28248 25.3758 5.82482C23.3885 3.56843 20.854 2.28756 17.8115 2.10918C17.5434 2.09306 17.2754 2.07895 17.0063 2.06484Z" fill="black"/>
<path d="M20.8413 11.0079C20.5984 11.0079 20.3545 11.0179 20.1117 11.0058C19.4324 10.9706 19.0192 10.5584 19.0253 9.93357C19.0303 9.37224 19.4798 8.99131 20.153 8.98828C21.0761 8.98425 21.9992 8.99433 22.9223 8.98425C23.3557 8.98022 23.7235 9.07495 23.9241 9.50225C24.1387 9.95776 24.0762 10.38 23.7638 10.77C22.7802 12.0025 21.7977 13.235 20.8141 14.4665C20.5521 14.794 20.2931 15.1246 20.026 15.4471C19.511 16.0699 18.9638 16.1586 18.3209 15.6879C17.3867 15.0047 16.4595 14.3123 15.5525 13.5958C15.2462 13.3539 15.0658 13.3852 14.8058 13.6543C13.8867 14.6086 12.9484 15.5448 12.0082 16.479C11.8197 16.6665 11.6121 16.8549 11.3773 16.9688C10.9883 17.1583 10.6175 17.0454 10.3262 16.735C10.038 16.4276 9.93824 16.0628 10.1368 15.6728C10.2335 15.4833 10.3786 15.31 10.5288 15.1558C11.717 13.9485 12.9112 12.7463 14.1054 11.545C14.7372 10.9091 15.2038 10.8688 15.9173 11.3968C16.78 12.0358 17.6416 12.6747 18.4902 13.3318C18.7713 13.5494 18.9477 13.5646 19.1835 13.2552C19.7307 12.5376 20.3172 11.8503 20.8876 11.151C20.8715 11.1026 20.8554 11.0542 20.8393 11.0048L20.8413 11.0079Z" fill="black"/>
</svg>
