<svg width="23" height="27" viewBox="0 0 23 27" fill="none" xmlns="http://www.w3.org/2000/svg">
<path d="M22.5 19.1881C21.6157 21.6582 18.9686 26.0318 16.2416 26.0795C14.4326 26.113 13.851 25.047 11.7832 25.047C9.71663 25.047 9.06975 26.047 7.35975 26.112C4.46625 26.2192 0 19.7992 0 14.2003C0 9.05757 3.7215 6.50841 6.97275 6.46182C8.7165 6.43149 10.3635 7.59394 11.4266 7.59394C12.4942 7.59394 14.4945 6.19639 16.5971 6.40115C17.4769 6.4369 19.9485 6.74241 21.5347 8.97632C17.3261 11.6219 17.982 17.1547 22.5 19.1881ZM16.6252 0.113281C13.446 0.236785 10.8518 3.44897 11.214 6.10539C14.1525 6.32532 16.9718 3.15321 16.6252 0.113281Z" fill="white"/>
</svg>
