<svg width="9" height="6" viewBox="0 0 9 6" fill="none" xmlns="http://www.w3.org/2000/svg">
<path d="M4.49951 5.07029L8.35743 0.139322C8.43144 0.0451799 8.52011 -0.00125228 8.62346 2.56731e-05C8.7268 0.00130362 8.81548 0.0490137 8.88949 0.143156C8.96316 0.237724 9 0.351249 9 0.48373C9 0.615784 8.96316 0.728883 8.88949 0.823025L5.06807 5.70288C4.98706 5.80596 4.89705 5.88136 4.79804 5.92907C4.69836 5.97636 4.59885 6 4.49951 6C4.40017 6 4.30082 5.97636 4.20148 5.92907C4.10213 5.88136 4.01212 5.80596 3.93145 5.70288L0.109031 0.81983C0.0353556 0.725262 -0.000980377 0.612377 2.00272e-05 0.481174C0.00102043 0.350397 0.0383568 0.237938 0.112032 0.143795C0.185706 0.049653 0.274383 0.00258169 0.37806 0.00258169C0.481405 0.00258169 0.569915 0.0494397 0.64359 0.143156L4.49951 5.07029Z" fill="black"/>
</svg>
