<svg width="10" height="14" viewBox="0 0 10 14" fill="none" xmlns="http://www.w3.org/2000/svg">
<path d="M6.41028 0.5C4.63065 0.5 3.17166 1.89839 3.07398 3.65402C1.35653 3.79134 0.000976562 5.23276 0.000976562 6.98489C0.000976562 7.12792 0.116936 7.24385 0.259936 7.24385H6.42541C6.56841 7.24385 6.68437 7.12792 6.68437 6.98489C6.68437 5.22647 5.31914 3.78098 3.59299 3.65255C3.69064 2.1834 4.91686 1.01792 6.41028 1.01792C7.96731 1.01792 9.23405 2.28466 9.23405 3.84169V13.1202C9.23405 13.2632 9.35001 13.3791 9.49301 13.3791C9.63601 13.3791 9.75197 13.2632 9.75197 13.1202V3.84171C9.75199 1.99909 8.2529 0.5 6.41028 0.5ZM6.15465 6.72593H0.530701C0.66192 5.28987 1.873 4.16113 3.34269 4.16113C4.81237 4.16113 6.02343 5.28987 6.15465 6.72593Z" fill="black"/>
<path d="M0.894457 7.72327C0.751457 7.72327 0.635498 7.8392 0.635498 7.98223V10.0072C0.635498 10.1502 0.751457 10.2661 0.894457 10.2661C1.03746 10.2661 1.15342 10.1502 1.15342 10.0072V7.98223C1.15344 7.83923 1.03751 7.72327 0.894457 7.72327Z" fill="black"/>
<path d="M0.894457 10.9269C0.751457 10.9269 0.635498 11.0428 0.635498 11.1858V13.2108C0.635498 13.3538 0.751457 13.4698 0.894457 13.4698C1.03746 13.4698 1.15342 13.3538 1.15342 13.2108V11.1858C1.15344 11.0428 1.03751 10.9269 0.894457 10.9269Z" fill="black"/>
<path d="M2.64763 8.17664C2.50463 8.17664 2.38867 8.29257 2.38867 8.43559V10.7023C2.38867 10.8453 2.50463 10.9613 2.64763 10.9613C2.79063 10.9613 2.90659 10.8453 2.90659 10.7023V8.43559C2.90659 8.29257 2.79063 8.17664 2.64763 8.17664Z" fill="black"/>
<path d="M2.64763 11.6825C2.50463 11.6825 2.38867 11.7984 2.38867 11.9415V12.6366C2.38867 12.7796 2.50463 12.8956 2.64763 12.8956C2.79063 12.8956 2.90659 12.7796 2.90659 12.6366V11.9415C2.90659 11.7984 2.79063 11.6825 2.64763 11.6825Z" fill="black"/>
<path d="M4.09831 8.17664C3.95531 8.17664 3.83936 8.29257 3.83936 8.43559V8.67736C3.83936 8.82039 3.95531 8.93632 4.09831 8.93632C4.24131 8.93632 4.35727 8.82039 4.35727 8.67736V8.43559C4.35727 8.29257 4.24134 8.17664 4.09831 8.17664Z" fill="black"/>
<path d="M4.09831 9.43091C3.95531 9.43091 3.83936 9.54684 3.83936 9.68987V10.9744C3.83936 11.1174 3.95531 11.2333 4.09831 11.2333C4.24131 11.2333 4.35727 11.1174 4.35727 10.9744V9.68987C4.35727 9.54684 4.24134 9.43091 4.09831 9.43091Z" fill="black"/>
<path d="M5.549 7.93481C5.406 7.93481 5.29004 8.05075 5.29004 8.19377V8.97956C5.29004 9.12259 5.406 9.23852 5.549 9.23852C5.692 9.23852 5.80796 9.12259 5.80796 8.97956V8.19377C5.80796 8.05075 5.692 7.93481 5.549 7.93481Z" fill="black"/>
<path d="M5.549 9.95984C5.406 9.95984 5.29004 10.0758 5.29004 10.2188V13.2411C5.29004 13.3841 5.406 13.5001 5.549 13.5001C5.692 13.5001 5.80796 13.3841 5.80796 13.2411V10.2188C5.80796 10.0758 5.692 9.95984 5.549 9.95984Z" fill="black"/>
</svg>
