<svg width="13" height="14" viewBox="0 0 13 14" fill="none" xmlns="http://www.w3.org/2000/svg">
<path d="M1.3 0.5C0.872422 0.5 0.52 0.940527 0.52 1.475V6.41094C0.521016 6.43125 0.524062 6.45156 0.528125 6.47187C0.528125 6.47568 0.528125 6.47822 0.528125 6.48203C0.411328 6.71182 0.315859 6.95684 0.24375 7.22344C0.0822656 7.81885 0.0132031 8.50185 0 9.275V9.6C0 9.61016 0 9.62031 0 9.63047V13.5H1.82V12.2C1.82 11.9296 1.87281 11.7887 1.94187 11.7023C2.01094 11.616 2.12367 11.55 2.34 11.55H10.66C10.8763 11.55 10.9891 11.616 11.0581 11.7023C11.1272 11.7887 11.18 11.9296 11.18 12.2V13.5H13V9.65078C13.001 9.63428 13.001 9.6165 13 9.6C13 9.48828 13.002 9.38291 13 9.275C12.9868 8.50185 12.9177 7.81885 12.7562 7.22344C12.6841 6.95937 12.5877 6.71943 12.4719 6.49219C12.477 6.46553 12.48 6.43887 12.48 6.41094V1.475C12.48 0.940527 12.1276 0.5 11.7 0.5H1.3ZM1.3 1.15H11.7C11.8462 1.15 11.96 1.29219 11.96 1.475V5.75078C11.896 5.6835 11.828 5.61875 11.7569 5.55781C11.5832 5.40801 11.3943 5.26836 11.18 5.15156V3.75C11.18 3.52148 11.0602 3.34375 10.9281 3.23203C10.7961 3.12031 10.6346 3.04287 10.4325 2.97812C10.0283 2.84863 9.46055 2.775 8.71 2.775C7.95945 2.775 7.39172 2.84863 6.9875 2.97812C6.79047 3.0416 6.63 3.11396 6.5 3.22187C6.37 3.11396 6.20953 3.0416 6.0125 2.97812C5.60828 2.84863 5.04055 2.775 4.29 2.775C3.53945 2.775 2.97172 2.84863 2.5675 2.97812C2.36539 3.04287 2.20391 3.12031 2.07187 3.23203C1.93984 3.34375 1.82 3.52148 1.82 3.75V5.15156C1.6057 5.26836 1.4168 5.40801 1.24312 5.55781C1.17203 5.61875 1.10398 5.6835 1.04 5.75078V1.475C1.04 1.29219 1.15375 1.15 1.3 1.15ZM4.29 3.425C5.01312 3.425 5.54937 3.50117 5.8825 3.60781C6.04906 3.66113 6.16383 3.72588 6.21562 3.77031C6.23695 3.78809 6.23797 3.79062 6.24 3.79062V4.4C4.5307 4.41396 3.26523 4.57393 2.34 4.92812V3.79062C2.34203 3.79062 2.34305 3.78809 2.36437 3.77031C2.41617 3.72588 2.53094 3.66113 2.6975 3.60781C3.03062 3.50117 3.56687 3.425 4.29 3.425ZM8.71 3.425C9.43312 3.425 9.96937 3.50117 10.3025 3.60781C10.4691 3.66113 10.5838 3.72588 10.6356 3.77031C10.657 3.78809 10.658 3.79062 10.66 3.79062V4.92812C9.73477 4.57393 8.4693 4.41396 6.76 4.4V3.79062C6.76203 3.79062 6.76305 3.78809 6.78437 3.77031C6.83617 3.72588 6.95094 3.66113 7.1175 3.60781C7.45062 3.50117 7.98687 3.425 8.71 3.425ZM6.45125 5.05C6.47867 5.05508 6.50508 5.05508 6.5325 5.05C6.54062 5.05 6.54875 5.05 6.55687 5.05C9.15891 5.05508 10.662 5.39531 11.4644 6.08594C11.8686 6.43379 12.1134 6.86543 12.2687 7.43672C12.4038 7.93437 12.4587 8.54756 12.4719 9.275H0.528125C0.541328 8.54756 0.596172 7.93437 0.73125 7.43672C0.886641 6.86543 1.13141 6.43379 1.53562 6.08594C2.33797 5.39404 3.84414 5.05381 6.45125 5.05ZM0.52 9.925H12.48V12.85H11.7V12.2C11.7 11.8204 11.6228 11.4738 11.4319 11.2352C11.2409 10.9965 10.9637 10.9 10.66 10.9H2.34C2.03633 10.9 1.75906 10.9965 1.56812 11.2352C1.37719 11.4738 1.3 11.8204 1.3 12.2V12.85H0.52V9.925Z" fill="#181A20"/>
</svg>
