<svg width="27" height="31" viewBox="0 0 27 31" fill="none" xmlns="http://www.w3.org/2000/svg">
<path d="M7.05224 23.0349H6.80224V23.2849V25.4528H5.6903V14.6693H6.80224V21.673V21.923H7.05224H12.694H12.944V21.673V16.2812H18.3358C19.1556 16.2812 19.8511 16.5701 20.4359 17.155C21.0207 17.7398 21.3097 18.4353 21.3097 19.2551V25.4528H20.1978V23.2849V23.0349H19.9478H7.05224ZM1.16045 29.1282V29.3782H1.41045H25.5896H25.8396V29.1282V10.9939V10.8689L25.7396 10.7939L13.65 1.72671L13.5 1.61421L13.35 1.72671L1.26045 10.7939L1.16045 10.8689V10.9939V29.1282ZM11.1309 20.1049C10.7933 20.4467 10.3818 20.617 9.88024 20.617C9.37763 20.617 8.96288 20.4483 8.6203 20.1099C8.2785 19.7722 8.10821 19.3608 8.10821 18.8592C8.10821 18.3566 8.27692 17.9418 8.61535 17.5993C8.95301 17.2575 9.36444 17.0872 9.86603 17.0872C10.3686 17.0872 10.7834 17.2559 11.126 17.5943C11.4678 17.932 11.6381 18.3434 11.6381 18.845C11.6381 19.3476 11.4693 19.7623 11.1309 20.1049ZM0.25 30.2887V10.4133L13.5 0.426342L26.75 10.4133V30.2887H0.25Z" fill="#EB6753" stroke="#EB6753" stroke-width="0.5"/>
</svg>
