<svg width="30" height="27" viewBox="0 0 30 27" fill="none" xmlns="http://www.w3.org/2000/svg">
<path d="M13.75 21.8302C13.75 22.5206 14.3096 23.0802 15 23.0802C15.6904 23.0802 16.25 22.5206 16.25 21.8302H13.75ZM15 15.5802H16.25C16.25 15.2487 16.1182 14.9307 15.8839 14.6963L15 15.5802ZM10.625 11.2052L9.80188 10.2645C9.5415 10.4923 9.3872 10.8178 9.37569 11.1636C9.36417 11.5094 9.49649 11.8444 9.74111 12.0891L10.625 11.2052ZM15.625 6.8302L16.5741 6.01671C16.3569 5.76332 16.0474 5.60731 15.7145 5.58341C15.3816 5.55951 15.053 5.66971 14.8019 5.88947L15.625 6.8302ZM23.125 13.0802C23.8154 13.0802 24.375 12.5206 24.375 11.8302C24.375 11.1399 23.8154 10.5802 23.125 10.5802V13.0802ZM10 20.5802C10 22.6513 8.32106 24.3302 6.25 24.3302V26.8302C9.70177 26.8302 12.5 24.0319 12.5 20.5802H10ZM6.25 24.3302C4.17894 24.3302 2.5 22.6513 2.5 20.5802H0C0 24.0319 2.79822 26.8302 6.25 26.8302V24.3302ZM2.5 20.5802C2.5 18.5091 4.17894 16.8302 6.25 16.8302V14.3302C2.79822 14.3302 0 17.1285 0 20.5802H2.5ZM6.25 16.8302C8.32106 16.8302 10 18.5091 10 20.5802H12.5C12.5 17.1285 9.70177 14.3302 6.25 14.3302V16.8302ZM16.25 21.8302V15.5802H13.75V21.8302H16.25ZM15.8839 14.6963L11.5089 10.3213L9.74111 12.0891L14.1161 16.4641L15.8839 14.6963ZM11.4481 12.146L16.4481 7.77093L14.8019 5.88947L9.80188 10.2645L11.4481 12.146ZM14.6759 7.64369C15.318 8.39281 16.504 9.71383 17.9411 10.8558C19.3336 11.9622 21.1815 13.0802 23.125 13.0802V10.5802C22.0685 10.5802 20.7914 9.92741 19.4964 8.8984C18.246 7.9049 17.182 6.72591 16.5741 6.01671L14.6759 7.64369ZM27.5 20.5802C27.5 22.6513 25.8211 24.3302 23.75 24.3302V26.8302C27.2017 26.8302 30 24.0319 30 20.5802H27.5ZM23.75 24.3302C21.6789 24.3302 20 22.6513 20 20.5802H17.5C17.5 24.0319 20.2983 26.8302 23.75 26.8302V24.3302ZM20 20.5802C20 18.5091 21.6789 16.8302 23.75 16.8302V14.3302C20.2983 14.3302 17.5 17.1285 17.5 20.5802H20ZM23.75 16.8302C25.8211 16.8302 27.5 18.5091 27.5 20.5802H30C30 17.1285 27.2017 14.3302 23.75 14.3302V16.8302ZM20 3.0802V5.5802C21.3808 5.5802 22.5 4.46091 22.5 3.0802H20ZM20 3.0802H17.5C17.5 4.46091 18.6192 5.5802 20 5.5802V3.0802ZM20 3.0802V0.5802C18.6192 0.5802 17.5 1.69949 17.5 3.0802H20ZM20 3.0802H22.5C22.5 1.69949 21.3808 0.5802 20 0.5802V3.0802Z" fill="#EB6753"/>
</svg>
