<svg width="18" height="19" viewBox="0 0 18 19" fill="none" xmlns="http://www.w3.org/2000/svg">
<path d="M9 14.9879L4.77526 18.2135C4.56593 18.3848 4.33756 18.4658 4.09017 18.4567C3.84277 18.4476 3.62392 18.376 3.43362 18.2421C3.24332 18.1088 3.09602 17.9281 2.99173 17.6997C2.88745 17.4713 2.8825 17.2239 2.97689 16.9575L4.60399 11.6766L0.464884 8.73639C0.23652 8.58414 0.0937924 8.38433 0.0367014 8.13693C-0.0203897 7.88954 -0.0108744 7.66117 0.065247 7.45184C0.141368 7.2425 0.274581 7.05677 0.464884 6.89463C0.655188 6.73249 0.883552 6.6518 1.14998 6.65256H6.25963L7.91527 1.17182C8.01042 0.905396 8.1581 0.700629 8.3583 0.557521C8.55849 0.414413 8.7724 0.343239 9 0.344C9.22836 0.344 9.44265 0.415555 9.64285 0.558663C9.84304 0.701771 9.99034 0.906157 10.0847 1.17182L11.7404 6.65256H16.85C17.1164 6.65256 17.3448 6.73363 17.5351 6.89577C17.7254 7.05791 17.8586 7.24327 17.9348 7.45184C18.0109 7.66117 18.0204 7.88954 17.9633 8.13693C17.9062 8.38433 17.7635 8.58414 17.5351 8.73639L13.396 11.6766L15.0231 16.9575C15.1183 17.2239 15.1137 17.4713 15.0094 17.6997C14.9051 17.9281 14.7574 18.1088 14.5664 18.2421C14.3761 18.3753 14.1572 18.4468 13.9098 18.4567C13.6624 18.4666 13.4341 18.3855 13.2247 18.2135L9 14.9879Z" fill="black"/>
</svg>
