<svg width="17" height="13" viewBox="0 0 17 13" fill="none" xmlns="http://www.w3.org/2000/svg">
<path d="M8.498 4.08704C6.59193 4.08704 5.04126 5.63772 5.04126 7.5438C5.04126 9.44983 6.59194 11.0006 8.498 11.0006C10.4041 11.0006 11.9547 9.44983 11.9547 7.5438C11.9547 5.63771 10.4041 4.08704 8.498 4.08704ZM8.498 10.474C6.88231 10.474 5.56785 9.15949 5.56785 7.5438C5.56785 5.92809 6.88231 4.61363 8.498 4.61363C10.1137 4.61363 11.4282 5.92809 11.4282 7.5438C11.4281 9.15949 10.1137 10.474 8.498 10.474Z" fill="black" stroke="black" stroke-width="0.256"/>
<path d="M15.2774 2.69129H11.669V1.71451C11.669 1.32052 11.3485 1 10.9545 1H6.04154C5.64755 1 5.32702 1.32052 5.32702 1.71451V2.69129H1.71867C1.3224 2.69129 1 3.06015 1 3.51353V11.5477C1 12.001 1.3224 12.3699 1.71867 12.3699H15.2774C15.6737 12.3699 15.9961 12.001 15.9961 11.5477V3.51353C15.9961 3.06015 15.6737 2.69129 15.2774 2.69129ZM15.4695 11.5477C15.4695 11.7219 15.3682 11.8433 15.2774 11.8433H1.71867C1.62783 11.8433 1.52659 11.7219 1.52659 11.5477V3.51353C1.52659 3.33932 1.62783 3.21788 1.71867 3.21788H5.59033C5.73576 3.21788 5.85363 3.1 5.85363 2.95458V1.71451C5.85363 1.61088 5.93793 1.52659 6.04155 1.52659H10.9545C11.0581 1.52659 11.1424 1.61089 11.1424 1.71451V2.95458C11.1424 3.10001 11.2603 3.21788 11.4057 3.21788H15.2774C15.3682 3.21788 15.4695 3.33931 15.4695 3.51353L15.4695 11.5477Z" fill="black" stroke="black" stroke-width="0.256"/>
<path d="M12.5335 4.20239C12.2843 4.20239 12.0823 4.40438 12.0823 4.65358C12.0823 4.90273 12.2843 5.10479 12.5335 5.10479C12.7826 5.10479 12.9847 4.90273 12.9847 4.65358C12.9847 4.40438 12.7826 4.20239 12.5335 4.20239Z" fill="black" stroke="black" stroke-width="0.256"/>
</svg>
