<svg width="20" height="23" viewBox="0 0 20 23" fill="none" xmlns="http://www.w3.org/2000/svg">
<path d="M9.99459 0.916748C10.2156 0.916748 10.4276 1.00455 10.5838 1.16083C10.7401 1.31711 10.8279 1.52907 10.8279 1.75008V2.58341H12.4929C13.156 2.58341 13.7918 2.84681 14.2607 3.31565C14.7295 3.78449 14.9929 4.42037 14.9929 5.08342V9.25008H17.4929C18.156 9.25008 18.7918 9.51347 19.2607 9.98232C19.7295 10.4512 19.9929 11.087 19.9929 11.7501V20.0834C19.9929 20.7465 19.7295 21.3823 19.2607 21.8512C18.7918 22.32 18.156 22.5834 17.4929 22.5834H2.49292C1.82988 22.5834 1.19399 22.32 0.725153 21.8512C0.256312 21.3823 -0.00708008 20.7465 -0.00708008 20.0834V12.2384C-0.0069056 11.8216 0.0974802 11.4115 0.296581 11.0453C0.495682 10.6791 0.78318 10.3685 1.13292 10.1417L4.46625 7.98008C4.63792 7.87008 4.81292 7.78175 4.99292 7.71842V5.08342C4.99292 4.42037 5.25631 3.78449 5.72515 3.31565C6.19399 2.84681 6.82988 2.58341 7.49292 2.58341H9.16125V1.75008C9.16125 1.52907 9.24905 1.31711 9.40533 1.16083C9.56161 1.00455 9.77357 0.916748 9.99459 0.916748ZM6.65959 7.72008C7.59625 8.05342 8.32625 8.93675 8.32625 10.0784V20.9167H11.6596V11.7501C11.6593 11.2329 11.8195 10.7283 12.118 10.3059C12.4165 9.88355 12.8386 9.56415 13.3263 9.39175V5.08342C13.3263 4.8624 13.2385 4.65044 13.0822 4.49416C12.9259 4.33788 12.7139 4.25008 12.4929 4.25008H7.49292C7.27191 4.25008 7.05994 4.33788 6.90366 4.49416C6.74738 4.65044 6.65959 4.8624 6.65959 5.08342V7.72008ZM14.1596 10.9167C13.9386 10.9167 13.7266 11.0045 13.5703 11.1608C13.414 11.3171 13.3263 11.5291 13.3263 11.7501V20.9167H17.4929C17.7139 20.9167 17.9259 20.829 18.0822 20.6727C18.2385 20.5164 18.3263 20.3044 18.3263 20.0834V11.7501C18.3263 11.5291 18.2385 11.3171 18.0822 11.1608C17.9259 11.0045 17.7139 10.9167 17.4929 10.9167H14.1596ZM5.37292 9.37842L2.03959 11.5401C1.92285 11.6158 1.82692 11.7195 1.76054 11.8417C1.69417 11.964 1.65946 12.101 1.65959 12.2401V20.0834C1.65959 20.3044 1.74738 20.5164 1.90366 20.6727C2.05994 20.829 2.27191 20.9167 2.49292 20.9167H6.65959V10.0784C6.65972 9.92842 6.61938 9.78117 6.5428 9.6522C6.46622 9.52323 6.35626 9.41732 6.2245 9.34564C6.09274 9.27396 5.94408 9.23917 5.7942 9.24494C5.64432 9.25071 5.49878 9.29682 5.37292 9.37842Z" fill="#181A20"/>
</svg>
