<svg width="20" height="19" viewBox="0 0 20 19" fill="none" xmlns="http://www.w3.org/2000/svg">
<path d="M7 14.4849H13M1 12.0759V9.59682C1 8.4438 1 7.86724 1.14805 7.33632C1.2792 6.86601 1.49473 6.42369 1.78405 6.03103C2.11067 5.58777 2.56404 5.23383 3.47078 4.52593L6.07078 2.4961C7.47608 1.39897 8.1787 0.850414 8.9546 0.639543C9.6392 0.453486 10.3608 0.453486 11.0454 0.639543C11.8213 0.850414 12.5239 1.39898 13.9292 2.4961L16.5292 4.52593C17.436 5.23383 17.8893 5.58777 18.2159 6.03103C18.5053 6.42369 18.7208 6.86601 18.8519 7.33632C19 7.86724 19 8.4438 19 9.59682V12.0759C19 14.3245 19 15.449 18.564 16.3078C18.1805 17.0632 17.5686 17.6775 16.816 18.0625C15.9603 18.5 14.8402 18.5 12.6 18.5H7.4C5.15979 18.5 4.03969 18.5 3.18404 18.0625C2.43139 17.6775 1.81947 17.0632 1.43597 16.3078C1 15.449 1 14.3245 1 12.0759Z" stroke="white" stroke-linecap="round" stroke-linejoin="round"/>
</svg>
