<svg width="14" height="14" viewBox="0 0 14 14" fill="none" xmlns="http://www.w3.org/2000/svg">
<path d="M0.0014228 13.7447C0.136589 13.0696 0.337915 12.361 0.409055 11.6397C0.526436 10.4502 1.10338 9.58658 1.95848 8.77487C3.89989 6.93305 5.7602 5.00587 7.64968 3.10999C7.74074 3.01893 7.79765 2.89444 7.84887 2.81689C9.06892 4.03766 10.2193 5.1887 11.4407 6.41089C11.3568 6.46851 11.2238 6.53325 11.1242 6.63213C8.97715 8.77345 6.82375 10.9084 4.69808 13.0703C4.29401 13.4808 3.84085 13.6416 3.30659 13.6501C2.48919 13.6636 1.67179 13.648 0.854391 13.6601C0.579791 13.6636 0.305191 13.7127 0 13.7447H0.0014228Z" fill="black"/>
<path d="M8.60618 2.2158C9.14329 1.66446 9.64198 1.10673 10.1905 0.603056C10.7084 0.12713 11.4169 0.144203 11.9341 0.627244C12.5231 1.17716 13.0944 1.74699 13.6422 2.33745C14.1224 2.85464 14.1103 3.51695 13.6628 4.04694C13.571 4.15508 13.4686 4.25467 13.3683 4.35569C12.935 4.79249 12.5004 5.22858 12.0999 5.63123C10.9253 4.48303 9.76861 3.35262 8.60547 2.2158H8.60618Z" fill="black"/>
</svg>
