<svg width="22" height="18" viewBox="0 0 22 18" fill="none" xmlns="http://www.w3.org/2000/svg">
<path d="M19.9492 0H2.05085C0.91878 0.00149153 0.00149153 0.91878 0 2.05085V15.4746C0.00149153 16.6066 0.91878 17.5239 2.05085 17.5254H19.9492C21.0812 17.5239 21.9985 16.6066 22 15.4746V2.05085C21.9985 0.91878 21.0812 0.00149153 19.9492 0ZM2.05085 1.11864H19.9492C20.369 1.12237 20.7218 1.40651 20.8292 1.79281L20.8306 1.79953L11 8.82163L1.11864 1.88677C1.22753 1.49375 1.63173 1.12237 2.05085 1.11864ZM19.9492 16.4068H2.05085C1.53627 16.406 1.11939 15.9892 1.11864 15.4746V3.13742L10.6748 9.96339C10.6853 9.97085 10.6987 9.96786 10.7092 9.97458C10.7897 10.029 10.8881 10.0626 10.994 10.0663L10.9985 10.0678H11L11.0037 10.0663C11.1104 10.0626 11.2088 10.0283 11.2916 9.97308L11.2894 9.97458C11.2998 9.96786 11.3132 9.97085 11.3237 9.96339L20.8799 3.13742V15.4746C20.8791 15.9892 20.4622 16.406 19.9477 16.4068H19.9492Z" fill="black"/>
</svg>
