<svg width="20" height="18" viewBox="0 0 20 18" fill="none" xmlns="http://www.w3.org/2000/svg">
<g clip-path="url(#clip0_2499_957)">
<path d="M16.7256 6.42423L10.4116 1.6086C10.2928 1.51806 10.1484 1.46912 10 1.46912C9.85158 1.46912 9.70717 1.51806 9.58844 1.6086L3.27438 6.42423C3.18918 6.4892 3.12004 6.57343 3.07242 6.67027C3.02479 6.76711 3 6.87389 3 6.98216V16.2717C3 16.4567 3.07227 16.6341 3.20091 16.7648C3.32954 16.8956 3.50402 16.9691 3.68594 16.9691H7.59922C7.78114 16.9691 7.95561 16.8956 8.08425 16.7648C8.21289 16.6341 8.28515 16.4567 8.28515 16.2717V13.3251C8.28515 13.1402 8.35742 12.9628 8.48606 12.832C8.6147 12.7012 8.78917 12.6277 8.97109 12.6277H11.3719C11.5538 12.6277 11.7283 12.7012 11.8569 12.832C11.9855 12.9628 12.0578 13.1402 12.0578 13.3251V16.2717C12.0578 16.4567 12.1301 16.6341 12.2587 16.7648C12.3874 16.8956 12.5618 16.9691 12.7438 16.9691H16.3141C16.496 16.9691 16.6705 16.8956 16.7991 16.7648C16.9277 16.6341 17 16.4567 17 16.2717V6.98216C17 6.87389 16.9752 6.76711 16.9276 6.67027C16.88 6.57343 16.8108 6.4892 16.7256 6.42423Z" stroke="black"/>
</g>
<defs>
<clipPath id="clip0_2499_957">
<rect width="20" height="17.26" fill="white" transform="translate(0 0.589111)"/>
</clipPath>
</defs>
</svg>
