<svg width="20" height="19" viewBox="0 0 20 19" fill="none" xmlns="http://www.w3.org/2000/svg">
<path d="M19.4998 16.9601H18.9998V6.04431L19.3058 6.18994C19.3688 6.21967 19.4348 6.23396 19.4998 6.23396C19.6944 6.23396 19.8801 6.10451 19.9608 5.88844C20.0678 5.60127 19.9484 5.27043 19.6938 5.14927L10.1939 0.632875C10.0699 0.574523 9.93023 0.574523 9.80625 0.632875L0.306363 5.14927C0.0513666 5.27048 -0.0676164 5.60131 0.0393745 5.88844C0.146717 6.17675 0.441713 6.3092 0.694015 6.1899L1.00003 6.04426V16.96H0.499994C0.223669 16.96 0 17.2126 0 17.5246C0 17.8366 0.223669 18.0891 0.499994 18.0891H19.4998C19.7761 18.0891 19.9998 17.8366 19.9998 17.5246C19.9998 17.2126 19.7761 16.9601 19.4998 16.9601ZM15.9998 16.9601H3.99995V14.7019H15.9998V16.9601ZM15.9998 13.5732H3.99995V11.315H15.9998V13.5732ZM15.9998 10.1859H3.99995V7.92765H15.9998V10.1859ZM17.9998 16.9601H16.9998V7.92726C16.9998 7.304 16.5521 6.79855 15.9998 6.79855H3.99995C3.44761 6.79855 2.99996 7.304 2.99996 7.92765V16.9605H1.99998V5.56894L9.99988 1.76541L17.9998 5.56858V16.9601Z" fill="#181A20"/>
</svg>
