<svg width="27" height="31" viewBox="0 0 27 31" fill="none" xmlns="http://www.w3.org/2000/svg">
<path fill-rule="evenodd" clip-rule="evenodd" d="M0.700773 29.6931L13.6252 16.567L18.1808 21.1932L2.81659 29.8693C2.23241 30.1993 1.51691 30.1943 0.936409 29.8556L0.700773 29.6931ZM12.3218 15.2433L0 27.7569V2.7297L12.3218 15.2433ZM20.0217 10.0721L26.0415 13.4708C26.633 13.8058 27 14.4333 27 15.1133C27 15.7933 26.633 16.4208 26.0415 16.7558L19.8573 20.247L14.9298 15.2433L20.0217 10.0721ZM0.564546 0.654729C0.675 0.545981 0.798955 0.450982 0.936409 0.370983C1.51691 0.0322379 2.23241 0.027238 2.81659 0.357233L18.3453 9.12586L13.6252 13.9195L0.564546 0.654729Z" fill="white"/>
</svg>
