<svg width="20" height="21" viewBox="0 0 20 21" fill="none" xmlns="http://www.w3.org/2000/svg">
<path d="M15.8262 3.25H14.9928C14.0724 3.25 13.3262 3.99619 13.3262 4.91667V16.5833C13.3262 17.5038 14.0724 18.25 14.9928 18.25H15.8262C16.7466 18.25 17.4928 17.5038 17.4928 16.5833V4.91667C17.4928 3.99619 16.7466 3.25 15.8262 3.25Z" fill="#181A20"/>
<path d="M10.4097 8.25H9.57633C8.65586 8.25 7.90967 8.99619 7.90967 9.91667V16.5833C7.90967 17.5038 8.65586 18.25 9.57633 18.25H10.4097C11.3301 18.25 12.0763 17.5038 12.0763 16.5833V9.91667C12.0763 8.99619 11.3301 8.25 10.4097 8.25Z" fill="#181A20"/>
<path d="M4.99292 14.0833H4.15959C3.23911 14.0833 2.49292 14.8294 2.49292 15.7499V16.5833C2.49292 17.5037 3.23911 18.2499 4.15959 18.2499H4.99292C5.91339 18.2499 6.65959 17.5037 6.65959 16.5833V15.7499C6.65959 14.8294 5.91339 14.0833 4.99292 14.0833Z" fill="#181A20"/>
</svg>
