<svg width="13" height="13" viewBox="0 0 13 13" fill="none" xmlns="http://www.w3.org/2000/svg">
<g clip-path="url(#clip0_2506_938)">
<path d="M8.93859 10.2186C7.75264 10.9577 5.97372 11.8431 5.13299 11.8431H2.69611C2.08024 11.1231 1.62226 10.2818 1.35177 9.37377C1.012 8.33468 0.831257 7.2502 0.815654 6.15708H4.47097V2.09562C4.48612 1.94559 4.54173 1.8025 4.63186 1.68161C4.72199 1.56072 4.84326 1.46658 4.98272 1.40923C5.29545 2.22152 6.04682 4.07761 6.70072 4.95083C7.27065 5.68982 8.05075 6.23915 8.93859 6.52668V5.66159C8.30756 5.40869 7.7582 4.98718 7.35055 4.44315C6.587 3.42372 5.60818 0.74315 5.60006 0.718781C5.56429 0.625109 5.49514 0.547978 5.40591 0.502239C5.31668 0.456499 5.21368 0.445384 5.11675 0.471032C4.57251 0.625368 3.65868 1.12087 3.65868 2.09562V5.34479H0.409507C0.30179 5.34479 0.198485 5.38758 0.122318 5.46375C0.046151 5.53992 0.00336064 5.64322 0.00336064 5.75094C-0.0282999 7.07603 0.163936 8.39696 0.571966 9.65807C1.33958 11.8513 2.23717 12.558 2.27778 12.5904C2.34867 12.6455 2.43579 12.6755 2.52553 12.6757H5.13299C6.11993 12.6757 7.79325 11.8634 8.93859 11.2014V10.2186Z" fill="#717171"/>
<path d="M12.9992 12.2491H10.1561C10.0484 12.2491 9.94512 12.2063 9.86896 12.1301C9.79279 12.0539 9.75 11.9506 9.75 11.8429V5.34456C9.75 5.23685 9.79279 5.13354 9.86896 5.05737C9.94512 4.98121 10.0484 4.93842 10.1561 4.93842H12.9992V12.2491ZM10.5623 11.4368H12.1869V5.75071H10.5623V11.4368Z" fill="#717171"/>
</g>
<defs>
<clipPath id="clip0_2506_938">
<rect width="13" height="12.2182" fill="white" transform="translate(0 0.45752)"/>
</clipPath>
</defs>
</svg>
