<svg width="454" height="183" viewBox="0 0 454 183" fill="none" xmlns="http://www.w3.org/2000/svg">
<path d="M56.4112 180.194C56.4174 180.018 56.4442 179.843 56.4911 179.673L30.0137 164.342L29.7539 164.151V99.0275L3.70605 83.9372C3.53354 84.2221 3.29294 84.4594 3.00604 84.6275C2.71915 84.7957 2.39505 84.8894 2.06299 84.9002C1.73093 84.911 1.4014 84.8385 1.10428 84.6893C0.807159 84.5402 0.551788 84.319 0.361267 84.0459C0.170746 83.7727 0.0510559 83.4562 0.013092 83.125C-0.0248413 82.7938 0.0200806 82.4583 0.14386 82.1489C0.267609 81.8395 0.466278 81.5659 0.721924 81.3529C0.977539 81.14 1.28204 80.9943 1.60788 80.9292V48.9838L29.7539 65.2673V33.2719L58.8291 16.4068V50.1369L31.2426 66.1196L58.3795 81.8416L84.6072 66.641C84.5547 66.4756 84.5278 66.3032 84.5272 66.1296C84.5272 65.5978 84.7377 65.0877 85.1125 64.7116C85.4872 64.3355 85.9955 64.1243 86.5255 64.1243C87.0555 64.1243 87.5638 64.3355 87.9385 64.7116C88.3132 65.0877 88.5238 65.5978 88.5238 66.1296C88.5155 66.5622 88.3679 66.9806 88.1032 67.3221C87.8385 67.6637 87.4708 67.9101 87.055 68.0247V97.8343V130.993L114.602 146.986L141.718 131.284L114.352 115.421L114.102 115.281V82.7039L113.602 82.4131L114.102 82.1224V50.1269L86.2358 33.9838L85.986 33.8434V0.113281L114.851 16.8279L115.101 16.9783V48.9738L142.218 33.2618V32.6803L142.718 32.9711L171.323 16.3968V47.941C171.661 48.0324 171.971 48.2083 172.222 48.4524L198.44 33.2618V0.12331L226.586 16.4068L255.412 33.1215L255.661 33.2618V65.2573L282.778 49.5554V48.9738L283.278 49.2646L283.777 48.9738V49.5554L311.384 65.5982L340 48.9738V82.1224L367.106 97.8343V65.889L396.222 48.9738L424.328 32.6803V65.889L450.555 81.0294C450.831 80.7394 451.187 80.5388 451.577 80.4536C451.967 80.3684 452.374 80.4025 452.744 80.5514C453.115 80.7003 453.433 80.9572 453.657 81.2891C453.88 81.6209 454 82.0124 454 82.4131C454 82.8138 453.88 83.2054 453.657 83.5372C453.433 83.869 453.115 84.126 452.744 84.2749C452.374 84.4238 451.967 84.4578 451.577 84.3726C451.187 84.2874 450.831 84.0869 450.555 83.7968L424.328 98.9774V132.146L395.442 115.421L395.192 115.281V83.2855L368.106 98.9774V132.146L340.889 116.374C340.642 116.619 340.335 116.795 340 116.885V147.848L310.884 164.723V132.146L282.778 148.429V114.699L310.385 98.7067L283.278 82.9947L254.662 99.569V66.4204L227.585 50.7084V114.709L255.452 130.853L255.701 130.993V164.723L228.485 148.961C228.112 149.331 227.61 149.54 227.086 149.542C226.638 149.496 226.22 149.299 225.898 148.984C225.576 148.668 225.369 148.253 225.311 147.806C225.253 147.358 225.348 146.904 225.579 146.516C225.811 146.129 226.165 145.832 226.586 145.672V115.281L198.73 99.1378L198.48 98.9974V67.002L171.363 82.7039V113.095C171.775 113.22 172.135 113.475 172.39 113.822C172.646 114.169 172.783 114.589 172.782 115.02C172.78 115.193 172.756 115.365 172.712 115.532L199.189 130.873L199.439 131.023V164.723L170.824 148.109L142.718 164.392L114.602 148.109L86.4856 164.392L58.8791 148.349V178.159C59.2458 178.248 59.5799 178.44 59.8427 178.711C60.1055 178.983 60.2862 179.324 60.364 179.694C60.4419 180.065 60.4136 180.45 60.2825 180.805C60.1514 181.16 59.9227 181.47 59.6231 181.701C59.3234 181.931 58.965 182.071 58.5892 182.105C58.2135 182.139 57.8357 182.066 57.4997 181.894C57.1637 181.722 56.8831 181.457 56.6905 181.132C56.4978 180.806 56.401 180.432 56.4112 180.054V180.194ZM29.7539 66.4304L2.63696 50.7185V80.9292C3.05087 81.0456 3.41638 81.2928 3.67917 81.6342C3.94196 81.9756 4.08804 82.3929 4.09573 82.8242C4.09573 82.8944 4.09573 82.9546 4.09573 83.0147L29.7539 97.8444V66.4304ZM57.8299 49.5654V18.1414L30.753 33.8534V65.2673L57.8299 49.5654ZM57.8299 82.7139L30.753 67.002V98.4159L57.8799 114.128L57.8299 82.7139ZM57.8299 115.281L30.753 99.579V130.993L57.8799 146.695L57.8299 115.281ZM57.8299 147.858L57.3304 147.567L30.753 132.146V163.56L56.9707 178.75C57.2217 178.507 57.5317 178.335 57.8699 178.249L57.8299 147.858ZM114.102 17.5599L86.9851 1.84791V33.2618L114.102 48.9738V17.5599ZM450.056 82.9345C449.966 82.6064 449.966 82.26 450.056 81.9318L423.838 66.7112L396.721 82.4131L409.041 89.5522L423.828 98.1251L450.056 82.9345ZM396.222 114.709L423.329 130.411V98.9774L396.222 83.2654V114.709ZM396.222 81.5609L423.329 65.889V34.4149L396.222 50.1269V81.5609ZM368.106 97.8444L395.222 82.1224V50.7084L368.106 66.4204V97.8444ZM340 113.105C340.422 113.217 340.797 113.465 341.066 113.811C341.335 114.157 341.483 114.582 341.488 115.02C341.488 115.194 341.461 115.366 341.408 115.532L367.106 130.411V98.9774L340 83.2754V113.105ZM311.883 162.988L339 147.276V116.885C338.661 116.797 338.351 116.62 338.101 116.374L325.442 123.713L311.883 131.564V162.988ZM311.883 130.421L325.442 122.56L337.612 115.542C337.55 115.374 337.509 115.198 337.492 115.02C337.5 114.588 337.648 114.169 337.912 113.828C338.177 113.486 338.545 113.24 338.96 113.125V83.2855L311.883 98.9774V130.421ZM311.883 97.8444L325.442 89.9533L339 82.0923V50.7084L311.883 66.4204V97.8444ZM283.777 115.291V146.695L310.884 130.983V99.569L283.777 115.291ZM283.777 82.1324L310.884 97.8343V66.4204L283.777 50.7084V82.1324ZM255.661 97.8343L282.778 82.1324V50.7084L255.661 66.4204V97.8343ZM227.585 145.672C228.001 145.787 228.369 146.033 228.633 146.375C228.898 146.716 229.046 147.135 229.054 147.567C229.048 147.744 229.021 147.919 228.974 148.089L254.662 162.988V131.574L227.585 115.862V145.672ZM227.585 49.5554L254.662 65.2573V33.8033L227.585 18.1414V49.5554ZM199.479 98.4159L226.586 114.128V82.7039L199.439 67.002L199.479 98.4159ZM199.479 65.8389L226.586 81.5508V50.1369L199.479 34.435V65.8389ZM199.479 33.2618L226.586 48.9738V17.5699L199.479 1.85794V33.2618ZM171.323 147.276L198.44 162.988V131.574L172.212 116.374C171.968 116.623 171.661 116.8 171.323 116.885V147.276ZM171.323 81.5508L198.44 65.889V34.4249L172.712 49.3247C172.755 49.4919 172.778 49.6635 172.782 49.8361C172.776 50.2691 172.631 50.6887 172.368 51.0321C172.105 51.3755 171.739 51.6243 171.323 51.7412V81.5508ZM115.101 114.699L142.218 130.411V98.9774L115.101 83.2654V114.699ZM142.218 34.4249L115.101 50.1269V81.5508L142.218 65.889V34.4249ZM115.601 82.4131L127.92 89.5522L142.658 98.1251L169.825 82.4131L157.505 75.2841L142.718 66.7112L115.601 82.4131ZM143.217 65.2573L168.935 50.3575C168.892 50.187 168.868 50.012 168.865 49.8361C168.869 49.6635 168.892 49.4919 168.935 49.3247L143.217 34.4249V65.2573ZM170.324 18.1314L143.717 33.5526L169.435 48.4524C169.682 48.2073 169.988 48.031 170.324 47.941V18.1314ZM170.324 51.7412C169.99 51.6479 169.684 51.4721 169.435 51.2298L143.717 66.1296L170.324 81.5508V51.7412ZM170.324 83.2855L143.217 98.9774V130.411L168.935 115.502C168.891 115.335 168.868 115.163 168.865 114.99C168.873 114.559 169.019 114.142 169.282 113.8C169.545 113.459 169.91 113.212 170.324 113.095V83.2855ZM170.324 116.885C169.987 116.8 169.679 116.623 169.435 116.374L143.717 131.284L170.324 146.695V116.885ZM142.718 163.279L169.825 147.567L143.217 132.146L142.718 131.855L142.218 132.146L115.601 147.567L142.718 163.279ZM86.4856 163.279L113.602 147.567L86.4856 131.855L59.3787 147.567L86.4856 163.279ZM58.8791 146.695L85.986 130.993V99.569L58.8791 115.281V146.695ZM58.8791 114.118L85.986 98.4159V68.0247C85.6485 67.9393 85.3408 67.7624 85.0967 67.5133L58.8791 82.7139V114.118Z" fill="url(#paint0_linear_2412_684)"/>
<defs>
<linearGradient id="paint0_linear_2412_684" x1="593.164" y1="628.612" x2="79.6008" y2="-109.899" gradientUnits="userSpaceOnUse">
<stop stop-color="#EB6753" stop-opacity="0.15"/>
<stop offset="0.12" stop-color="#EB6753" stop-opacity="0.32"/>
<stop offset="0.37" stop-color="#EB6753" stop-opacity="0.42"/>
<stop offset="0.57" stop-color="#EB6753" stop-opacity="0.3"/>
<stop offset="0.78" stop-color="#EB6753" stop-opacity="0.36"/>
<stop offset="0.98" stop-color="white"/>
</linearGradient>
</defs>
</svg>
