<svg width="22" height="20" viewBox="0 0 22 20" fill="none" xmlns="http://www.w3.org/2000/svg">
<path d="M11.9711 0.614982C11.7117 0.355647 11.3599 0.209961 10.9932 0.209961C10.6264 0.209961 10.2746 0.355647 10.0152 0.614982L0.820987 9.80862C0.756684 9.87292 0.705677 9.94927 0.670876 10.0333C0.636076 10.1173 0.618164 10.2074 0.618164 10.2983C0.618164 10.3893 0.636076 10.4793 0.670876 10.5633C0.705677 10.6474 0.756684 10.7237 0.820987 10.788C0.950853 10.9179 1.12699 10.9909 1.31065 10.9909C1.40158 10.9909 1.49163 10.9729 1.57565 10.9381C1.65966 10.9033 1.736 10.8523 1.8003 10.788L2.69386 9.893V17.215C2.69386 17.7653 2.91246 18.2931 3.30157 18.6822C3.69067 19.0714 4.21841 19.29 4.76869 19.29H17.2176C17.7679 19.29 18.2957 19.0714 18.6848 18.6822C19.0739 18.2931 19.2925 17.7653 19.2925 17.215V9.893L20.186 10.788C20.3159 10.9179 20.492 10.9909 20.6757 10.9909C20.8593 10.9909 21.0355 10.9179 21.1653 10.788C21.2952 10.6581 21.3682 10.482 21.3682 10.2983C21.3682 10.1146 21.2952 9.93849 21.1653 9.80862L17.9092 6.55363V1.99832C17.9092 1.81487 17.8364 1.63895 17.7067 1.50923C17.577 1.37952 17.4011 1.30665 17.2176 1.30665H15.8344C15.651 1.30665 15.4751 1.37952 15.3454 1.50923C15.2157 1.63895 15.1428 1.81487 15.1428 1.99832V3.78697L11.9711 0.614982ZM17.9092 8.50967V17.215C17.9092 17.3984 17.8364 17.5744 17.7067 17.7041C17.577 17.8338 17.4011 17.9067 17.2176 17.9067H4.76869C4.58526 17.9067 4.40935 17.8338 4.27965 17.7041C4.14995 17.5744 4.07708 17.3984 4.07708 17.215V8.50967L10.9932 1.593L17.9092 8.50967Z" fill="#181A20"/>
</svg>
