<svg width="13" height="14" viewBox="0 0 13 14" fill="none" xmlns="http://www.w3.org/2000/svg">
<path d="M6.72116 13.7175C5.53832 13.7175 4.35618 13.7246 3.17335 13.7156C2.00987 13.7065 1.11808 13.0906 0.842243 12.1025C0.773803 11.8562 0.753064 11.593 0.751681 11.3369C0.745459 9.35628 0.753064 7.37633 0.746842 5.39637C0.744077 4.50883 1.10702 3.8268 1.91378 3.33408C3.04753 2.63973 4.15985 1.91362 5.28185 1.20307C6.28771 0.565772 7.15323 0.564475 8.15563 1.19918C9.288 1.91557 10.4169 2.63649 11.5507 3.35029C12.3415 3.84819 12.7556 4.50753 12.7418 5.43138C12.7121 7.40032 12.6941 9.37119 12.7459 11.3395C12.784 12.7794 11.5921 13.7558 10.1998 13.7233C9.0412 13.6961 7.88118 13.7175 6.72116 13.7175ZM6.72531 12.8403C7.91851 12.8403 9.11171 12.8481 10.3049 12.8377C11.2057 12.83 11.7587 12.297 11.7594 11.4555C11.7622 9.43343 11.7539 7.41134 11.7643 5.38989C11.767 4.83104 11.5202 4.40704 11.0453 4.10752C9.85626 3.35612 8.65476 2.62223 7.45948 1.88056C6.96588 1.5739 6.47505 1.57585 5.98215 1.88185C4.78687 2.62417 3.58537 3.35807 2.39769 4.11141C1.92484 4.41158 1.67735 4.83558 1.6808 5.39443C1.69187 7.38411 1.68495 9.37379 1.68564 11.3635C1.68564 12.3308 2.21795 12.8371 3.2487 12.841C4.40734 12.8455 5.56667 12.8423 6.72531 12.841V12.8403Z" fill="black"/>
<path d="M8.57665 10.6963V11.5495H4.87744V10.6963H8.57665Z" fill="black"/>
</svg>
