<svg width="14" height="15" viewBox="0 0 14 15" fill="none" xmlns="http://www.w3.org/2000/svg">
<path d="M7 1.56253C8.869 1.56253 9.09067 1.56953 9.82917 1.60336C11.7262 1.6897 12.6122 2.58978 12.6986 4.47278C12.7324 5.2107 12.7388 5.43236 12.7388 7.30136C12.7388 9.17095 12.7318 9.39203 12.6986 10.1299C12.6117 12.0112 11.7279 12.913 9.82917 12.9994C9.09067 13.0332 8.87017 13.0402 7 13.0402C5.131 13.0402 4.90933 13.0332 4.17142 12.9994C2.26975 12.9124 1.38833 12.0083 1.302 10.1294C1.26817 9.39145 1.26117 9.17036 1.26117 7.30078C1.26117 5.43178 1.26875 5.2107 1.302 4.4722C1.38892 2.58978 2.27267 1.68911 4.17142 1.60278C4.90992 1.56953 5.131 1.56253 7 1.56253ZM7 0.300781C5.09892 0.300781 4.86092 0.308948 4.11425 0.342781C1.57208 0.459448 0.15925 1.86995 0.0425833 4.41445C0.00816667 5.1617 0 5.3997 0 7.30078C0 9.20186 0.00816667 9.44045 0.042 10.1871C0.158667 12.7293 1.56917 14.1421 4.11367 14.2588C4.86092 14.2926 5.09892 14.3008 7 14.3008C8.90108 14.3008 9.13967 14.2926 9.88633 14.2588C12.4262 14.1421 13.8425 12.7316 13.9574 10.1871C13.9918 9.44045 14 9.20186 14 7.30078C14 5.3997 13.9918 5.1617 13.958 4.41503C13.8437 1.8752 12.4314 0.460031 9.88692 0.343365C9.13967 0.308948 8.90108 0.300781 7 0.300781ZM7 3.70628C5.01492 3.70628 3.4055 5.3157 3.4055 7.30078C3.4055 9.28586 5.01492 10.8959 7 10.8959C8.98508 10.8959 10.5945 9.28645 10.5945 7.30078C10.5945 5.3157 8.98508 3.70628 7 3.70628ZM7 9.63411C5.71142 9.63411 4.66667 8.58995 4.66667 7.30078C4.66667 6.0122 5.71142 4.96745 7 4.96745C8.28858 4.96745 9.33333 6.0122 9.33333 7.30078C9.33333 8.58995 8.28858 9.63411 7 9.63411ZM10.7368 2.72453C10.2725 2.72453 9.89625 3.10078 9.89625 3.56453C9.89625 4.02828 10.2725 4.40453 10.7368 4.40453C11.2006 4.40453 11.5762 4.02828 11.5762 3.56453C11.5762 3.10078 11.2006 2.72453 10.7368 2.72453Z" fill="#BEBDBD"/>
</svg>
