<svg width="32" height="33" viewBox="0 0 32 33" fill="none" xmlns="http://www.w3.org/2000/svg">
<path d="M29.6003 5.75611C30.4882 7.19318 31.0003 8.88517 31.0003 10.6963C31.0003 15.9099 26.7565 20.1365 21.5213 20.1365C20.5661 20.1365 18.3911 19.9169 17.333 19.0388L16.0103 20.3561C14.9083 21.4536 15.79 21.4536 16.2308 22.3319C16.2308 22.3319 17.333 23.8686 16.2308 25.4054C15.5695 26.2835 13.7177 27.5129 11.6016 25.4054L11.1607 25.8444C11.1607 25.8444 12.4833 27.3812 11.3811 28.9179C10.7198 29.7962 8.9563 30.6743 7.41321 29.1375C7.33974 29.2107 6.92825 29.6205 5.87015 30.6743C4.81203 31.728 3.51882 31.1133 3.00449 30.6743L1.68186 29.357C0.447389 28.1276 1.16749 26.7957 1.68186 26.2835L13.1447 14.8676C13.1447 14.8676 12.0425 13.1112 12.0425 10.6963C12.0425 5.48261 16.2863 1.2561 21.5213 1.2561C22.7495 1.2561 23.9233 1.48874 25.0003 1.91217" stroke="#EB6753" stroke-width="2" stroke-linecap="round" stroke-linejoin="round"/>
<path d="M24.8278 10.6964C24.8278 12.5151 23.3475 13.9895 21.5212 13.9895C19.6951 13.9895 18.2146 12.5151 18.2146 10.6964C18.2146 8.87769 19.6951 7.40332 21.5212 7.40332C23.3475 7.40332 24.8278 8.87769 24.8278 10.6964Z" stroke="#EB6753" stroke-width="2"/>
</svg>
