<svg width="1009" height="518" viewBox="0 0 1009 518" fill="none" xmlns="http://www.w3.org/2000/svg">
<path d="M325.151 70.4606H194.805C194.805 70.4606 201.273 52.3129 220.869 62.8793C222.937 54.3153 232.764 55.9459 232.764 55.9459C234.435 16.4509 290.549 10.6036 294.897 54.9262C313.653 34.5321 334.854 50.3892 325.151 70.4606Z" fill="#E5E3E1"/>
<path d="M205.062 190.273H32.2363C32.2363 190.273 36.1773 156.441 71.7837 169.357C74.5026 151.955 88.6365 149.916 92.4411 155.081C103.177 120.549 148.569 102.33 169.226 153.721C190.427 139.583 202.553 165.82 191.87 181.184C214.211 170.581 205.062 190.273 205.062 190.273Z" fill="#E5E3E1"/>
<path d="M956.995 395.989C956.995 395.989 965.883 396.073 969.589 382.879C973.292 369.684 982.921 381.539 991.437 371.167C999.958 360.792 1007.36 349.677 1008.48 357.088C1009.59 364.497 1007.36 398.952 998.105 409.696C988.845 420.44 1002.92 435.63 992.178 444.152C981.439 452.672 971.44 447.115 967.737 455.637C964.032 464.157 924.776 488.61 900.335 474.903C875.891 461.194 932.182 396.359 956.995 395.989Z" fill="#678742"/>
<path d="M894.408 439.502C894.408 439.502 882.555 408.214 892.185 401.546C901.814 394.876 906.999 392.179 906.258 379.635C905.517 367.09 913.164 363.386 925.081 361.534C936.997 359.682 927.006 340.785 941.074 336.711C955.143 332.635 953.291 339.674 961.069 327.82C968.847 315.962 973.66 308.923 980.328 324.485C986.992 340.044 988.844 356.716 975.142 364.866C961.438 373.019 961.81 380.797 968.106 392.283C974.401 403.768 963.662 421.945 950.699 423.972C937.738 425.997 925.886 430.443 929.96 446.004C934.035 461.563 910.887 479.349 897.648 471.196C884.409 463.046 894.408 439.502 894.408 439.502Z" fill="#99B746"/>
<path d="M897.651 452.674L897.518 452.664C896.907 452.593 896.471 452.041 896.545 451.433C896.592 451.041 901.447 412.186 927.865 394.625C953.481 377.593 961.384 340.563 961.463 340.189C961.586 339.586 962.187 339.189 962.775 339.329C963.376 339.453 963.763 340.041 963.637 340.642C963.558 341.022 955.463 378.943 929.094 396.475C903.545 413.462 898.795 451.312 898.751 451.691C898.685 452.258 898.205 452.674 897.651 452.674Z" fill="#678742"/>
<path d="M24.6919 446.97C24.6919 446.97 6.5445 405.884 33.2093 387.189C59.8738 368.497 76.5392 383.315 76.5392 383.315C76.5392 383.315 76.9095 362.938 89.1313 364.421C101.352 365.903 102.833 376.647 102.833 376.647C102.833 376.647 120.24 341.822 138.387 344.785C156.532 347.748 160.977 374.423 160.977 374.423C160.977 374.423 180.73 337.172 212.131 353.056C243.533 368.94 233.564 395.787 233.564 395.787C233.564 395.787 250.23 390.354 258.377 408.509C266.527 426.662 242.452 462.324 242.452 462.324H14.3223C14.3223 462.324 9.87797 439.12 24.6919 446.97Z" fill="#99B746"/>
<path d="M8.39663 477.411H248.906C248.906 477.411 258.378 436.78 244.492 427.832C230.603 418.881 218.94 433.64 218.94 433.64C218.94 433.64 221.346 420.364 211.716 414.066C202.087 407.768 189.865 416.29 189.865 416.29C189.865 416.29 191.347 389.985 170.607 387.391C149.868 384.797 139.87 408.137 139.87 408.137C139.87 408.137 130.239 386.28 110.612 392.206C90.9836 398.135 95.0576 427.029 95.0576 427.029C95.0576 427.029 92.8348 409.13 72.4669 418.637C52.0978 428.145 53.5789 453.64 53.5789 453.64C53.5789 453.64 56.1708 431.997 33.9504 427.108C11.73 422.216 -13.4535 451.1 8.39663 477.411Z" fill="#678742"/>
<path d="M113.129 477.411H268.093C268.093 477.411 274.197 451.231 265.249 445.465C256.3 439.699 248.785 449.209 248.785 449.209C248.785 449.209 250.334 440.654 244.132 436.598C237.927 432.539 230.051 438.029 230.051 438.029C230.051 438.029 231.006 421.081 217.645 419.411C204.28 417.738 197.84 432.778 197.84 432.778C197.84 432.778 191.635 418.694 178.987 422.512C166.342 426.332 168.967 444.947 168.967 444.947C168.967 444.947 167.534 433.418 154.411 439.544C141.285 445.667 142.241 462.095 142.241 462.095C142.241 462.095 143.91 448.149 129.594 444.999C115.276 441.849 99.0508 460.457 113.129 477.411Z" fill="#37664A"/>
<path d="M566.128 223.842L560.95 238.825L392.54 50.3892L224.13 238.825L218.93 223.842L392.54 26.6921L566.128 223.842Z" fill="#E2582D"/>
<path d="M917.967 223.842H566.126L541.926 196.367L508.819 158.756L469.711 114.342L436.601 76.7291L405.115 40.9853L392.539 26.6923H702.65L718.269 40.9853L757.288 76.7291L798.376 114.342L846.882 158.756L887.969 196.367L917.967 223.842Z" fill="#F98D43"/>
<path d="M560.949 238.825H917.96V223.837H566.127L560.949 238.825Z" fill="#E2582D"/>
<path d="M885.805 238.825V466.674H560.949V238.825H885.805Z" fill="#BAB4A8"/>
<path d="M236.707 224.753V466.674H560.95V238.825L392.54 50.3892L236.707 224.753Z" fill="#E5E3E1"/>
<path d="M438.735 324.987V466.674H334.586V324.987C334.586 296.221 357.897 272.903 386.671 272.903C415.426 272.903 438.735 296.221 438.735 324.987Z" fill="#918E88"/>
<path d="M387.775 272.916V466.684C387.775 467.3 387.283 467.795 386.667 467.795C386.052 467.795 385.559 467.3 385.559 466.684V272.916C385.929 272.891 386.298 272.891 386.667 272.891C387.037 272.891 387.406 272.891 387.775 272.916Z" fill="#54514C"/>
<path d="M376.805 366.645V389.984C376.805 391.206 375.806 392.206 374.582 392.206C373.339 392.206 372.361 391.206 372.361 389.984V366.645C372.361 365.42 373.339 364.421 374.582 364.421C375.806 364.421 376.805 365.42 376.805 366.645Z" fill="#54514C"/>
<path d="M399.848 366.645V389.984C399.848 391.206 398.849 392.206 397.625 392.206C396.404 392.206 395.404 391.206 395.404 389.984V366.645C395.404 365.42 396.404 364.421 397.625 364.421C398.849 364.421 399.848 365.42 399.848 366.645Z" fill="#54514C"/>
<path d="M482.619 418.637H450.4V291.898H482.619V418.637Z" fill="#918E88"/>
<path d="M521.693 418.637H489.471V291.898H521.693V418.637Z" fill="#918E88"/>
<path d="M279.86 418.637H247.639V291.898H279.86V418.637Z" fill="#918E88"/>
<path d="M318.93 418.637H286.711V291.898H318.93V418.637Z" fill="#918E88"/>
<path d="M236.707 224.753V238.825L392.528 63.9559L560.95 254.386V238.825L392.54 50.3894L236.707 224.753Z" fill="#BAB4A8"/>
<path d="M864.629 238.825V254.386H560.949V238.825H864.629Z" fill="#918E88"/>
<path d="M600.205 238.825V466.674H823.985V238.825H600.205Z" fill="#918E88"/>
<path d="M877.591 471.12V472.965C877.591 475.433 875.592 477.411 873.147 477.411H220.995C218.55 477.411 216.551 475.433 216.551 472.965V471.12C216.551 468.677 218.55 466.674 220.995 466.674H873.147C875.592 466.674 877.591 468.677 877.591 471.12Z" fill="#BAB4A8"/>
<path d="M718.269 40.9853H405.115L392.539 26.6922H702.65L718.269 40.9853Z" fill="#E2582D"/>
<path d="M798.376 114.342H469.711L436.6 76.7292H757.288L798.376 114.342Z" fill="#E2582D"/>
<path d="M887.968 196.367H541.926L508.818 158.756H846.881L887.968 196.367Z" fill="#E2582D"/>
<path d="M542.86 16.1576V137.312L505.574 88.3349V0.0123291L542.86 16.1576Z" fill="white"/>
<path d="M583.9 16.1576V137.312H542.859V16.1576H583.9Z" fill="#D8D5CE"/>
<path d="M501.229 0H549.686L588.597 18.0566H542.85L501.229 0Z" fill="#918E88"/>
<path d="M588.585 18.0567V40.5492H542.859V18.0567H588.585Z" fill="#BAB4A8"/>
<path d="M542.86 18.0566V40.5492L501.219 20.8153V0.0123291L542.86 18.0566Z" fill="#D8D5CE"/>
<path d="M666.085 223.837H623.791L598.096 196.367H639.994L666.085 223.837Z" fill="#D44D38"/>
<path d="M666.954 224.753H624.648L623.791 223.837H666.085L666.954 224.753Z" fill="#C8332D"/>
<path d="M604.269 158.756H562.918L542.859 137.312H583.9L604.269 158.756Z" fill="#D44D38"/>
<path d="M639.996 196.367H598.098L562.92 158.756H604.271L639.996 196.367Z" fill="#C8332D"/>
<path d="M313.653 487.386C313.653 492.893 268.422 497.359 212.631 497.359C156.838 497.359 111.607 492.893 111.607 487.386C111.607 481.876 156.838 477.411 212.631 477.411C268.422 477.411 313.653 481.876 313.653 487.386Z" fill="#E5E3E1"/>
<path d="M256.34 130.768C256.422 130.313 263.461 131.534 264.293 116.251C265.125 100.968 251.517 102.219 251.517 102.219C251.517 102.219 248.043 92.0764 236.794 92.0764C225.547 92.0764 220.869 97.3572 220.869 97.3572C220.869 97.3572 214.204 88.835 198.836 99.0222C183.465 109.212 183.837 125.143 191.058 134.776C198.279 144.409 195.502 147.741 191.984 151.448C188.465 155.152 180.688 181.643 209.019 173.305C237.35 164.97 236.981 150.005 235.868 133.497C234.758 116.992 256.34 130.768 256.34 130.768Z" fill="#41277A"/>
<path d="M225.397 154.596C225.397 154.596 228.556 152.744 229.481 148.576C230.407 144.409 228.925 137.554 228.74 135.886C228.556 134.219 226.795 131.719 226.795 131.719C226.795 131.719 220.869 132.182 220.869 126.532C220.869 120.882 224.296 118.66 226.054 119.399C227.815 120.14 227.906 121.992 229.388 120.975C230.87 119.955 228.925 118.288 230.592 114.677C232.259 111.064 239.295 105.135 243.368 105.598C247.442 106.061 248.275 108.564 248.275 108.564C248.275 108.564 255.311 109.768 256.793 118.936C258.276 128.106 253.923 142.184 251.517 143.389C249.109 144.593 247.627 144.593 247.627 144.593C247.627 144.593 247.536 150.798 248.183 152.374C248.831 153.948 251.374 154.692 251.374 154.692C251.374 154.692 253.644 192.386 242.442 186.411C231.239 180.438 225.397 154.596 225.397 154.596Z" fill="#FFB2A8"/>
<path d="M261.525 464.694C261.793 467.339 264.57 482.211 263.748 484.011C262.903 485.812 259.437 488.59 255.391 489.147C251.371 489.701 241.926 489.011 241.372 486.502C241.126 485.388 242.616 480.699 244.327 475.452C246.437 468.962 248.882 461.649 248.727 459.403C248.571 457.024 247.816 445.132 247.237 435.839C246.838 429.438 246.503 424.258 246.503 424.258L267.48 422.881C267.48 422.881 265.459 429.504 263.748 436.063C262.593 440.642 261.569 445.177 261.525 447.467C261.414 451.489 261.303 457.314 261.369 461.226C261.392 462.738 261.436 463.96 261.525 464.694Z" fill="#FFB2A8"/>
<path d="M263.748 484.011C262.903 485.812 259.437 488.59 255.391 489.147C251.371 489.701 241.926 489.011 241.372 486.502C241.126 485.388 242.616 480.699 244.327 475.452C245.127 478.164 249.438 481.098 253.749 479.275C258.036 477.474 256.925 461.381 261.369 461.226C261.392 462.738 261.436 463.96 261.525 464.694C261.793 467.339 264.57 482.211 263.748 484.011Z" fill="#231547"/>
<path d="M205.685 418.012C205.685 418.012 204.486 423.08 202.886 429.571C201.465 435.263 199.754 442.063 198.287 447.467C196.354 454.536 194.399 460.337 193.22 464.871C192.442 467.716 191.976 470.051 191.976 471.918C191.976 476.743 195.13 480.809 191.976 483.211C188.842 485.635 156.424 488.59 155.867 483.211C155.313 477.854 159.4 475.43 165.689 472.851C166.6 472.475 167.555 471.94 168.577 471.295C174.532 467.516 181.643 459.647 182.911 455.068C183.844 451.689 184.553 435.817 184.955 424.482C185.176 417.768 185.309 412.632 185.309 412.632L205.685 418.012Z" fill="#FFB2A8"/>
<path d="M185.309 412.632L205.686 418.012C205.686 418.012 204.487 423.081 202.886 429.571C196.487 427.994 190.399 426.238 184.955 424.482C185.176 417.768 185.309 412.632 185.309 412.632Z" fill="#F26173"/>
<path d="M267.483 422.881C267.483 422.881 265.461 429.504 263.75 436.063C258.927 436.152 253.328 436.108 247.239 435.839C246.841 429.438 246.506 424.258 246.506 424.258L267.483 422.881Z" fill="#F26173"/>
<path d="M190.808 273.615C190.808 273.615 194.393 295.844 192.264 296.955C190.134 298.066 188.004 291.768 187.078 293.62C186.153 295.475 185.505 306.31 184.023 307.051C182.541 307.793 180.226 305.384 179.394 301.123C178.56 296.864 179.793 289.453 180.379 287.416C180.968 285.379 183.745 277.504 183.745 274.635C183.745 271.763 190.07 268.618 190.808 273.615Z" fill="#FFB2A8"/>
<path d="M199.946 247.495C199.946 247.495 194.761 275.746 193.651 276.578C192.54 277.413 182.487 276.763 181.773 274.911C181.059 273.059 184.3 245.088 184.3 245.088L199.946 247.495Z" fill="#41277A"/>
<path d="M337.992 199.889C337.992 199.889 346.511 204.15 350.492 204.889C354.473 205.63 363.64 202.574 363.916 204.889C364.194 207.204 355.953 208.133 358.361 209.613C360.769 211.096 365.398 212.67 369.194 213.505C372.991 214.337 373.917 214.615 374.008 215.911C374.101 217.209 368.916 226.748 366.323 226.285C363.731 225.822 347.715 218.876 344.381 216.098C341.048 213.317 334.846 210.354 334.846 210.354L337.992 199.889Z" fill="#FFB2A8"/>
<path d="M318.362 187.568C318.796 188.083 326.231 192.201 330.954 195.071C335.676 197.943 341.88 199.517 341.972 200.63C342.065 201.741 338.638 214.152 336.695 214.522C334.75 214.894 314.103 205.908 311.51 202.295C308.918 198.684 316.326 185.162 318.362 187.568Z" fill="#41277A"/>
<path d="M285.125 422.191C284.569 429.972 276.793 426.637 269.838 429.127C262.905 431.618 244.284 429.393 242.905 429.127C241.529 428.861 245.394 410.499 245.394 400.785C245.394 391.071 245.973 346.322 245.394 340.211C244.862 334.098 236.794 287.704 236.794 287.704C236.794 287.704 222.64 339.655 221.529 346.613C220.419 353.549 217.907 416.344 217.619 422.457C217.42 427.15 210.841 428.061 203.42 425.615C201.153 424.881 198.799 423.837 196.509 422.457C186.799 416.635 182.067 418.568 180.688 417.746C179.312 416.901 182.911 406.054 184.022 389.381C185.132 372.709 199.575 285.192 203.177 270.189C206.798 255.184 217.619 227.396 217.619 227.396L267.905 224.618C267.905 224.618 279.014 244.625 281.237 265.187C283.458 285.748 279.014 329.652 277.904 344.923C276.793 360.216 285.682 414.411 285.125 422.191Z" fill="#41277A"/>
<path d="M315.124 202.901C311.79 206.746 307.902 201.832 300.947 200.167C294.014 198.5 273.748 184.606 273.748 184.606C273.748 184.606 273.637 186.207 273.416 188.763C273.17 191.83 272.793 196.298 272.35 201.012C271.86 206.211 273.17 212.926 274.282 218.172L274.305 218.194V218.216C275.038 221.64 275.681 224.418 275.681 225.729C275.681 229.064 268.46 228.509 262.349 230.443C256.238 232.399 244.863 233.243 237.907 231.019C234.236 229.847 228.48 230.916 223.457 231.982C218.964 232.938 215.054 233.894 213.754 233.243C210.952 231.842 212.91 224.618 213.464 219.618C214.02 214.615 212.353 205.455 211.531 204.344L211.376 204.433C210.086 206.857 203.665 245.625 201.798 249.071C199.843 252.672 189.023 251.027 185.401 249.071C181.799 247.115 182.355 237.955 181.799 230.443C181.245 222.95 189.842 182.938 195.133 169.601C200.42 156.263 225.398 154.596 225.398 154.596C225.398 154.596 240.419 178.204 243.462 179.049C246.505 179.894 250.772 154.596 250.772 154.596C250.772 154.596 274.014 158.197 283.747 161.532C293.457 164.867 318.723 185.45 319.568 188.207C320.412 191.007 318.457 199.054 315.124 202.901Z" fill="#FC4254"/>
<path d="M211.517 205.445C210.941 205.445 210.453 205 210.411 204.413L209.02 185.241C208.976 184.63 209.436 184.098 210.049 184.054C210.66 184.017 211.192 184.468 211.236 185.081L212.625 204.253C212.669 204.867 212.211 205.399 211.598 205.443L211.517 205.445Z" fill="#BA153D"/>
<path d="M273.738 185.716C273.363 185.716 272.997 185.527 272.787 185.182L267.23 176.012C266.913 175.487 267.083 174.803 267.605 174.485C268.134 174.17 268.813 174.335 269.131 174.859L274.688 184.029C275.006 184.554 274.836 185.239 274.314 185.556L273.738 185.716Z" fill="#BA153D"/>
<path d="M213.754 233.243C212.644 232.687 212.279 231.216 212.282 229.332C212.284 226.462 213.129 222.635 213.464 219.618C213.54 218.923 213.574 218.15 213.574 217.329C213.574 213.125 212.666 207.677 211.952 205.359C212.378 205.179 212.663 204.741 212.626 204.253L211.74 191.995C211.984 192.133 212.274 192.438 212.619 192.94C212.619 192.94 219.309 206.278 232.062 206.834C232.488 206.854 232.902 206.862 233.301 206.862C238.902 206.862 242.009 205.115 244.117 203.366C246.224 201.618 247.332 199.869 248.94 199.869C249.058 199.869 249.181 199.879 249.307 199.898C250.986 200.147 253.667 200.63 256.654 200.63C260.069 200.63 263.882 199.999 267.061 197.677C270.572 195.12 272.438 191.408 273.416 188.763C273.169 191.83 272.793 196.297 272.349 201.012C272.276 201.783 272.244 202.588 272.244 203.418C272.244 208.172 273.334 213.704 274.282 218.172C273.947 217.704 271.372 214.014 269.016 213.504C268.139 213.31 264.355 213.184 259.364 213.184C250.053 213.184 236.538 213.623 229.841 214.881C219.574 216.837 213.754 222.95 213.754 233.243Z" fill="#CA2043"/>
<path d="M211.951 205.359C211.798 204.864 211.653 204.512 211.53 204.344L211.374 204.433C210.941 201.278 209.843 191.906 211.446 191.906C211.535 191.906 211.633 191.936 211.739 191.995L212.625 204.253C212.662 204.741 212.377 205.179 211.951 205.359Z" fill="#BA153D"/>
<path d="M236.795 287.704C236.795 287.704 222.641 339.655 221.53 346.613C220.42 353.549 217.909 416.344 217.621 422.457C217.421 427.15 210.842 428.061 203.422 425.615C208.353 399.962 210.355 349.457 210.599 346.879C210.887 343.923 208.464 341.322 210.599 338.721C212.753 336.142 228.464 285.371 227.819 281.524C227.663 280.679 227.154 279.903 226.42 279.192C224.953 277.812 225.819 275.366 227.841 275.366H235.131L236.795 287.704Z" fill="#231547"/>
<path d="M191.976 483.211C188.842 485.635 156.424 488.59 155.867 483.211C155.313 477.854 159.4 475.43 165.689 472.851C166.6 472.475 167.555 471.94 168.577 471.295C171.822 472.228 176.667 473.253 180.754 472.741C187.131 471.984 185.666 463.893 193.22 464.871C192.442 467.716 191.976 470.051 191.976 471.918C191.976 476.743 195.13 480.809 191.976 483.211Z" fill="#231547"/>
<path d="M234.436 137.785C234.436 137.785 237.908 141.815 241.239 143.064C244.573 144.315 247.628 144.593 247.628 144.593V152.512C247.628 152.512 235.685 146.12 234.436 137.785Z" fill="#F26173"/>
<path d="M210.605 132.16C210.317 132.16 210.036 132.01 209.883 131.744C199.37 113.544 220.143 96.867 220.355 96.702C220.719 96.4163 221.238 96.4779 221.523 96.84C221.809 97.202 221.747 97.7242 221.385 98.0099C221.186 98.1675 201.539 113.965 211.326 130.909C211.555 131.308 211.42 131.817 211.021 132.046L210.605 132.16Z" fill="#231547"/>
<path d="M854.783 114.342H623.385C617.947 114.342 613.537 118.753 613.537 124.194V471.273C613.537 476.714 617.947 481.125 623.385 481.125H854.783C860.222 481.125 864.631 476.714 864.631 471.273V124.194C864.631 118.753 860.222 114.342 854.783 114.342Z" fill="#EFEFEF"/>
<path d="M712.994 212.428H648.327C644.248 212.428 640.941 215.736 640.941 219.817V284.509C640.941 288.591 644.248 291.899 648.327 291.899H712.994C717.074 291.899 720.381 288.591 720.381 284.509V219.817C720.381 215.736 717.074 212.428 712.994 212.428Z" fill="white"/>
<path d="M640.942 156.022H840.372C841.601 156.022 842.595 155.027 842.595 153.798C842.595 152.571 841.601 151.576 840.372 151.576H640.942C639.714 151.576 638.721 152.571 638.721 153.798C638.721 155.027 639.714 156.022 640.942 156.022Z" fill="#BAB4A8"/>
<path d="M840.372 184.364H640.942C639.714 184.364 638.721 185.359 638.721 186.586C638.721 187.815 639.714 188.81 640.942 188.81H840.372C841.601 188.81 842.595 187.815 842.595 186.586C842.595 185.359 841.601 184.364 840.372 184.364Z" fill="#BAB4A8"/>
<path d="M840.372 217.152H740.657C739.429 217.152 738.436 218.147 738.436 219.374C738.436 220.603 739.429 221.598 740.657 221.598H840.372C841.601 221.598 842.595 220.603 842.595 219.374C842.595 218.147 841.601 217.152 840.372 217.152Z" fill="#BAB4A8"/>
<path d="M840.372 249.941H740.657C739.429 249.941 738.436 250.936 738.436 252.162C738.436 253.391 739.429 254.386 740.657 254.386H840.372C841.601 254.386 842.595 253.391 842.595 252.162C842.595 250.936 841.601 249.941 840.372 249.941Z" fill="#BAB4A8"/>
<path d="M840.372 282.729H740.657C739.429 282.729 738.436 283.724 738.436 284.95C738.436 286.179 739.429 287.174 740.657 287.174H840.372C841.601 287.174 842.595 286.179 842.595 284.95C842.595 283.724 841.601 282.729 840.372 282.729Z" fill="#BAB4A8"/>
<path d="M840.372 315.517H640.942C639.714 315.517 638.721 316.512 638.721 317.738C638.721 318.967 639.714 319.963 640.942 319.963H840.372C841.601 319.963 842.595 318.967 842.595 317.738C842.595 316.512 841.601 315.517 840.372 315.517Z" fill="#BAB4A8"/>
<path d="M840.372 348.305H640.942C639.714 348.305 638.721 349.297 638.721 350.526C638.721 351.756 639.714 352.751 640.942 352.751H840.372C841.601 352.751 842.595 351.756 842.595 350.526C842.595 349.297 841.601 348.305 840.372 348.305Z" fill="#BAB4A8"/>
<path d="M785.376 378.315H640.942C639.714 378.315 638.721 379.307 638.721 380.536C638.721 381.765 639.714 382.76 640.942 382.76H785.376C786.605 382.76 787.599 381.765 787.599 380.536C787.599 379.307 786.605 378.315 785.376 378.315Z" fill="#BAB4A8"/>
<path d="M733.461 439.273L721.153 406.765C720.725 405.635 719.471 405.053 718.331 405.457L661.455 425.63C660.265 426.051 659.665 427.379 660.135 428.551L672.93 460.553C673.371 461.657 674.602 462.218 675.725 461.827L732.114 442.159C733.296 441.748 733.904 440.443 733.461 439.273Z" fill="white"/>
<path d="M676.25 114.076C675.782 123.835 673.584 130.081 669.472 133.17C668.162 134.147 666.85 134.505 665.629 134.505C662.896 134.505 660.54 132.682 659.584 131.926C658.607 131.192 658.43 129.79 659.185 128.812C659.939 127.857 661.34 127.679 662.295 128.436C665.072 130.569 666.005 130.214 666.806 129.613C669.74 127.391 671.427 122.101 671.806 113.874C672.028 109.074 671.54 103.115 667.918 102.027C666.651 101.628 665.983 101.96 665.54 102.271C663.073 104.093 662.096 110.63 662.051 114.342H657.607V114.32C657.607 113.12 657.851 102.404 662.896 98.6921C664.718 97.3817 666.894 97.0468 669.228 97.7586C674.318 99.3152 676.671 104.805 676.25 114.076Z" fill="#41277A"/>
<path d="M721.291 114.076C720.846 123.835 718.625 130.081 714.513 133.17C713.225 134.147 711.913 134.505 710.692 134.505C707.937 134.505 705.603 132.682 704.625 131.926C703.648 131.192 703.471 129.79 704.224 128.812C704.98 127.857 706.381 127.679 707.358 128.436C710.113 130.569 711.069 130.214 711.847 129.613C714.779 127.391 716.468 122.101 716.847 113.874C717.069 109.074 716.579 103.115 712.979 102.027C711.691 101.628 711.024 101.96 710.581 102.271C708.114 104.093 707.137 110.63 707.092 114.342H702.648V114.32C702.67 113.12 702.892 102.404 707.959 98.6921C709.759 97.3817 711.935 97.0468 714.269 97.7586C719.358 99.3152 721.712 104.805 721.291 114.076Z" fill="#41277A"/>
<path d="M766.335 114.076C765.89 123.835 763.691 130.081 759.58 133.17C758.267 134.147 756.957 134.505 755.736 134.505C752.979 134.505 750.647 132.682 749.67 131.926C748.714 131.192 748.535 129.79 749.29 128.812C750.046 127.857 751.447 127.679 752.402 128.436C755.18 130.569 756.113 130.214 756.913 129.613C759.845 127.391 761.534 122.101 761.914 113.874C762.135 109.074 761.623 103.115 758.023 102.027C756.758 101.628 756.091 101.96 755.645 102.271C753.158 104.093 752.181 110.63 752.159 114.342H747.715V114.32C747.715 113.12 747.958 102.404 753.001 98.6921C754.803 97.3817 757.002 97.0468 759.336 97.7586C764.422 99.3152 766.779 104.805 766.335 114.076Z" fill="#41277A"/>
<path d="M811.397 114.076C810.954 123.835 808.73 130.081 804.621 133.17C803.331 134.147 802.021 134.505 800.775 134.505C798.042 134.505 795.689 132.682 794.733 131.926C793.756 131.192 793.576 129.79 794.332 128.812C795.088 127.857 796.489 127.679 797.444 128.436C800.221 130.569 801.154 130.214 801.955 129.613C803.71 128.28 805.02 125.879 805.842 122.389C806.399 120.142 806.753 117.475 806.93 114.342L806.953 113.874C807.177 109.074 806.687 103.115 803.087 102.027C801.799 101.628 801.132 101.96 800.687 102.271C798.222 104.093 797.242 110.63 797.198 114.342H792.754V114.32C792.776 113.12 793 102.404 798.064 98.6921C799.864 97.3817 802.043 97.0468 804.375 97.7586C809.464 99.3152 811.82 104.805 811.397 114.076Z" fill="#41277A"/>
<path d="M962.607 212.485C962.607 213.463 962.452 214.463 962.073 215.44L956.009 231.645L906.789 362.975L900.991 378.448L887.59 372.667L892.9 357.908L940.586 225.288L946.232 209.615C947.874 204.992 953.096 202.77 957.584 204.748C960.719 206.147 962.607 209.238 962.607 212.485Z" fill="#FC4254"/>
<path d="M957.586 204.748C953.098 202.771 947.875 204.992 946.233 209.615L940.588 225.288L956.01 231.645L962.074 215.44C962.453 214.463 962.609 213.463 962.609 212.485C962.609 209.239 960.72 206.147 957.586 204.748Z" fill="#41277A"/>
<path d="M958.59 224.753C958.59 224.753 968.697 226.317 969.066 231.645C969.438 236.972 940.922 302.549 937.958 302.549C934.996 302.549 940.181 282.544 944.069 271.613C947.956 260.684 959.993 230.305 959.993 230.305L957.108 228.711L958.59 224.753Z" fill="#41277A"/>
<path d="M900.991 378.448L887.59 372.667L892.9 357.908L906.789 362.975L900.991 378.448Z" fill="#CA2043"/>
<path d="M903.273 370.807L888.86 366.157C886.523 365.403 884.017 366.689 883.266 369.026L869.023 413.319C868.245 415.741 869.653 418.319 872.108 418.975L885.817 422.632C888.07 423.233 890.401 421.992 891.162 419.787L906.109 376.489C906.922 374.135 905.642 371.573 903.273 370.807Z" fill="#41277A"/>
<path d="M925.645 430.135C925.645 420.544 904.69 412.77 878.843 412.77C852.993 412.77 832.041 420.544 832.041 430.135C832.041 439.726 852.993 447.502 878.843 447.502C904.69 447.502 925.645 439.726 925.645 430.135Z" fill="#634C47"/>
<path d="M926.274 432.497H828.908C826.19 432.497 823.984 434.704 823.984 437.423V476.199C823.984 478.918 826.19 481.125 828.908 481.125H926.274C928.995 481.125 931.199 478.918 931.199 476.199V437.423C931.199 434.704 928.995 432.497 926.274 432.497Z" fill="#A06352"/>
<path d="M566.126 497.797H46.541C45.3139 497.797 44.3184 496.802 44.3184 495.573C44.3184 494.344 45.3139 493.349 46.541 493.349H566.126C567.354 493.349 568.346 494.344 568.346 495.573C568.346 496.802 567.354 497.797 566.126 497.797Z" fill="#E5E3E1"/>
<path d="M877.59 497.797H600.203C598.977 497.797 597.982 496.802 597.982 495.573C597.982 494.344 598.977 493.349 600.203 493.349H877.59C878.819 493.349 879.813 494.344 879.813 495.573C879.813 496.802 878.819 497.797 877.59 497.797Z" fill="#E5E3E1"/>
<path d="M780.932 517.802H229.307C228.078 517.802 227.084 516.808 227.084 515.581C227.084 514.351 228.078 513.356 229.307 513.356H780.932C782.161 513.356 783.155 514.351 783.155 515.581C783.155 516.808 782.161 517.802 780.932 517.802Z" fill="#E5E3E1"/>
<path d="M170.966 280.908H62.6934C62.6934 280.908 74.3337 263.719 93.1505 276.78C118.185 246.931 145.612 254.719 145.612 271.881C170.806 257.938 174.473 272.615 170.966 280.908Z" fill="#E5E3E1"/>
</svg>
