<svg width="18" height="17" viewBox="0 0 18 17" fill="none" xmlns="http://www.w3.org/2000/svg">
<path d="M11.3999 8.50056H1M1 8.50056L3.79997 6.10059M1 8.50056L3.79997 10.9005" stroke="#F1416C" stroke-linecap="round" stroke-linejoin="round"/>
<path d="M6.60156 4.50069C6.61125 2.76069 6.68841 1.81837 7.30311 1.20367C8.00607 0.500732 9.13742 0.500732 11.4001 0.500732H12.2001C14.4628 0.500732 15.5942 0.500732 16.2971 1.20367C17.0001 1.90661 17.0001 3.03796 17.0001 5.30068V11.7006C17.0001 13.9633 17.0001 15.0947 16.2971 15.7976C15.6824 16.4123 14.7401 16.4895 12.9999 16.4992M6.60156 12.5006C6.61125 14.2406 6.68841 15.1829 7.30311 15.7976C7.81615 16.3107 8.55734 16.4493 9.79997 16.4867" stroke="#F1416C" stroke-linecap="round"/>
</svg>
