<svg width="120" height="121" viewBox="0 0 120 121" fill="none" xmlns="http://www.w3.org/2000/svg">
<path d="M60 58.625C56.6624 58.625 53.3998 59.6147 50.6248 61.4689C47.8497 63.3232 45.6868 65.9587 44.4095 69.0422C43.1323 72.1257 42.7981 75.5187 43.4493 78.7922C44.1004 82.0656 45.7076 85.0724 48.0676 87.4324C50.4276 89.7924 53.4344 91.3996 56.7079 92.0508C59.9813 92.7019 63.3743 92.3677 66.4578 91.0905C69.5413 89.8132 72.1768 87.6503 74.0311 84.8752C75.8853 82.1002 76.875 78.8376 76.875 75.5C76.87 71.026 75.0905 66.7367 71.9269 63.5731C68.7633 60.4095 64.474 58.63 60 58.625ZM60 88.625C57.4041 88.625 54.8665 87.8552 52.7081 86.413C50.5498 84.9708 48.8675 82.921 47.8741 80.5227C46.8807 78.1244 46.6208 75.4854 47.1272 72.9394C47.6336 70.3934 48.8837 68.0548 50.7192 66.2192C52.5548 64.3837 54.8934 63.1336 57.4394 62.6272C59.9854 62.1208 62.6244 62.3807 65.0227 63.3741C67.421 64.3675 69.4709 66.0497 70.913 68.2081C72.3552 70.3665 73.125 72.9041 73.125 75.5C73.1211 78.9798 71.737 82.3159 69.2765 84.7765C66.8159 87.237 63.4798 88.6211 60 88.625Z" fill="black"/>
<path d="M65.625 73.625H61.875V66.125C61.875 65.6277 61.6775 65.1508 61.3258 64.7992C60.9742 64.4475 60.4973 64.25 60 64.25C59.5027 64.25 59.0258 64.4475 58.6742 64.7992C58.3225 65.1508 58.125 65.6277 58.125 66.125V75.5C58.125 75.9973 58.3225 76.4742 58.6742 76.8258C59.0258 77.1775 59.5027 77.375 60 77.375H65.625C66.1223 77.375 66.5992 77.1775 66.9508 76.8258C67.3025 76.4742 67.5 75.9973 67.5 75.5C67.5 75.0027 67.3025 74.5258 66.9508 74.1742C66.5992 73.8225 66.1223 73.625 65.625 73.625Z" fill="black"/>
<path d="M60 107.375C59.5027 107.375 59.0258 107.573 58.6742 107.924C58.3225 108.276 58.125 108.753 58.125 109.25V116.75C58.125 117.247 58.3225 117.724 58.6742 118.076C59.0258 118.427 59.5027 118.625 60 118.625C60.4973 118.625 60.9742 118.427 61.3258 118.076C61.6775 117.724 61.875 117.247 61.875 116.75V109.25C61.875 108.753 61.6775 108.276 61.3258 107.924C60.9742 107.573 60.4973 107.375 60 107.375Z" fill="black"/>
<path d="M52.5 107.375C52.0027 107.375 51.5258 107.573 51.1742 107.924C50.8225 108.276 50.625 108.753 50.625 109.25V116.75C50.625 117.247 50.8225 117.724 51.1742 118.076C51.5258 118.427 52.0027 118.625 52.5 118.625C52.9973 118.625 53.4742 118.427 53.8258 118.076C54.1775 117.724 54.375 117.247 54.375 116.75V109.25C54.375 108.753 54.1775 108.276 53.8258 107.924C53.4742 107.573 52.9973 107.375 52.5 107.375Z" fill="black"/>
<path d="M67.5 107.375C67.0027 107.375 66.5258 107.573 66.1742 107.924C65.8225 108.276 65.625 108.753 65.625 109.25V116.75C65.625 117.247 65.8225 117.724 66.1742 118.076C66.5258 118.427 67.0027 118.625 67.5 118.625C67.9973 118.625 68.4742 118.427 68.8258 118.076C69.1775 117.724 69.375 117.247 69.375 116.75V109.25C69.375 108.753 69.1775 108.276 68.8258 107.924C68.4742 107.573 67.9973 107.375 67.5 107.375Z" fill="black"/>
<path d="M114.08 24.1743C113.608 22.3426 112.593 20.6966 111.168 19.4525C109.743 18.2085 107.975 17.4246 106.097 17.2039C105.256 14.7916 103.775 12.6536 101.811 11.0196C99.8477 9.3855 97.4761 8.31707 94.9512 7.92893C92.4263 7.5408 89.8433 7.84762 87.4796 8.81646C85.1158 9.7853 83.0606 11.3796 81.5344 13.4282C81.2297 13.4024 80.9273 13.3907 80.625 13.3907C77.6413 13.3907 74.7798 14.5759 72.67 16.6857C70.5603 18.7955 69.375 21.657 69.375 24.6407C69.375 27.6243 70.5603 30.4858 72.67 32.5956C74.7798 34.7054 77.6413 35.8907 80.625 35.8907H105C106.43 35.8897 107.842 35.5618 109.126 34.9318C110.41 34.3018 111.533 33.3865 112.409 32.256C113.285 31.1254 113.891 29.8094 114.181 28.4087C114.47 27.008 114.436 25.5596 114.08 24.1743ZM105 32.1407H80.625C79.5789 32.1406 78.5443 31.9217 77.5879 31.498C76.6314 31.0742 75.7741 30.4551 75.0712 29.6804C74.3682 28.9056 73.8351 27.9924 73.5061 26.9994C73.1771 26.0063 73.0595 24.9554 73.1608 23.9142C73.2621 22.873 73.5802 21.8645 74.0945 20.9535C74.6088 20.0425 75.3079 19.2492 76.1471 18.6246C76.9862 17.9999 77.9468 17.5577 78.967 17.3263C79.9872 17.095 81.0446 17.0797 82.0711 17.2813C82.4456 17.3548 82.8336 17.3123 83.1833 17.1594C83.533 17.0066 83.8277 16.7506 84.0281 16.4258C85.0971 14.687 86.6581 13.3045 88.5134 12.4534C90.3687 11.6024 92.4348 11.321 94.4501 11.645C96.4654 11.969 98.3392 12.8838 99.8343 14.2735C101.329 15.6632 102.378 17.4653 102.848 19.4516C102.95 19.8762 103.197 20.2522 103.545 20.5155C103.893 20.7788 104.322 20.913 104.759 20.8954C104.838 20.893 104.92 20.8907 105 20.8907C106.247 20.8894 107.46 21.3033 108.446 22.0671C109.432 22.831 110.136 23.9013 110.447 25.1094C110.566 25.5686 110.626 26.0412 110.625 26.5157C110.623 28.0069 110.03 29.4365 108.975 30.4909C107.921 31.5454 106.491 32.1387 105 32.1407Z" fill="black"/>
<path d="M99.6937 78.35C99.2877 76.7737 98.4228 75.3535 97.2085 74.2694C95.9943 73.1854 94.4855 72.4863 92.8734 72.2609C92.0866 70.0809 90.6912 68.1722 88.8526 66.7611C87.014 65.3499 84.8094 64.4956 82.5 64.2992V54.875C82.5 54.3777 82.3025 53.9008 81.9508 53.5492C81.5992 53.1975 81.1223 53 80.625 53V43.625C80.625 43.1277 80.4275 42.6508 80.0758 42.2992C79.7242 41.9475 79.2473 41.75 78.75 41.75C78.2527 41.75 77.7758 41.9475 77.4242 42.2992C77.0725 42.6508 76.875 43.1277 76.875 43.625V45.5H75.6445L67.5 35.7266V28.625C67.5 28.1277 67.3025 27.6508 66.9508 27.2992C66.5992 26.9475 66.1223 26.75 65.625 26.75H65.4469L63.7406 9.6875C63.6941 9.22501 63.4775 8.79627 63.1328 8.48446C62.7881 8.17264 62.3398 7.99999 61.875 8V4.25C61.875 3.75272 61.6775 3.27581 61.3258 2.92417C60.9742 2.57254 60.4973 2.375 60 2.375C59.5027 2.375 59.0258 2.57254 58.6742 2.92417C58.3225 3.27581 58.125 3.75272 58.125 4.25V8C57.6602 7.99999 57.2119 8.17264 56.8672 8.48446C56.5225 8.79627 56.3059 9.22501 56.2594 9.6875L54.5531 26.75H54.375C53.8777 26.75 53.4008 26.9475 53.0492 27.2992C52.6975 27.6508 52.5 28.1277 52.5 28.625V35.7266L44.3555 45.5H43.125V43.625C43.125 43.1277 42.9275 42.6508 42.5758 42.2992C42.2242 41.9475 41.7473 41.75 41.25 41.75C40.7527 41.75 40.2758 41.9475 39.9242 42.2992C39.5725 42.6508 39.375 43.1277 39.375 43.625V53C38.8777 53 38.4008 53.1975 38.0492 53.5492C37.6975 53.9008 37.5 54.3777 37.5 54.875V83.8039C34.6687 82.8032 31.5915 82.735 28.7187 83.6092C25.8458 84.4835 23.3283 86.2543 21.5344 88.6625C21.2297 88.6367 20.9273 88.625 20.625 88.625C17.6413 88.625 14.7798 89.8103 12.67 91.92C10.5603 94.0298 9.375 96.8913 9.375 99.875C9.375 102.859 10.5603 105.72 12.67 107.83C14.7798 109.94 17.6413 111.125 20.625 111.125H41.25V116.75C41.25 117.247 41.4475 117.724 41.7992 118.076C42.1508 118.427 42.6277 118.625 43.125 118.625C43.6223 118.625 44.0992 118.427 44.4508 118.076C44.8025 117.724 45 117.247 45 116.75V103.625H75V116.75C75 117.247 75.1975 117.724 75.5492 118.076C75.9008 118.427 76.3777 118.625 76.875 118.625C77.3723 118.625 77.8492 118.427 78.2008 118.076C78.5525 117.724 78.75 117.247 78.75 116.75V98H80.625C81.1223 98 81.5992 97.8025 81.9508 97.4508C82.3025 97.0992 82.5 96.6223 82.5 96.125V88.625H91.7297C92.9839 88.6236 94.2212 88.3356 95.3472 87.783C96.4731 87.2304 97.4578 86.4278 98.2262 85.4364C98.9946 84.4451 99.5262 83.2913 99.7806 82.0632C100.035 80.835 100.005 79.5649 99.6937 78.35ZM59.8219 11.75H60.1781L61.6781 26.75H58.3219L59.8219 11.75ZM56.25 30.5H63.75V34.25H56.25V30.5ZM55.4883 38H64.5117L70.7625 45.5H49.2375L55.4883 38ZM43.125 49.25H76.875V53H43.125V49.25ZM41.25 107.375H20.625C19.5789 107.375 18.5443 107.156 17.5879 106.732C16.6314 106.309 15.7741 105.689 15.0712 104.915C14.3682 104.14 13.8351 103.227 13.5061 102.234C13.1771 101.241 13.0595 100.19 13.1608 99.1485C13.2621 98.1073 13.5802 97.0988 14.0945 96.1879C14.6088 95.2769 15.3079 94.4836 16.1471 93.8589C16.9862 93.2342 17.9468 92.792 18.967 92.5607C19.9872 92.3293 21.0446 92.314 22.0711 92.5156C22.4456 92.5892 22.8336 92.5466 23.1833 92.3938C23.533 92.2409 23.8278 91.985 24.0281 91.6602C25.386 89.4505 27.5271 87.834 30.0242 87.1333C32.5213 86.4326 35.1907 86.6991 37.5 87.8797V96.125C37.5 96.6223 37.6975 97.0992 38.0492 97.4508C38.4008 97.8025 38.8777 98 39.375 98H41.25V107.375ZM75 99.875H45V98H75V99.875ZM78.75 94.25H41.25V56.75H78.75V94.25ZM91.7297 84.875H82.5V68.068C84.2027 68.2814 85.799 69.0116 87.0738 70.1603C88.3486 71.309 89.2407 72.8209 89.6297 74.4922C89.7294 74.9171 89.9743 75.2939 90.3222 75.5575C90.6701 75.8211 91.0991 75.9549 91.5352 75.9359C91.6008 75.9336 91.6664 75.9336 91.7297 75.9336C92.9154 75.9336 94.0525 76.4046 94.891 77.243C95.7294 78.0815 96.2004 79.2186 96.2004 80.4043C96.2004 81.59 95.7294 82.7271 94.891 83.5656C94.0525 84.404 92.9154 84.875 91.7297 84.875Z" fill="black"/>
</svg>
