<svg width="16" height="16" viewBox="0 0 16 16" fill="none" xmlns="http://www.w3.org/2000/svg">
<path d="M11.0794 12.1743C7.8449 14.7437 3.57878 13.9288 1.52097 11.1637C-0.377765 8.61156 -0.155531 4.88192 2.14401 2.61279C4.58157 0.208764 8.23089 0.0793224 10.9967 2.29387C13.4444 4.25343 14.2117 8.43923 11.7313 11.4608C11.8202 11.5583 11.9106 11.6636 12.0073 11.7618C12.9594 12.7295 13.9131 13.6964 14.8659 14.6641C14.9291 14.7288 14.993 14.7928 15.0562 14.8583C15.28 15.0899 15.3182 15.3425 15.0804 15.5749C14.8449 15.8049 14.5899 15.7698 14.3614 15.5421C13.4733 14.6563 12.5836 13.7713 11.7016 12.88C11.4841 12.6601 11.2915 12.4168 11.0786 12.1743H11.0794ZM6.75244 1.73399C3.73474 1.74569 1.24883 4.24095 1.25039 7.25632C1.25195 10.2686 3.75345 12.7677 6.76414 12.7654C9.76469 12.763 12.288 10.2358 12.2771 7.24462C12.2662 4.23783 9.74364 1.7223 6.75244 1.73399Z" fill="white"/>
</svg>
