<svg width="20" height="17" viewBox="0 0 20 17" fill="none" xmlns="http://www.w3.org/2000/svg">
<path d="M9.00039 8.50005C7.67491 8.50005 6.60039 7.42556 6.60039 6.10012C6.60039 4.77468 7.67491 3.7002 9.00039 3.7002C10.3259 3.7002 11.4004 4.77468 11.4004 6.10012C11.4004 7.42556 10.3259 8.50005 9.00039 8.50005Z" stroke="black"/>
<path d="M4.22339 14.8998C4.35139 12.5862 5.05939 10.8999 8.99939 10.8999C12.9394 10.8999 13.6474 12.5862 13.7754 14.8998" stroke="black" stroke-linecap="round"/>
<path d="M13 1.57062C11.7844 0.867363 10.4044 0.49809 9 0.500254C4.5816 0.500254 1 4.08174 1 8.5C1 12.9183 4.5816 16.4998 9 16.4998C13.4184 16.4998 17 12.9183 17 8.5" stroke="black" stroke-linecap="round"/>
<path d="M16.2927 1.50024C16.2048 1.50024 16.1268 1.55649 16.099 1.63989V1.63989C16.0534 1.77657 15.9916 1.90729 15.9149 2.02923C15.8119 2.19152 15.6711 2.32647 15.5047 2.42257C15.3382 2.51867 15.151 2.57307 14.959 2.58111C14.8151 2.58657 14.6711 2.57474 14.53 2.54588V2.54588C14.4439 2.52822 14.3561 2.56769 14.3121 2.64385L14.0737 3.05679C14.0297 3.13302 14.0394 3.22886 14.0977 3.29475V3.29475C14.1939 3.40327 14.2759 3.52208 14.3428 3.64861C14.4318 3.81894 14.4784 4.00829 14.4784 4.20049C14.4784 4.39269 14.4318 4.58204 14.3428 4.75237C14.2756 4.8797 14.1933 4.9985 14.0977 5.10623V5.10623C14.0394 5.17212 14.0297 5.26796 14.0737 5.34419L14.3122 5.75735C14.3561 5.83337 14.4438 5.87275 14.5298 5.85509V5.85509C14.671 5.82619 14.8152 5.81436 14.9592 5.81986C15.1512 5.82795 15.3384 5.88237 15.5048 5.97846C15.6712 6.07456 15.8119 6.20949 15.9149 6.37174C15.991 6.49261 16.053 6.62351 16.099 6.76109V6.76109C16.1268 6.84448 16.2048 6.90073 16.2927 6.90073H16.7698C16.8577 6.90073 16.9358 6.84448 16.9636 6.76109V6.76109C17.0096 6.62325 17.0716 6.49287 17.1477 6.37174C17.2507 6.20946 17.3914 6.07451 17.5579 5.97841C17.7243 5.88231 17.9116 5.82791 18.1036 5.81986C18.2475 5.8144 18.3915 5.82623 18.5326 5.85509V5.85509C18.6187 5.87275 18.7065 5.83329 18.7505 5.75713L18.9889 5.34419C19.0329 5.26796 19.0232 5.17212 18.9648 5.10623V5.10623C18.8693 4.99849 18.787 4.87969 18.7198 4.75237C18.6307 4.58204 18.5842 4.39269 18.5842 4.20049C18.5842 4.00829 18.6307 3.81894 18.7198 3.64861C18.7866 3.52208 18.8687 3.40327 18.9648 3.29475V3.29475C19.0232 3.22886 19.0329 3.13302 18.9889 3.05679L18.7503 2.64363C18.7064 2.5676 18.6188 2.52822 18.5328 2.54588V2.54588C18.3916 2.57478 18.2474 2.58661 18.1033 2.58111C17.9114 2.57303 17.7242 2.51861 17.5578 2.42251C17.3914 2.32641 17.2507 2.19148 17.1477 2.02923C17.071 1.90729 17.0091 1.77657 16.9636 1.63989V1.63989C16.9358 1.55649 16.8577 1.50024 16.7698 1.50024H16.2927Z" stroke="black" stroke-width="0.833333"/>
<path d="M17.4301 4.2004C17.4301 4.43925 17.3352 4.66832 17.1663 4.83722C16.9974 5.00611 16.7684 5.101 16.5295 5.101C16.2906 5.101 16.0616 5.00611 15.8927 4.83722C15.7238 4.66832 15.6289 4.43925 15.6289 4.2004C15.6289 3.96155 15.7238 3.73248 15.8927 3.56358C16.0616 3.39469 16.2906 3.2998 16.5295 3.2998C16.7684 3.2998 16.9974 3.39469 17.1663 3.56358C17.3352 3.73248 17.4301 3.96155 17.4301 4.2004Z" stroke="black" stroke-width="0.833333"/>
</svg>
