<svg width="15" height="17" viewBox="0 0 15 17" fill="none" xmlns="http://www.w3.org/2000/svg">
<path d="M13.6316 7.13636C13.6316 11.9091 7.31579 16 7.31579 16C7.31579 16 1 11.9091 1 7.13636C1 5.5089 1.66541 3.94809 2.84985 2.7973C4.03429 1.64651 5.64074 1 7.31579 1C8.99084 1 10.5973 1.64651 11.7817 2.7973C12.9662 3.94809 13.6316 5.5089 13.6316 7.13636Z" stroke="#717171" stroke-linecap="round" stroke-linejoin="round"/>
<path d="M6.92095 8.89476C8.01099 8.89476 8.89463 8.01111 8.89463 6.92107C8.89463 5.83104 8.01099 4.94739 6.92095 4.94739C5.83091 4.94739 4.94727 5.83104 4.94727 6.92107C4.94727 8.01111 5.83091 8.89476 6.92095 8.89476Z" stroke="#717171" stroke-linecap="round" stroke-linejoin="round"/>
</svg>
