<svg width="9" height="16" viewBox="0 0 9 16" fill="none" xmlns="http://www.w3.org/2000/svg">
<path d="M3.46125 13.303H5.53875C5.61925 13.303 5.6875 13.275 5.7435 13.219C5.799 13.1635 5.82675 13.0953 5.82675 13.0142C5.82675 12.9338 5.799 12.8655 5.7435 12.8095C5.6875 12.754 5.61925 12.7263 5.53875 12.7263H3.46125C3.38075 12.7263 3.3125 12.754 3.2565 12.8095C3.201 12.8655 3.17325 12.9338 3.17325 13.0142C3.17325 13.0953 3.201 13.1635 3.2565 13.219C3.3125 13.275 3.38075 13.303 3.46125 13.303ZM1.21125 15.0625C0.86625 15.0625 0.57825 14.947 0.34725 14.716C0.11575 14.4845 0 14.1963 0 13.8513V1.27375C0 0.92875 0.11575 0.64075 0.34725 0.40975C0.57825 0.17825 0.86625 0.0625 1.21125 0.0625H7.78875C8.13375 0.0625 8.42175 0.17825 8.65275 0.40975C8.88425 0.64075 9 0.92875 9 1.27375V13.8513C9 14.1963 8.8845 14.4843 8.6535 14.7153C8.422 14.9468 8.13375 15.0625 7.78875 15.0625H1.21125ZM0.75 11.716V13.8513C0.75 13.9663 0.798 14.072 0.894 14.1685C0.9905 14.2645 1.09625 14.3125 1.21125 14.3125H7.78875C7.90375 14.3125 8.0095 14.2645 8.106 14.1685C8.202 14.072 8.25 13.9663 8.25 13.8513V11.716H0.75ZM0.75 10.966H8.25V2.6875H0.75V10.966ZM0.75 1.9375H8.25V1.27375C8.25 1.15875 8.202 1.053 8.106 0.9565C8.0095 0.8605 7.90375 0.8125 7.78875 0.8125H1.21125C1.09625 0.8125 0.9905 0.8605 0.894 0.9565C0.798 1.053 0.75 1.15875 0.75 1.27375V1.9375Z" fill="black"/>
</svg>
