<svg width="30" height="29" viewBox="0 0 30 29" fill="none" xmlns="http://www.w3.org/2000/svg">
<path d="M22.0875 27.3808H7.9125C6.31126 27.3808 4.77559 26.7447 3.64334 25.6124C2.51109 24.4802 1.875 22.9445 1.875 21.3433C1.87538 19.8522 2.4275 18.414 3.425 17.3058L12.6125 7.09326H17.3875L26.575 17.3058C27.5725 18.414 28.1246 19.8522 28.125 21.3433C28.125 22.9445 27.4889 24.4802 26.3567 25.6124C25.2244 26.7447 23.6887 27.3808 22.0875 27.3808Z" stroke="#EB6753" stroke-width="2" stroke-miterlimit="10" stroke-linecap="square"/>
<path d="M19.7751 1.13081L19.2876 3.63081C19.0805 4.61317 18.5409 5.49404 17.7598 6.12481C16.9788 6.75558 16.004 7.09765 15.0001 7.09331C13.9891 7.09531 13.0089 6.74613 12.2268 6.10545C11.4448 5.46478 10.9096 4.57239 10.7126 3.58081L10.2251 1.08081L19.7751 1.13081Z" stroke="#EB6753" stroke-width="2" stroke-miterlimit="10" stroke-linecap="square"/>
<path d="M23.35 3.51831L18.575 5.90581" stroke="#EB6753" stroke-width="2" stroke-miterlimit="10" stroke-linecap="square"/>
<path d="M24.55 7.09326H17.3875" stroke="#EB6753" stroke-width="2" stroke-miterlimit="10" stroke-linecap="square"/>
<path d="M12.6125 21.4183H15.6C16.0741 21.4183 16.5287 21.23 16.864 20.8948C17.1992 20.5596 17.3875 20.1049 17.3875 19.6308C17.3891 19.395 17.3441 19.1613 17.255 18.9429C17.1659 18.7246 17.0345 18.5261 16.8684 18.3588C16.7022 18.1915 16.5046 18.0587 16.2869 17.9681C16.0693 17.8775 15.8358 17.8308 15.6 17.8308H14.35C13.8759 17.8308 13.4213 17.6425 13.086 17.3073C12.7508 16.9721 12.5625 16.5174 12.5625 16.0433C12.5624 15.8043 12.6102 15.5677 12.7032 15.3475C12.7961 15.1273 12.9323 14.928 13.1036 14.7614C13.2749 14.5947 13.4779 14.4641 13.7006 14.3773C13.9233 14.2904 14.1611 14.2491 14.4 14.2558H17.3875" stroke="#EB6753" stroke-width="2" stroke-miterlimit="10" stroke-linecap="square"/>
<path d="M15 13.0684V14.2559" stroke="#EB6753" stroke-width="2" stroke-miterlimit="10" stroke-linecap="square"/>
<path d="M15 21.4182V22.6057" stroke="#EB6753" stroke-width="2" stroke-miterlimit="10" stroke-linecap="square"/>
</svg>
