<svg width="120" height="121" viewBox="0 0 120 121" fill="none" xmlns="http://www.w3.org/2000/svg">
<mask id="mask0_2470_263" style="mask-type:luminance" maskUnits="userSpaceOnUse" x="0" y="0" width="120" height="121">
<path d="M120 0.5H0V120.5H120V0.5Z" fill="white"/>
</mask>
<g mask="url(#mask0_2470_263)">
<path d="M100.449 117.843L94.1543 105.884L97.2451 103.062C97.9154 102.45 98.0185 101.432 97.4846 100.698L86.0792 85.0152C85.7438 84.554 85.208 84.2812 84.638 84.2812H83.925L83.9252 62.5988C83.9252 61.8162 83.8591 61.0493 83.7373 60.3007L89.1537 58.6964C90.023 58.4391 90.6125 57.585 90.466 56.6904C90.2888 55.6088 89.2151 54.9605 88.1993 55.2619L82.7255 56.8833C82.5802 56.5524 82.4234 56.2275 82.2539 55.9102L89.6311 50.7047C90.4353 50.1373 90.6272 49.0252 90.0598 48.221C89.4924 47.4169 88.381 47.2247 87.5761 47.7923L80.1982 52.9983C79.673 52.4227 79.0992 51.893 78.487 51.4092L84.2855 41.7717C84.7929 40.9284 84.5206 39.8332 83.677 39.3257C82.8335 38.8183 81.7385 39.0904 81.2311 39.934L75.4361 49.5654C74.1904 49.012 72.8519 48.633 71.4506 48.4573V34.8728C71.4506 33.8969 70.6985 33.0459 69.723 33.0168C68.7138 32.9866 67.8862 33.7956 67.8862 34.7983V48.4575C66.4844 48.633 65.1459 49.0123 63.9004 49.5659L58.1055 39.9342C57.5976 39.0909 56.5028 38.8186 55.6595 39.326C54.816 39.8334 54.5439 40.9284 55.0511 41.7719L60.8495 51.4095C60.2373 51.8927 59.6636 52.4227 59.1383 52.9983L51.7604 47.7923C50.9558 47.2249 49.8444 47.4169 49.2767 48.221C48.7091 49.0254 48.9013 50.1373 49.7054 50.7047L57.0826 55.9102C56.9132 56.2275 56.7566 56.5521 56.6113 56.8833L51.1375 55.2619C50.1756 54.9771 49.1652 55.541 48.9078 56.5172C48.6589 57.4608 49.2613 58.4234 50.1969 58.7004L55.5993 60.3005C55.4774 61.0491 55.4113 61.816 55.4113 62.5986L55.4122 81.4077L51.9001 79.8404L39.9073 38.9376V27.9665H43.2041C44.1882 27.9665 44.9863 27.1684 44.9863 26.1843V20.4819C44.9863 19.4978 44.1882 18.6997 43.2041 18.6997H40.9048L42.392 5.99092C42.459 5.41764 42.2741 4.83029 41.8517 4.43678C41.1966 3.82576 40.2282 3.79857 39.549 4.31467L36.5335 6.6071L34.7954 1.73911C34.6032 1.20122 34.1867 0.757543 33.642 0.584808C32.7917 0.314807 31.9067 0.705981 31.5148 1.46091L28.5131 7.24507L24.8201 4.36084C24.357 3.99896 23.7455 3.85365 23.1823 4.02217C22.3123 4.28232 21.7987 5.12186 21.9169 5.9778L23.6766 18.7002H21.1064C20.1223 18.7002 19.3242 19.4982 19.3242 20.4824V26.1852C19.3242 27.1694 20.1223 27.9674 21.1064 27.9674H24.4031V33.4424C24.4031 37.2843 27.2944 40.4615 31.0151 40.9183L33.968 65.2414C34.0866 66.2185 34.9749 66.9146 35.952 66.7958C36.9291 66.6772 37.6252 65.7889 37.5064 64.8118L34.6128 40.9767H36.7908L48.451 80.7456L40.6301 90.5427L38.5327 73.2671C38.4141 72.29 37.5258 71.5939 36.5487 71.7127C35.5716 71.8313 34.8758 72.7196 34.9943 73.6967L37.5137 94.4467L32.6325 100.561C32.1089 101.217 32.1139 102.149 32.6443 102.8L40.4422 112.361V118.718C40.4422 119.702 41.2402 120.5 42.2244 120.5H60.6245H60.6259H60.628H98.8946C99.6533 120.5 100.345 120.018 100.592 119.266C100.746 118.796 100.679 118.281 100.449 117.843ZM28.0104 11.375C28.4278 11.701 28.9692 11.8243 29.4867 11.7118C30.0045 11.5988 30.4451 11.2618 30.6893 10.7912L32.7945 6.73413L33.9961 10.0988C34.1874 10.6339 34.6224 11.0459 35.1668 11.2079C35.7113 11.3699 36.3005 11.2623 36.7531 10.9182L38.3712 9.6882L37.3165 18.7004H27.2752L26.0501 9.8443L28.0104 11.375ZM36.3432 37.4123H31.9376C29.7485 37.4123 27.9675 35.6315 27.9675 33.4424V27.9674H36.3432V37.4123ZM26.1856 24.4033H22.8886V22.2648H41.4221V24.4033H38.1254H26.1856ZM69.6686 51.907C74.7614 51.907 79.031 55.4871 80.1005 60.2618C77.4956 57.4634 73.7843 55.7084 69.6686 55.7084C65.553 55.7084 61.8412 57.4634 59.2365 60.2618C60.306 55.4867 64.5759 51.907 69.6686 51.907ZM58.9769 78.0746C61.5916 81.0397 65.4142 82.9152 69.6686 82.9152C70.653 82.9152 71.4508 82.1172 71.4508 81.133C71.4508 80.1489 70.653 79.3508 69.6686 79.3508C63.9923 79.3508 59.3369 74.9042 58.998 69.3116C59.3371 63.7191 63.9923 59.2725 69.6686 59.2725C75.5615 59.2725 80.3557 64.0641 80.3609 69.9559V84.2814H61.8505L58.9769 82.9989V78.0746ZM59.7259 116.936H44.0066V112.32L53.0914 100.206C53.6818 99.4188 53.5222 98.3018 52.735 97.7111C51.9475 97.1207 50.8307 97.2801 50.2398 98.0676L42.1655 108.834L36.3153 101.661L50.9546 83.3221L58.705 86.7808L55.8004 90.6538C55.21 91.4413 55.3696 92.5584 56.1569 93.149C56.4777 93.3895 56.8527 93.5055 57.2247 93.5055C57.7665 93.5055 58.3016 93.2594 58.6518 92.7925L62.3617 87.8455H81.1155L59.7259 116.936ZM64.15 116.936L84.63 89.0826L93.6645 101.505L86.6445 107.915C85.9174 108.578 85.8666 109.706 86.5299 110.433C86.8817 110.817 87.3633 111.013 87.8466 111.013C88.2757 111.013 88.706 110.859 89.0478 110.547L91.4339 108.368L95.9429 116.936H64.15Z" fill="#181A20"/>
<path d="M76.8551 65.4824L70.075 63.8938C69.8076 63.831 69.5292 63.831 69.262 63.8938L62.4817 65.4824C61.5234 65.7069 60.9285 66.6657 61.1528 67.6241C61.3773 68.5825 62.3357 69.1773 63.2948 68.953L67.8864 67.8772V70.5447C67.8864 71.5288 68.6842 72.3269 69.6686 72.3269C70.653 72.3269 71.4508 71.5288 71.4508 70.5447V67.8772L76.0422 68.953C76.1789 68.9851 76.3155 69.0004 76.4505 69.0004C77.2591 69.0004 77.9915 68.4461 78.1842 67.6243C78.408 66.6658 77.8134 65.7069 76.8551 65.4824Z" fill="#181A20"/>
</g>
</svg>
