<svg width="13" height="13" viewBox="0 0 13 13" fill="none" xmlns="http://www.w3.org/2000/svg">
<g clip-path="url(#clip0_2506_943)">
<path d="M4.0625 2.89523C5.24844 2.15604 7.02736 1.27065 7.86808 1.27065H10.3049C10.9208 1.9907 11.3788 2.83193 11.6493 3.74001C11.989 4.77909 12.1698 5.86356 12.1854 6.95667H8.53009V11.0181C8.51494 11.1681 8.45933 11.3112 8.3692 11.4321C8.27907 11.553 8.15781 11.6472 8.01835 11.7045C7.70562 10.8922 6.95425 9.03613 6.30036 8.16292C5.73043 7.42394 4.95033 6.87461 4.0625 6.58708V7.45217C4.69352 7.70507 5.24288 8.12657 5.65053 8.6706C6.41408 9.69003 7.39289 12.3706 7.40101 12.3949C7.43524 12.4901 7.50376 12.5691 7.59315 12.6164C7.68254 12.6637 7.78636 12.676 7.88432 12.6508C8.42855 12.4884 9.34238 11.9929 9.34238 11.0181V7.76896H12.5915C12.6993 7.76896 12.8026 7.72617 12.8787 7.65C12.9549 7.57384 12.9977 7.47053 12.9977 7.36282C13.0293 6.03773 12.8371 4.7168 12.4291 3.45571C11.6615 1.26252 10.7639 0.555833 10.7233 0.523342C10.6499 0.475526 10.563 0.452731 10.4755 0.458358H7.86808C6.88114 0.458358 5.21189 1.27065 4.0625 1.93266V2.89523Z" fill="#717171"/>
<path d="M0 0.864502H2.84301C2.95073 0.864502 3.05403 0.907292 3.1302 0.983459C3.20637 1.05963 3.24916 1.16293 3.24916 1.27065V7.76896C3.24916 7.87668 3.20637 7.97998 3.1302 8.05615C3.05403 8.13232 2.95073 8.17511 2.84301 8.17511H0V0.864502ZM2.43687 1.67679H0.812289V7.36282H2.43687V1.67679Z" fill="#717171"/>
</g>
<defs>
<clipPath id="clip0_2506_943">
<rect width="13" height="12.2061" fill="white" transform="translate(0 0.45752)"/>
</clipPath>
</defs>
</svg>
