<svg width="7" height="10" viewBox="0 0 7 10" fill="none" xmlns="http://www.w3.org/2000/svg">
<mask id="path-1-inside-1_2517_386" fill="white">
<path d="M5.57029 4.51428L0.639322 0.656364C0.54518 0.582356 0.498748 0.49368 0.500026 0.390335C0.501304 0.28699 0.549014 0.198314 0.643156 0.124306C0.737724 0.0506313 0.851249 0.0137939 0.98373 0.0137939C1.11578 0.0137939 1.22888 0.0506313 1.32303 0.124306L6.20288 3.94572C6.30596 4.02673 6.38136 4.11674 6.42907 4.21575C6.47636 4.31543 6.5 4.41494 6.5 4.51428C6.5 4.61363 6.47636 4.71297 6.42907 4.81232C6.38136 4.91166 6.30596 5.00167 6.20288 5.08235L1.31983 8.90476C1.22526 8.97844 1.11238 9.01477 0.981174 9.01377C0.850397 9.01277 0.737938 8.97544 0.643795 8.90176C0.549653 8.82809 0.502582 8.73941 0.502582 8.63573C0.502582 8.53239 0.54944 8.44388 0.643156 8.3702L5.57029 4.51428Z"/>
</mask>
<path d="M5.57029 4.51428L0.639322 0.656364C0.54518 0.582356 0.498748 0.49368 0.500026 0.390335C0.501304 0.28699 0.549014 0.198314 0.643156 0.124306C0.737724 0.0506313 0.851249 0.0137939 0.98373 0.0137939C1.11578 0.0137939 1.22888 0.0506313 1.32303 0.124306L6.20288 3.94572C6.30596 4.02673 6.38136 4.11674 6.42907 4.21575C6.47636 4.31543 6.5 4.41494 6.5 4.51428C6.5 4.61363 6.47636 4.71297 6.42907 4.81232C6.38136 4.91166 6.30596 5.00167 6.20288 5.08235L1.31983 8.90476C1.22526 8.97844 1.11238 9.01477 0.981174 9.01377C0.850397 9.01277 0.737938 8.97544 0.643795 8.90176C0.549653 8.82809 0.502582 8.73941 0.502582 8.63573C0.502582 8.53239 0.54944 8.44388 0.643156 8.3702L5.57029 4.51428Z" fill="black"/>
<path d="M5.57029 4.51428L32.0711 38.3773L75.3473 4.5099L32.0669 -29.3521L5.57029 4.51428ZM0.639322 0.656364L-25.9357 34.4612L-25.8965 34.492L-25.8572 34.5227L0.639322 0.656364ZM0.643156 0.124306L-25.7835 -33.7967L-25.8578 -33.7388L-25.9319 -33.6806L0.643156 0.124306ZM1.32303 0.124306L27.8346 -33.7303L27.8239 -33.7387L1.32303 0.124306ZM6.20288 3.94572L32.7715 -29.8642L32.743 -29.8866L32.7145 -29.9089L6.20288 3.94572ZM6.42907 4.21575L45.2795 -14.2138L45.2232 -14.3323L45.1663 -14.4505L6.42907 4.21575ZM6.42907 4.81232L45.1908 23.4277L45.2233 23.36L45.2555 23.2923L6.42907 4.81232ZM6.20288 5.08235L-20.298 -28.7807L-20.3023 -28.7773L6.20288 5.08235ZM1.31983 8.90476L27.7464 42.8258L27.7857 42.7951L27.825 42.7644L1.31983 8.90476ZM0.981174 9.01377L0.652343 52.0125L0.653411 52.0125L0.981174 9.01377ZM0.643156 8.3702L-25.8577 -25.4928L-25.895 -25.4637L-25.9322 -25.4344L0.643156 8.3702ZM32.0669 -29.3521L27.1359 -33.21L-25.8572 34.5227L-20.9263 38.3807L32.0669 -29.3521ZM27.2143 -33.1485C31.0202 -30.1566 35.3356 -25.6994 38.6277 -19.4121C42.0207 -12.9322 43.5813 -5.91236 43.4967 0.922028L-42.4967 -0.141358C-42.691 15.5712 -34.658 27.6043 -25.9357 34.4612L27.2143 -33.1485ZM43.4967 0.922028C43.414 7.61127 41.7528 14.3953 38.4039 20.6198C35.1488 26.67 30.9532 30.9929 27.2182 33.9292L-25.9319 -33.6806C-34.4302 -26.9998 -42.308 -15.3987 -42.4967 -0.141358L43.4967 0.922028ZM27.0698 34.0453C18.812 40.4786 9.35942 43.0138 0.98373 43.0138L0.98373 -42.9862C-7.65693 -42.9862 -17.3366 -40.3773 -25.7835 -33.7967L27.0698 34.0453ZM0.98373 43.0138C-7.425 43.0138 -16.9086 40.4587 -25.1778 33.9873L27.8239 -33.7387C19.3664 -40.3575 9.65657 -42.9862 0.98373 -42.9862L0.98373 43.0138ZM-25.1886 33.9789L-20.3087 37.8003L32.7145 -29.9089L27.8346 -33.7303L-25.1886 33.9789ZM-20.3657 37.7556C-24.4356 34.5574 -29.0098 29.7269 -32.3081 22.882L45.1663 -14.4505C41.7725 -21.4934 37.0475 -26.504 32.7715 -29.8642L-20.3657 37.7556ZM-32.4213 22.6453C-34.8015 17.6276 -36.5 11.4644 -36.5 4.51428L49.5 4.51428C49.5 -2.6345 47.7543 -8.99674 45.2795 -14.2138L-32.4213 22.6453ZM-36.5 4.51428C-36.5 -2.43968 -34.7995 -8.62067 -32.3974 -13.6676L45.2555 23.2923C47.7522 18.0466 49.5 11.6669 49.5 4.51428L-36.5 4.51428ZM-32.3326 -13.803C-29.0302 -20.6794 -24.4297 -25.5473 -20.298 -28.7807L32.7037 38.9454C37.0416 35.5506 41.793 30.5027 45.1908 23.4277L-32.3326 -13.803ZM-20.3023 -28.7773L-25.1853 -24.9549L27.825 42.7644L32.708 38.942L-20.3023 -28.7773ZM-25.1068 -25.0162C-16.8257 -31.4677 -7.27182 -34.0504 1.30894 -33.985L0.653411 52.0125C9.49657 52.0799 19.2762 49.4246 27.7464 42.8258L-25.1068 -25.0162ZM1.31 -33.985C9.72601 -33.9206 19.0498 -31.2962 27.1446 -24.9613L-25.857 42.7648C-17.5739 49.2471 -8.02522 51.9462 0.652343 52.0125L1.31 -33.985ZM27.1446 -24.9613C30.9508 -21.9826 35.2314 -17.5737 38.5186 -11.3809C41.901 -5.00896 43.5026 1.89652 43.5026 8.63573L-42.4974 8.63573C-42.4974 24.0926 -34.5654 35.9498 -25.857 42.7648L27.1446 -24.9613ZM43.5026 8.63573C43.5026 15.3653 41.9057 22.2547 38.5406 28.611C35.2699 34.789 31.01 39.1941 27.2185 42.1748L-25.9322 -25.4344C-34.5998 -18.6204 -42.4974 -6.78627 -42.4974 8.63573L43.5026 8.63573ZM27.144 42.2332L32.0711 38.3773L-20.9305 -29.3488L-25.8577 -25.4928L27.144 42.2332Z" fill="black" mask="url(#path-1-inside-1_2517_386)"/>
</svg>
