<svg width="7" height="10" viewBox="0 0 7 10" fill="none" xmlns="http://www.w3.org/2000/svg">
<mask id="path-1-inside-1_2517_371" fill="white">
<path d="M1.42971 4.5133L6.36068 8.37122C6.45482 8.44523 6.50125 8.53391 6.49997 8.63725C6.4987 8.7406 6.45099 8.82927 6.35684 8.90328C6.26228 8.97696 6.14875 9.01379 6.01627 9.01379C5.88422 9.01379 5.77112 8.97696 5.67697 8.90328L0.797123 5.08187C0.694035 5.00086 0.618636 4.91085 0.570926 4.81184C0.523642 4.71216 0.5 4.61265 0.5 4.5133C0.5 4.41396 0.523642 4.31462 0.570926 4.21527C0.618636 4.11593 0.694035 4.02592 0.797123 3.94524L5.68017 0.122825C5.77474 0.04915 5.88762 0.0128141 6.01883 0.0138145C6.1496 0.0148149 6.26206 0.0521513 6.3562 0.125826C6.45035 0.199501 6.49742 0.288177 6.49742 0.391855C6.49742 0.4952 6.45056 0.583709 6.35684 0.657384L1.42971 4.5133Z"/>
</mask>
<path d="M1.42971 4.5133L6.36068 8.37122C6.45482 8.44523 6.50125 8.53391 6.49997 8.63725C6.4987 8.7406 6.45099 8.82927 6.35684 8.90328C6.26228 8.97696 6.14875 9.01379 6.01627 9.01379C5.88422 9.01379 5.77112 8.97696 5.67697 8.90328L0.797123 5.08187C0.694035 5.00086 0.618636 4.91085 0.570926 4.81184C0.523642 4.71216 0.5 4.61265 0.5 4.5133C0.5 4.41396 0.523642 4.31462 0.570926 4.21527C0.618636 4.11593 0.694035 4.02592 0.797123 3.94524L5.68017 0.122825C5.77474 0.04915 5.88762 0.0128141 6.01883 0.0138145C6.1496 0.0148149 6.26206 0.0521513 6.3562 0.125826C6.45035 0.199501 6.49742 0.288177 6.49742 0.391855C6.49742 0.4952 6.45056 0.583709 6.35684 0.657384L1.42971 4.5133Z" fill="black"/>
<path d="M1.42971 4.5133L-25.0711 -29.3497L-68.3473 4.51769L-25.0669 38.3797L1.42971 4.5133ZM6.36068 8.37122L32.9357 -25.4336L32.8965 -25.4644L32.8572 -25.4952L6.36068 8.37122ZM6.35684 8.90328L32.7835 42.8243L32.8578 42.7664L32.9319 42.7081L6.35684 8.90328ZM5.67697 8.90328L-20.8346 42.7579L-20.8239 42.7663L5.67697 8.90328ZM0.797123 5.08187L-25.7715 38.8918L-25.743 38.9142L-25.7145 38.9365L0.797123 5.08187ZM0.570926 4.81184L-38.2795 23.2413L-38.2232 23.3599L-38.1663 23.4781L0.570926 4.81184ZM0.570926 4.21527L-38.1908 -14.4001L-38.2233 -14.3324L-38.2555 -14.2647L0.570926 4.21527ZM0.797123 3.94524L27.298 37.8083L27.3023 37.8049L0.797123 3.94524ZM5.68017 0.122825L-20.7464 -33.7982L-20.7857 -33.7676L-20.825 -33.7369L5.68017 0.122825ZM6.01883 0.0138145L6.34766 -42.9849L6.34659 -42.9849L6.01883 0.0138145ZM6.35684 0.657384L32.8577 34.5204L32.895 34.4912L32.9322 34.462L6.35684 0.657384ZM-25.0669 38.3797L-20.1359 42.2376L32.8572 -25.4952L27.9263 -29.3531L-25.0669 38.3797ZM-20.2143 42.1761C-24.0202 39.1841 -28.3356 34.727 -31.6277 28.4397C-35.0207 21.9598 -36.5813 14.9399 -36.4967 8.10556L49.4967 9.16895C49.691 -6.54361 41.658 -18.5768 32.9357 -25.4336L-20.2143 42.1761ZM-36.4967 8.10556C-36.414 1.41632 -34.7528 -5.36774 -31.4039 -11.5922C-28.1488 -17.6424 -23.9532 -21.9653 -20.2182 -24.9016L32.9319 42.7081C41.4302 36.0274 49.308 24.4263 49.4967 9.16895L-36.4967 8.10556ZM-20.0698 -25.0177C-11.812 -31.451 -2.35942 -33.9862 6.01627 -33.9862L6.01627 52.0138C14.6569 52.0138 24.3366 49.4049 32.7835 42.8243L-20.0698 -25.0177ZM6.01627 -33.9862C14.425 -33.9862 23.9086 -31.4312 32.1778 -24.9598L-20.8239 42.7663C-12.3664 49.3851 -2.65657 52.0138 6.01627 52.0138L6.01627 -33.9862ZM32.1886 -24.9513L27.3087 -28.7728L-25.7145 38.9365L-20.8346 42.7579L32.1886 -24.9513ZM27.3657 -28.728C31.4356 -25.5298 36.0098 -20.6993 39.3081 -13.8544L-38.1663 23.4781C-34.7725 30.521 -30.0475 35.5315 -25.7715 38.8918L27.3657 -28.728ZM39.4213 -13.6177C41.8015 -8.60001 43.5 -2.4368 43.5 4.5133L-42.5 4.5133C-42.5 11.6621 -40.7543 18.0243 -38.2795 23.2413L39.4213 -13.6177ZM43.5 4.5133C43.5 11.4673 41.7995 17.6483 39.3974 22.6952L-38.2555 -14.2647C-40.7522 -9.01903 -42.5 -2.63935 -42.5 4.5133L43.5 4.5133ZM39.3326 22.8306C36.0302 29.707 31.4297 34.5749 27.298 37.8083L-25.7037 -29.9178C-30.0416 -26.523 -34.793 -21.4751 -38.1908 -14.4001L39.3326 22.8306ZM27.3023 37.8049L32.1853 33.9825L-20.825 -33.7369L-25.708 -29.9144L27.3023 37.8049ZM32.1068 34.0438C23.8257 40.4953 14.2718 43.078 5.69106 43.0126L6.34659 -42.9849C-2.49657 -43.0523 -12.2762 -40.397 -20.7464 -33.7982L32.1068 34.0438ZM5.69 43.0126C-2.72601 42.9482 -12.0498 40.3238 -20.1446 33.9889L32.857 -33.7372C24.5739 -40.2195 15.0252 -42.9186 6.34766 -42.9849L5.69 43.0126ZM-20.1446 33.9889C-23.9508 31.0102 -28.2314 26.6013 -31.5186 20.4085C-34.901 14.0365 -36.5026 7.13106 -36.5026 0.391855L49.4974 0.391855C49.4974 -15.065 41.5654 -26.9222 32.857 -33.7372L-20.1446 33.9889ZM-36.5026 0.391855C-36.5026 -6.33774 -34.9057 -13.2271 -31.5406 -19.5834C-28.2699 -25.7614 -24.01 -30.1666 -20.2185 -33.1472L32.9322 34.462C41.5998 27.648 49.4974 15.8139 49.4974 0.391855L-36.5026 0.391855ZM-20.144 -33.2057L-25.0711 -29.3497L27.9305 38.3763L32.8577 34.5204L-20.144 -33.2057Z" fill="black" mask="url(#path-1-inside-1_2517_371)"/>
</svg>
