<svg width="120" height="121" viewBox="0 0 120 121" fill="none" xmlns="http://www.w3.org/2000/svg">
<path d="M118.125 98C118.125 92.8306 113.919 88.625 108.75 88.625C103.581 88.625 99.375 92.8306 99.375 98C99.375 102.526 102.602 106.314 106.875 107.186V114.875H98.4075C92.6456 107.937 87.6656 100.376 83.5181 92.375H86.25C87.285 92.375 88.125 91.5369 88.125 90.5V83C88.125 81.9631 87.285 81.125 86.25 81.125H78.3431C77.3606 78.6612 76.4625 76.1525 75.6356 73.625H78.75C79.785 73.625 80.625 72.7869 80.625 71.75V64.25C80.625 63.2131 79.785 62.375 78.75 62.375H72.5044C70.4362 53.2569 69.375 43.9062 69.375 34.55V26.75V19.25C69.375 18.2131 68.535 17.375 67.5 17.375H65.625V11.75C65.625 10.7131 64.785 9.875 63.75 9.875H61.875V2.375H58.125V9.875H56.25C55.215 9.875 54.375 10.7131 54.375 11.75V17.375H52.5C51.465 17.375 50.625 18.2131 50.625 19.25V26.75V34.55C50.625 43.9062 49.5637 53.2569 47.4956 62.375H41.25C40.215 62.375 39.375 63.2131 39.375 64.25V71.75C39.375 72.7869 40.215 73.625 41.25 73.625H44.3644C43.5375 76.1525 42.6394 78.6594 41.6569 81.125H33.75C32.715 81.125 31.875 81.9631 31.875 83V90.5C31.875 91.5369 32.715 92.375 33.75 92.375H36.5288C32.3813 100.381 27.375 107.934 21.6094 114.875H13.125V107.186C17.3981 106.314 20.625 102.528 20.625 98C20.625 92.8306 16.4194 88.625 11.25 88.625C6.08063 88.625 1.875 92.8306 1.875 98C1.875 102.526 5.10187 106.314 9.375 107.186V114.875H1.875V118.625H118.125V114.875H110.625V107.186C114.898 106.314 118.125 102.526 118.125 98ZM5.625 98C5.625 94.8987 8.14875 92.375 11.25 92.375C14.3513 92.375 16.875 94.8987 16.875 98C16.875 100.441 15.3019 102.504 13.125 103.28V96.125H9.375V103.28C7.19812 102.504 5.625 100.441 5.625 98ZM74.3287 81.125H68.8519L66.3525 73.625H71.6888C72.4875 76.1487 73.3744 78.65 74.3287 81.125ZM62.3981 73.625L64.8975 81.125H55.1006L57.6 73.625H62.3981ZM65.6644 37.2631L62.6513 34.25L65.625 31.2762V34.55C65.625 35.4556 65.6456 36.3594 65.6644 37.2631ZM60 31.5988L57.0262 28.625H62.9737L60 31.5988ZM54.375 31.2762L57.3488 34.25L54.3356 37.2631C54.3544 36.3594 54.375 35.4556 54.375 34.55V31.2762ZM53.8838 45.785L57.3488 49.25L52.9575 53.6412C53.3456 51.0331 53.655 48.4119 53.8838 45.785ZM55.1512 41.75L60 36.9012L64.8487 41.75L60 46.5988L55.1512 41.75ZM66.1163 45.785C66.345 48.4119 66.6544 51.0331 67.0425 53.6412L62.6513 49.25L66.1163 45.785ZM58.125 13.625H61.875V17.375H58.125V13.625ZM54.375 21.125H65.625V24.875H54.375V21.125ZM51.8231 60.0781L60 51.9012L68.1769 60.0781C68.3306 60.845 68.4956 61.61 68.6625 62.375H51.3375C51.5044 61.61 51.6694 60.845 51.8231 60.0781ZM43.125 66.125H76.875V69.875H43.125V66.125ZM48.3113 73.625H53.6475L51.1481 81.125H45.6712C46.6256 78.65 47.5125 76.1487 48.3113 73.625ZM35.625 84.875H84.375V88.625H35.625V84.875ZM40.7325 92.375H79.2637C83.2387 100.338 88.0294 107.891 93.5513 114.875H76.875V113C76.875 103.694 69.3037 96.125 60 96.125C50.6963 96.125 43.125 103.694 43.125 113V114.875H26.4506C31.9725 107.891 36.7575 100.338 40.7325 92.375ZM73.125 114.875H46.875V113C46.875 105.764 52.7625 99.875 60 99.875C67.2375 99.875 73.125 105.764 73.125 113V114.875ZM103.125 98C103.125 94.8987 105.649 92.375 108.75 92.375C111.851 92.375 114.375 94.8987 114.375 98C114.375 100.441 112.802 102.504 110.625 103.28V96.125H106.875V103.28C104.698 102.504 103.125 100.441 103.125 98Z" fill="#181A20"/>
<path d="M9.375 62.375C10.89 62.375 12.3337 61.9288 13.56 61.0963C16.7625 62.7744 20.7356 62.7744 23.9381 61.0963C25.1663 61.9288 26.61 62.375 28.125 62.375C32.2613 62.375 35.625 59.0113 35.625 54.875C35.625 51.17 32.9269 48.0875 29.3944 47.4838C27.8588 42.9988 23.5931 39.875 18.75 39.875C13.9069 39.875 9.64125 42.9988 8.10562 47.4838C4.57313 48.0875 1.875 51.17 1.875 54.875C1.875 59.0113 5.23875 62.375 9.375 62.375ZM9.21188 51.1156C9.28125 51.125 9.43688 51.14 9.50813 51.1438C10.3988 51.1531 11.22 50.5344 11.4 49.6381C12.1012 46.1544 15.1912 43.625 18.75 43.625C22.3088 43.625 25.3988 46.1544 26.1 49.6381C26.2763 50.5156 27.0469 51.1438 27.9375 51.1438C27.9994 51.1438 28.0931 51.1381 28.2 51.125C30.2325 51.1644 31.875 52.8312 31.875 54.875C31.875 56.9431 30.1931 58.625 28.125 58.625C27.1125 58.625 26.1619 58.2219 25.4456 57.4925C25.0819 57.1212 24.5962 56.9281 24.105 56.9281C23.7319 56.9281 23.3569 57.0406 23.0325 57.2675C20.4919 59.0431 17.0081 59.0431 14.4675 57.2675C13.7156 56.7425 12.6956 56.8381 12.0544 57.4925C11.3381 58.2219 10.3875 58.625 9.375 58.625C7.30687 58.625 5.625 56.9431 5.625 54.875C5.625 52.8069 7.30688 51.125 9.21188 51.1156Z" fill="#181A20"/>
<path d="M91.875 62.375C93.39 62.375 94.8337 61.9288 96.06 61.0963C99.2625 62.7744 103.236 62.7744 106.438 61.0963C107.666 61.9288 109.11 62.375 110.625 62.375C114.761 62.375 118.125 59.0113 118.125 54.875C118.125 51.17 115.427 48.0875 111.894 47.4838C110.359 42.9988 106.093 39.875 101.25 39.875C96.4069 39.875 92.1413 42.9988 90.6056 47.4838C87.0731 48.0875 84.375 51.17 84.375 54.875C84.375 59.0113 87.7387 62.375 91.875 62.375ZM91.7119 51.1156C91.7812 51.125 91.9387 51.14 92.0081 51.1438C92.9081 51.1531 93.72 50.5344 93.9 49.6381C94.6013 46.1544 97.6912 43.625 101.25 43.625C104.809 43.625 107.899 46.1544 108.6 49.6381C108.776 50.5156 109.547 51.1438 110.438 51.1438C110.501 51.1438 110.593 51.1381 110.7 51.125C112.733 51.1644 114.375 52.8312 114.375 54.875C114.375 56.9431 112.693 58.625 110.625 58.625C109.612 58.625 108.662 58.2219 107.946 57.4925C107.582 57.1212 107.096 56.9281 106.605 56.9281C106.232 56.9281 105.857 57.0406 105.533 57.2675C102.992 59.0431 99.5081 59.0431 96.9675 57.2675C96.2156 56.7425 95.1938 56.8381 94.5544 57.4925C93.8381 58.2219 92.8875 58.625 91.875 58.625C89.8069 58.625 88.125 56.9431 88.125 54.875C88.125 52.8069 89.8069 51.125 91.7119 51.1156Z" fill="#181A20"/>
</svg>
