<svg width="15" height="16" viewBox="0 0 15 16" fill="none" xmlns="http://www.w3.org/2000/svg">
<path d="M5.81158 4.63271L4.21807 6.2541C5.04777 8.09671 6.80799 10.1491 8.85027 10.8381L10.2283 9.46394C10.2283 9.46394 13.4951 10.0338 14.2291 10.3919C14.8662 10.7 15.076 11.3839 14.9765 12.2282C14.8687 13.1358 13.6809 15.1357 11.5391 15.1578C9.39792 15.1794 6.24449 13.5662 3.98544 11.1855C1.72639 8.80601 -0.287988 5.78822 0.0339994 3.2262C0.356641 0.663503 2.58843 0.20588 3.14687 0.164685C3.71163 0.123475 4.15977 0.28891 4.50015 0.710433C4.93812 1.25364 5.81158 4.63271 5.81158 4.63271ZM4.00193 1.24033C3.73634 0.892982 3.27996 0.834658 2.82359 0.942423C2.41793 1.0375 0.94042 1.65043 0.731248 3.29211C0.499258 5.11761 1.86078 8.20701 4.30364 10.5706C6.74715 12.9343 9.10128 14.3136 11.1245 14.479C13.1478 14.6444 14.1347 12.8627 14.2792 12.3271C14.4231 11.7921 14.3039 11.252 14.013 11.0365C13.6428 10.7621 10.4603 10.1929 10.4603 10.1929L9.01634 11.6159C6.64192 10.8432 4.40632 8.68113 3.45491 6.0386L5.03194 4.45016C5.0313 4.45016 4.26815 1.58705 4.00193 1.24033Z" fill="#181A20"/>
</svg>
