<svg width="18" height="36" viewBox="0 0 18 36" fill="none" xmlns="http://www.w3.org/2000/svg">
<path d="M15.4657 8.98985C15.4657 7.06978 14.8281 5.52633 13.5529 4.3595C12.2791 3.19266 10.602 2.60925 8.52168 2.60925C7.17759 2.60925 6.00506 2.8763 5.00408 3.41042C4.00311 3.94316 3.13721 4.76488 2.40641 5.87556C2.17811 6.19055 1.88566 6.38776 1.52903 6.46719C1.17106 6.54663 0.84956 6.4761 0.564532 6.2556C0.325433 6.07346 0.180217 5.83516 0.128885 5.54071C0.0789036 5.24489 0.135639 4.96414 0.299091 4.69845C1.27575 3.1865 2.44423 2.06281 3.80453 1.32737C5.16348 0.59057 6.73586 0.222168 8.52168 0.222168C11.2774 0.222168 13.5272 1.03224 15.2712 2.65239C17.0165 4.27253 17.8891 6.36927 17.8891 8.94261C17.8891 10.3779 17.5811 11.7179 16.9651 12.9628C16.3491 14.2091 15.388 15.4211 14.0818 16.5989C12.4945 18.0068 11.403 19.1894 10.8073 20.1467C10.2129 21.1053 9.90022 22.1701 9.86915 23.3411C9.83808 23.6889 9.70637 23.9786 9.47402 24.21C9.24168 24.4429 8.958 24.5593 8.62299 24.5593C8.28799 24.5593 8.00431 24.4388 7.77196 24.1977C7.53827 23.9567 7.42142 23.6657 7.42142 23.3247C7.42142 21.9113 7.7544 20.6219 8.42037 19.4564C9.08498 18.291 10.1967 17.0125 11.7556 15.6211C13.1402 14.3967 14.1047 13.2799 14.6491 12.2705C15.1935 11.2598 15.4657 10.1663 15.4657 8.98985ZM8.52168 35.7777C7.97864 35.7777 7.50517 35.573 7.10127 35.1635C6.69601 34.7526 6.49339 34.2726 6.49339 33.7234C6.49339 33.1743 6.69601 32.6942 7.10127 32.2834C7.50517 31.8739 7.97796 31.6692 8.51965 31.6692C9.06134 31.6692 9.53549 31.8739 9.94209 32.2834C10.346 32.6942 10.5479 33.1743 10.5479 33.7234C10.5479 34.2726 10.3453 34.7526 9.94007 35.1635C9.53751 35.573 9.06472 35.7777 8.52168 35.7777Z" fill="black"/>
</svg>
