<svg width="60" height="44" viewBox="0 0 60 44" fill="none" xmlns="http://www.w3.org/2000/svg">
<path d="M0 16.3273C0 7.44782 7.19196 0.255859 16.0714 0.255859H17.1429C19.5134 0.255859 21.4286 2.17104 21.4286 4.54157C21.4286 6.91211 19.5134 8.82729 17.1429 8.82729H16.0714C11.933 8.82729 8.57143 12.1889 8.57143 16.3273V17.3987H17.1429C21.8705 17.3987 25.7143 21.2425 25.7143 25.9701V34.5416C25.7143 39.2693 21.8705 43.113 17.1429 43.113H8.57143C3.84375 43.113 0 39.2693 0 34.5416V25.9701V16.3273ZM34.2857 16.3273C34.2857 7.44782 41.4777 0.255859 50.3571 0.255859H51.4286C53.7991 0.255859 55.7143 2.17104 55.7143 4.54157C55.7143 6.91211 53.7991 8.82729 51.4286 8.82729H50.3571C46.2187 8.82729 42.8571 12.1889 42.8571 16.3273V17.3987H51.4286C56.1562 17.3987 60 21.2425 60 25.9701V34.5416C60 39.2693 56.1562 43.113 51.4286 43.113H42.8571C38.1295 43.113 34.2857 39.2693 34.2857 34.5416V25.9701V16.3273Z" fill="white"/>
</svg>
