<svg width="1012" height="512" viewBox="0 0 1012 512" fill="none" xmlns="http://www.w3.org/2000/svg">
<path d="M486.236 495.542C486.236 504.621 387.059 511.978 264.716 511.978C142.373 511.978 43.1953 504.621 43.1953 495.542C43.1953 486.466 142.373 479.108 264.716 479.108C387.059 479.108 486.236 486.466 486.236 495.542Z" fill="#E5E3E1"/>
<path d="M304.812 234.274H546.121V217.89H304.812V234.274Z" fill="#BAB4A8"/>
<path d="M304.812 217.889L355.643 144H572.499L546.121 217.889H304.812Z" fill="#E2582D"/>
<path d="M311.625 401.352H546.118V234.273H311.625V401.352Z" fill="#E5E3E1"/>
<path d="M457.108 243.729H444.609C444.629 243.562 444.65 243.395 444.671 243.227C445.076 240.008 445.413 236.963 445.633 234.273H463.289H457.108V243.729Z" fill="#CECAC2"/>
<path d="M475.993 401.352H457.105V282.915H475.993V401.352ZM457.105 266.294V243.729H463.286V246.743L466.355 243.729H475.993V255.166L457.105 266.294Z" fill="#CECAC2"/>
<path d="M475.993 243.729H466.355L475.993 234.273V243.729ZM463.286 243.729H457.105V234.273H463.286V243.729Z" fill="#C3BEB4"/>
<path d="M922.151 352.451C922.151 352.451 925.848 330.227 934.955 326.503C944.063 322.78 943.323 319.453 945.074 308.165C946.826 296.878 962.164 303.112 967.689 293.372C973.213 283.633 978.631 277.82 983.157 289.073C987.684 300.328 980.935 311.483 973.982 314.256C967.03 317.031 976.45 329.088 970.825 336.242C965.199 343.398 958.1 345.506 960.166 354.818C962.235 364.129 962.436 369.298 958.915 374.209C955.394 379.121 949.523 384.632 949.523 384.632L909.838 378.475C909.838 378.475 904.335 363.815 912.172 363.425C920.009 363.036 922.751 363.141 922.151 352.451Z" fill="#678742"/>
<path d="M926.246 381.021C926.246 381.021 940.038 360.043 953.086 334.134C966.135 308.222 966.135 308.222 966.135 308.222C966.135 308.222 942.984 366.922 926.246 381.021Z" fill="#37664A"/>
<path d="M970.452 409.771C970.452 409.771 970.642 396.229 977.125 393.177C983.608 390.125 982.655 388.218 982.655 381.353C982.655 374.486 995.049 376.775 998.1 370.48C1001.15 364.186 1004.58 360.233 1009.35 366.502C1014.11 372.77 1010.3 380.017 1005.34 382.306C1000.39 384.596 1008.96 390.888 1005.53 395.656C1002.1 400.425 996.957 402.333 999.626 407.673C1002.29 413.014 1003.05 416.064 1000.96 419.306C998.863 422.548 995.049 426.364 995.049 426.364H964.158C964.158 426.364 958.248 418.163 964.158 417.209C970.069 416.256 972.167 416.064 970.452 409.771Z" fill="#37664A"/>
<path d="M976.938 426.364C976.938 426.364 984.947 412.631 991.81 396.039C998.676 379.444 998.676 379.444 998.676 379.444C998.676 379.444 987.995 416.446 976.938 426.364Z" fill="#37664A"/>
<path d="M933.405 399.467C933.405 399.467 933.712 377.517 944.222 372.57C954.731 367.623 953.184 364.532 953.184 353.402C953.184 342.273 973.276 345.983 978.222 335.781C983.168 325.578 988.73 319.171 996.457 329.331C1004.18 339.491 998.003 351.239 989.967 354.949C981.931 358.659 995.838 368.86 990.276 376.589C984.712 384.318 976.366 387.409 980.693 396.066C985.021 404.723 986.258 409.671 982.858 414.925C979.459 420.181 973.275 426.364 973.275 426.364H923.204C923.204 426.364 913.623 413.071 923.204 411.524C932.786 409.978 936.186 409.671 933.405 399.467Z" fill="#99B746"/>
<path d="M943.914 426.364C943.914 426.364 956.895 404.105 968.024 377.208C979.151 350.311 979.151 350.311 979.151 350.311C979.151 350.311 961.841 410.287 943.914 426.364Z" fill="#678742"/>
<path d="M463.288 426.364C463.288 426.364 435.183 416.891 436.207 408.607C437.057 401.747 448.452 405.033 448.452 405.033C448.452 405.033 429.385 392.737 439.277 383.326C445.939 376.99 454.942 390.81 454.942 390.81C454.942 390.81 451.252 377.886 457.432 377.577C463.616 377.27 465.451 394.829 465.451 394.829C465.451 394.829 468.853 372.57 477.814 376.899C486.779 381.227 482.451 424.819 482.451 424.819L463.288 426.364Z" fill="#678742"/>
<path d="M685.414 418.153H938.864V240.509H685.414V418.153Z" fill="#BAB4A8"/>
<path d="M475.992 234.274V418.153H685.414V234.274L578.677 129.572L475.992 234.274Z" fill="#E5E3E1"/>
<path d="M954.536 234.267H690.156L675.072 218.733L651.879 194.866L633.186 175.625L621.488 163.581L608.879 150.595L596.861 138.229L588.454 129.572L576.734 117.503H842.028L853.649 129.572L862.007 138.229L873.926 150.595L886.437 163.581L898.033 175.625L916.58 194.866L939.576 218.733L954.536 234.267Z" fill="#E2582D"/>
<path d="M463.285 233.758V246.744L577.337 134.828L690.154 246.744V233.139L576.719 117.516L463.285 233.758Z" fill="#F98D43"/>
<path d="M690.156 246.743H954.526V234.273H690.156V246.743Z" fill="#E2582D"/>
<path d="M439.383 276.731L476.475 254.885H620.301L586.096 276.731H439.383Z" fill="#F98D43"/>
<path d="M620.301 254.885V262.717L586.921 282.916H439.383V276.731H586.096L620.301 254.885Z" fill="#E2582D"/>
<path d="M938.864 254.885H685.414V242.041L690.154 246.743H938.864V254.885Z" fill="#89857C"/>
<path d="M685.414 254.885L576.718 146.473L475.992 246.743V234.274L577.337 134.828L685.414 242.041V254.885Z" fill="#A09D9A"/>
<path d="M912.905 394.213H839.961V271.374H912.905V394.213Z" fill="#E5E3E1"/>
<path d="M876.42 276.738V388.851H844.895V276.738H876.42Z" fill="#75726D"/>
<path d="M907.945 276.738V388.851H879.93V276.738H907.945Z" fill="#75726D"/>
<path d="M668.106 388.853H629.367V271.374H668.106V388.853Z" fill="white"/>
<path d="M663.572 276.738V383.484H633.898V276.738H663.572Z" fill="#75726D"/>
<path d="M620.3 262.717V418.153H475.992V282.916H586.92L620.3 262.717Z" fill="#BAB4A8"/>
<path d="M572.495 418.153H508.203V293.22H572.495V418.153Z" fill="#54514C"/>
<path d="M519.056 353.754C519.056 355.688 517.805 357.258 516.258 357.258C514.714 357.258 513.461 355.688 513.461 353.754C513.461 351.818 514.714 350.251 516.258 350.251C517.805 350.251 519.056 351.818 519.056 353.754Z" fill="#BAB4A8"/>
<path d="M862.006 138.228H596.861L588.453 129.571H853.649L862.006 138.228Z" fill="#EA7A2F"/>
<path d="M886.436 163.581H621.488L608.879 150.595H873.926L886.436 163.581Z" fill="#EA7A2F"/>
<path d="M916.582 194.866H651.882L633.188 175.625H898.035L916.582 194.866Z" fill="#EA7A2F"/>
<path d="M954.533 234.267H690.153L675.07 218.733H939.573L954.533 234.267Z" fill="#EA7A2F"/>
<path d="M954.525 426.364H463.285V418.153H954.525V426.364Z" fill="#A89F91"/>
<path d="M844.895 331.173L876.42 362.708V375.395L844.895 343.861V331.173Z" fill="#54514C"/>
<path d="M902.555 388.851H889.87L879.93 378.908V366.221L902.555 388.851Z" fill="#54514C"/>
<path d="M907.947 299.391L885.297 276.738H907.947V299.391Z" fill="#54514C"/>
<path d="M856.565 276.738L876.42 296.598V326.822L844.895 295.287V276.738H856.565Z" fill="#54514C"/>
<path d="M907.945 328.155V358.379L879.93 330.332V300.111L907.945 328.155Z" fill="#54514C"/>
<path d="M802.109 394.213H729.164V271.374H802.109V394.213Z" fill="#E5E3E1"/>
<path d="M765.623 276.738V388.851H734.098V276.738H765.623Z" fill="#75726D"/>
<path d="M797.148 276.738V388.851H769.133V276.738H797.148Z" fill="#75726D"/>
<path d="M734.098 331.173L765.623 362.708V375.395L734.098 343.861V331.173Z" fill="#54514C"/>
<path d="M791.758 388.851H779.073L769.133 378.908V366.221L791.758 388.851Z" fill="#54514C"/>
<path d="M797.15 299.391L774.5 276.738H797.15V299.391Z" fill="#54514C"/>
<path d="M745.768 276.738L765.623 296.598V326.822L734.098 295.287V276.738H745.768Z" fill="#54514C"/>
<path d="M797.148 328.155V358.379L769.133 330.332V300.111L797.148 328.155Z" fill="#54514C"/>
<path d="M663.572 318.857V327.885L633.898 298.23V289.178L663.572 318.857Z" fill="#BAB4A8"/>
<path d="M663.572 362.781V382.247L633.898 352.591V333.103L663.572 362.781Z" fill="#BAB4A8"/>
<path d="M663.574 285.345V302.755L637.586 276.738H654.967L663.574 285.345Z" fill="#BAB4A8"/>
<path d="M116.734 455.572H384.637V88.2295H116.734V455.572Z" fill="#E5E3E1"/>
<path d="M353.633 141.87H143.865C142.438 141.87 141.281 140.712 141.281 139.285C141.281 137.857 142.438 136.7 143.865 136.7H353.633C355.06 136.7 356.219 137.857 356.219 139.285C356.219 140.712 355.06 141.87 353.633 141.87Z" fill="#BAB4A8"/>
<path d="M353.633 188.175H143.865C142.438 188.175 141.281 187.018 141.281 185.59C141.281 184.162 142.438 183.005 143.865 183.005H353.633C355.06 183.005 356.219 184.162 356.219 185.59C356.219 187.018 355.06 188.175 353.633 188.175Z" fill="#BAB4A8"/>
<path d="M268.565 286.493H143.865C142.438 286.493 141.281 285.336 141.281 283.906C141.281 282.481 142.438 281.321 143.865 281.321H268.565C269.992 281.321 271.149 282.481 271.149 283.906C271.149 285.336 269.992 286.493 268.565 286.493Z" fill="#BAB4A8"/>
<path d="M268.565 316.67H143.865C142.438 316.67 141.281 315.513 141.281 314.085C141.281 312.655 142.438 311.5 143.865 311.5H268.565C269.992 311.5 271.149 312.655 271.149 314.085C271.149 315.513 269.992 316.67 268.565 316.67Z" fill="#BAB4A8"/>
<path d="M353.635 225.422H183.502C182.075 225.422 180.918 224.265 180.918 222.837C180.918 221.409 182.075 220.252 183.502 220.252H353.635C355.062 220.252 356.222 221.409 356.222 222.837C356.222 224.265 355.062 225.422 353.635 225.422Z" fill="#BAB4A8"/>
<path d="M353.635 258.977H183.502C182.075 258.977 180.918 257.82 180.918 256.393C180.918 254.965 182.075 253.806 183.502 253.806H353.635C355.062 253.806 356.222 254.965 356.222 256.393C356.222 257.82 355.062 258.977 353.635 258.977Z" fill="#BAB4A8"/>
<path d="M300.087 112.143H199.196C197.932 112.143 196.906 111.116 196.906 109.852V75.6586C196.906 74.3914 197.932 73.3672 199.196 73.3672H300.087C301.352 73.3672 302.378 74.3914 302.378 75.6586V109.852C302.378 111.116 301.352 112.143 300.087 112.143Z" fill="#F98D43"/>
<path d="M327.725 358.448H295.703C295.703 358.448 297.978 354.796 300.588 341.411C303.197 328.004 298.061 309.902 298.061 309.902L311.714 311.822L325.366 309.902C325.366 309.902 320.232 328.004 322.841 341.411C325.451 354.796 327.725 358.448 327.725 358.448Z" fill="#75726D"/>
<path d="M329.29 301.716C329.29 308.913 321.423 314.747 311.719 314.747C302.015 314.747 294.148 308.913 294.148 301.716C294.148 294.519 302.015 288.688 311.719 288.688C321.423 288.688 329.29 294.519 329.29 301.716Z" fill="#54514C"/>
<path d="M335.55 292.672C335.55 302.19 324.881 309.908 311.718 309.908C298.554 309.908 287.883 302.19 287.883 292.672C287.883 283.153 298.554 275.438 311.718 275.438C324.881 275.438 335.55 283.153 335.55 292.672Z" fill="#75726D"/>
<path d="M330.257 360.579V360.6C330.257 361.768 329.297 362.731 328.126 362.731H295.708C294.537 362.731 293.578 361.768 293.578 360.6V360.579C293.578 359.411 294.537 358.448 295.708 358.448H328.126C329.297 358.448 330.257 359.411 330.257 360.579Z" fill="#BAB4A8"/>
<path d="M330.257 364.858V364.879C330.257 366.048 329.297 367.01 328.126 367.01H295.708C294.537 367.01 293.578 366.048 293.578 364.879V364.858C293.578 363.69 294.537 362.73 295.708 362.73H328.126C329.297 362.73 330.257 363.69 330.257 364.858Z" fill="#54514C"/>
<path d="M335.815 391.566H288.016C287.26 391.566 286.536 391.16 286.181 390.494C278.524 376.099 295.706 367.011 295.706 367.011H328.124C328.124 367.011 345.306 376.099 337.65 390.494C337.295 391.16 336.571 391.566 335.815 391.566Z" fill="#75726D"/>
<path d="M337.419 395.867H286.664V391.566H337.419V395.867Z" fill="#54514C"/>
<path d="M358.258 413.261H265.197C263.933 413.261 262.906 412.237 262.906 410.97V398.158C262.906 396.894 263.933 395.867 265.197 395.867H358.258C359.522 395.867 360.549 396.894 360.549 398.158V410.97C360.549 412.237 359.522 413.261 358.258 413.261Z" fill="#75726D"/>
<path d="M91.8707 166.752C91.8707 166.752 89.7365 184.831 101.895 190.01C114.054 195.186 123.432 170.412 123.432 170.412C123.432 170.412 127.3 162.227 120.192 156.088C113.086 149.949 96.5018 150.595 91.8707 166.752Z" fill="#231547"/>
<path d="M101.888 174.937C101.888 174.937 100.81 170.629 98.2258 172.999C95.6412 175.368 96.8261 178.384 99.1949 179.999C101.565 181.614 101.78 181.83 101.888 183.445C101.995 185.061 103.102 198.741 96.088 203.372C89.073 208.005 96.2999 219.205 105.932 217.913C115.563 216.621 123.209 209.728 123.209 209.728C123.209 209.728 119.979 205.528 117.717 202.941C115.456 200.356 115.563 195.152 115.563 195.152C115.563 195.152 119.979 195.079 122.671 187.756C125.363 180.43 123.209 169.014 123.209 169.014C123.209 169.014 120.409 171.06 115.24 169.768C110.072 168.475 106.088 171.706 105.333 172.783C104.58 173.86 103.718 178.384 102.641 177.737C101.565 177.091 101.888 174.937 101.888 174.937Z" fill="#E54863"/>
<path d="M105.43 190.714C105.43 190.714 108.003 196.16 110.748 198.724C112.419 200.285 114.625 200.358 116.161 199.733C115.534 197.437 115.565 195.152 115.565 195.152C115.565 195.152 109.764 195.351 107.597 193.032C105.43 190.714 105.43 190.714 105.43 190.714Z" fill="#AF2845"/>
<path d="M195.098 243.423L202.198 266.539C202.654 268.028 204.315 268.778 205.733 268.136L234.387 255.183C235.654 254.61 236.241 253.139 235.716 251.851L218.605 209.936C218.053 208.584 216.493 207.959 215.16 208.552L187.099 221.073C185.759 221.671 185.186 223.263 185.834 224.578L194.945 243.038L195.098 243.423Z" fill="white"/>
<path d="M158.064 489.694C157.846 492.006 142.822 492.977 141.041 492.856C139.235 492.739 138.674 490.668 137.792 489.957C136.906 489.222 135.897 490.473 135.617 492.453C135.363 494.433 127.807 493.791 125.338 493.562C122.896 493.333 123.192 490.049 122.674 485.244C122.278 481.569 123.472 479.621 124.306 477.71C124.555 477.137 124.777 476.541 124.916 475.902C125.436 473.246 120.177 451.714 120.499 434.934C120.796 418.158 122.626 391.493 122.626 391.493C123.164 383.218 145.133 385.191 145.133 385.191C145.133 385.191 143.179 394.788 143.409 396.921C143.639 399.054 135.399 470.898 135.426 473.572L135.433 473.624C135.593 475.114 155.625 483.457 157.649 485.84C159.699 488.218 158.311 487.404 158.064 489.694Z" fill="#E54863"/>
<path d="M158.066 489.694C157.848 492.006 142.824 492.977 141.043 492.856C139.237 492.739 138.676 490.668 137.794 489.957C136.908 489.222 135.899 490.473 135.619 492.453C135.365 494.433 127.809 493.791 125.34 493.562C122.898 493.333 123.195 490.049 122.676 485.244C122.28 481.569 123.474 479.621 124.308 477.71C125.541 478.306 126.836 478.736 128.137 478.753C133.345 478.842 131.183 474.94 132.86 474.344C133.386 474.156 134.344 473.872 135.428 473.572L135.435 473.624C135.595 475.114 155.627 483.457 157.651 485.84C159.701 488.218 158.313 487.404 158.066 489.694Z" fill="#231547"/>
<path d="M112.597 491.806C112.132 494.082 97.0902 493.436 95.3326 493.124C93.5492 492.815 93.2136 490.696 92.4118 489.894C91.6109 489.066 90.4734 490.202 89.982 492.141C89.5177 494.082 82.0741 492.634 79.6444 492.141C77.2408 491.651 77.8878 488.42 77.8878 483.585C77.8878 479.889 79.2829 478.079 80.3166 476.271C80.627 475.728 80.9117 475.16 81.1184 474.539C81.9193 471.954 78.9993 449.981 81.1184 433.332C83.2116 416.685 87.8891 390.37 87.8891 390.37C89.311 382.201 110.942 386.518 110.942 386.518C110.942 386.518 107.971 395.849 107.971 397.996C107.971 400.141 92.0761 470.687 91.8175 473.349V473.4C91.8175 474.901 110.839 485.343 112.597 487.93C114.379 490.514 113.088 489.556 112.597 491.806Z" fill="#E54863"/>
<path d="M112.597 491.806C112.132 494.082 97.0902 493.436 95.3326 493.124C93.5492 492.815 93.2136 490.696 92.4118 489.894C91.6109 489.066 90.4734 490.202 89.982 492.141C89.5177 494.082 82.0741 492.634 79.6444 492.141C77.2408 491.651 77.8878 488.42 77.8878 483.585C77.8878 479.889 79.2829 478.079 80.3166 476.271C81.4799 476.995 82.7202 477.563 84.0125 477.717C89.1812 478.365 87.4497 474.254 89.1811 473.84C89.7243 473.711 90.7062 473.53 91.8175 473.349V473.4C91.8175 474.901 110.839 485.343 112.597 487.93C114.379 490.514 113.088 489.556 112.597 491.806Z" fill="#231547"/>
<path d="M148.311 389.387C147.976 393.576 140.869 394.868 137.302 396.16C133.762 397.453 123.76 396.832 120.84 394.662C117.919 392.49 116.73 356.093 116.73 356.093C116.73 356.093 112.44 393.264 110.166 393.91C107.917 394.556 89.4901 395.203 85.3028 393.91C81.1167 392.618 82.7185 390.37 82.0466 386.493C81.3744 382.613 77.2391 340.919 77.8602 334.791C78.5323 328.639 81.711 306.667 81.711 306.667C81.711 306.667 104.997 306.976 113.396 306.667C121.769 306.355 136.14 304.934 136.14 304.934C136.14 304.934 147.123 375.505 148.235 387.758C148.311 388.56 148.338 389.128 148.311 389.387Z" fill="#41277A"/>
<path d="M148.315 389.387C147.979 393.576 140.872 394.868 137.305 396.16C133.765 397.453 123.763 396.832 120.843 394.662C117.922 392.49 116.734 356.093 116.734 356.093L119.214 334.455H128.105L122.419 337.686C122.419 337.686 123.737 380.65 128.105 386.156C130.715 389.44 140.666 388.793 148.238 387.758C148.315 388.56 148.341 389.128 148.315 389.387Z" fill="#231547"/>
<path d="M141.517 233.962C141.782 234.363 149.593 253.78 151.424 253.888C153.255 253.996 170.27 248.503 175.976 247.319C181.683 246.134 187.822 245.811 188.899 244.411C189.976 243.011 190.407 240.531 192.991 239.024C195.575 237.516 199.451 236.008 199.559 237.516C199.666 239.024 195.036 243.226 195.036 243.226L197.728 253.457C197.728 253.457 191.16 252.919 190.622 253.242C190.084 253.565 171.992 261.642 163.053 265.522C154.116 269.399 149.055 272.307 144.209 270.691C139.363 269.076 134.733 263.283 131.395 255.948C128.057 248.611 126.333 239.239 130.748 235.577C135.164 231.916 137.748 228.254 141.517 233.962Z" fill="#E54863"/>
<path d="M135.262 241.187C135.262 241.187 135.262 297.618 136.141 304.934C136.993 312.276 120.402 310.337 112.88 310.337C105.334 310.337 84.0122 306.873 81.7123 306.667C80.472 306.563 81.1431 299.403 82.0738 292.423C82.8488 286.349 83.8053 280.402 83.8053 279.316V277.946C83.8053 270.916 83.8053 241.393 83.8053 241.393C83.8053 241.393 79.9289 243.772 78.4038 243.772C78.2751 243.772 78.0682 243.746 77.8357 243.668C75.4321 242.972 68.17 239.042 66.5673 235.784L66.3606 235.371C65.0683 231.7 77.3443 210.58 79.9289 207.789C82.0738 205.436 92.6701 202.514 96.0812 201.609C96.7534 201.428 97.1408 201.325 97.1408 201.325L112.442 207.349L120.402 203.472C120.402 203.472 133.324 208.227 135.055 210.374C136.787 212.519 145.6 233.845 145.6 236.224C145.6 238.602 135.262 241.187 135.262 241.187Z" fill="#99B746"/>
<path d="M101.886 210.912C101.886 210.912 104.698 213.928 105.93 213.174C107.162 212.42 110.177 208.435 110.608 208.22C111.039 208.005 112.546 208.22 112.546 208.22C112.546 208.22 114.485 207.251 114.915 207.251C115.347 207.251 116.315 211.034 117.285 210.273C118.253 209.512 121.592 203.802 121.162 202.833C120.73 201.864 118.146 199.279 117.392 200.033C116.638 200.787 112.546 206.595 112.546 206.595C112.546 206.595 98.1163 199.655 97.5775 199.898C97.0398 200.14 96.0859 201.6 96.0859 201.6C96.0859 201.6 99.6223 209.013 101.886 210.912Z" fill="white"/>
<path d="M83.7969 259.651V241.4C83.8033 241.395 83.8058 241.393 83.8058 241.393C83.8058 241.393 83.8058 250.394 83.8058 259.64C83.8033 259.644 83.8006 259.646 83.7969 259.651Z" fill="#7F9D8B"/>
<path d="M83.8058 259.64C83.8058 250.394 83.8058 241.393 83.8058 241.393C83.8058 241.393 83.8033 241.395 83.7969 241.4V241.393C83.7969 241.393 88.5354 235.146 90.1507 229.223C90.1507 229.223 91.6576 249.133 83.8058 259.64Z" fill="#5A8349"/>
<path d="M135.269 241.178L133.277 225.239L139.907 239.778L135.269 241.178Z" fill="#5A8349"/>
<path d="M258.382 362.037L223.182 359.763L18.29 260.925L10.2002 257.021L7.8225 255.859C3.50669 253.764 1 249.498 1 245.052C1 243.27 1.38762 241.459 2.24029 239.752C5.21226 233.781 12.5261 231.327 18.5487 234.299L21.3907 235.694L28.7564 239.34L231.013 339.083L258.382 362.037Z" fill="#231547"/>
<path d="M28.7593 239.34L18.2929 260.925L10.2031 257.021L21.3936 235.694L28.7593 239.34Z" fill="#FFAF5F"/>
<path d="M10.2044 257.021C10.2044 257.021 2.03786 256.331 7.20656 261.933C12.3755 267.534 18.6092 272.103 45.2605 282.442C71.9127 292.783 78.414 291.763 74.275 287.426C70.1363 283.088 10.2044 257.021 10.2044 257.021Z" fill="#FFAF5F"/>
<path d="M258.382 362.036L223.183 359.763C223.183 359.763 219.073 346.294 231.013 339.083L258.382 362.036Z" fill="#75726D"/>
<path d="M108.075 304.572C108.565 306.02 96.7799 302.789 93.859 301.806C90.9649 300.851 91.6112 298.264 83.8059 293.585C83.2636 293.25 82.6687 292.863 82.0744 292.423C74.2183 286.605 62.9499 272.208 61.9423 271.459C60.856 270.632 59.1502 267.735 58.0139 266.106C56.8765 264.504 55.7391 263.521 56.0756 259.644C56.3081 256.569 63.5441 241.833 66.5679 235.784C68.1706 239.042 75.4327 242.972 77.8363 243.668C76.3375 247.392 72.1503 257.937 71.7368 259.644C71.2454 261.739 72.8742 263.212 77.0604 268.2C78.6631 270.114 81.1436 273.888 83.8059 277.946C88.096 284.486 92.9032 291.855 95.4878 293.741C99.6749 296.818 98.7183 296.637 99.8298 298.91C100.968 301.185 107.583 303.099 108.075 304.572Z" fill="#E54863"/>
<path d="M454.163 477.364C454.163 477.364 455.024 482.799 456.211 484.953C457.397 487.109 457.468 494.408 457.226 495.244C456.985 496.081 446.871 500.489 445.056 498.557C443.242 496.626 442.953 495.356 441.909 496.27C440.862 497.184 440.303 499.735 438.049 499.928C435.797 500.122 420.75 502.258 419.692 499.765C418.633 497.272 418.026 494.408 420.15 492.9C422.273 491.392 435.057 489.948 437.526 486.152C439.996 482.352 439.279 480.927 439.794 480.787C440.31 480.648 452.115 469.772 454.163 477.364Z" fill="#231547"/>
<path d="M400.371 479.055C400.371 479.055 400.694 484.55 401.663 486.811C402.633 489.073 401.987 496.344 401.663 497.15C401.34 497.959 390.841 501.351 389.226 499.252C387.611 497.15 387.45 495.858 386.32 496.667C385.188 497.473 384.381 499.957 382.12 499.928C379.857 499.898 364.676 500.543 363.867 497.959C363.061 495.374 362.737 492.464 364.998 491.172C367.259 489.879 380.122 489.701 382.952 486.165C385.783 482.627 385.208 481.138 385.735 481.051C386.264 480.961 399.079 471.301 400.371 479.055Z" fill="#231547"/>
<path d="M447.203 481.466C443.662 483.432 438.157 481.156 436.246 479.552C434.28 477.925 414.276 402.313 412.65 398.745C411.021 395.203 408.774 369.999 408.774 369.999C408.774 369.999 404.895 384.864 404.561 386.802C404.249 388.741 402.648 478.26 401.974 481.156C401.356 484.05 395.514 484.387 392.93 484.387C390.552 484.387 385.718 482.733 382.953 481.491C382.722 481.362 382.488 481.259 382.282 481.156C379.698 479.864 378.406 377.107 378.406 376.152C378.406 375.169 386.158 297.308 386.158 297.308C386.158 297.308 436.246 282.109 439.863 299.737C443.508 317.342 437.201 386.156 437.769 388.404C438.312 390.679 454.956 467.584 455.629 474.694C456.248 481.802 450.77 479.552 447.203 481.466Z" fill="#41277A"/>
<path d="M395.85 178.223C395.85 178.223 386.966 174.667 389.873 166.913C392.78 159.158 398.757 164.811 398.757 164.811C398.757 164.811 416.752 159.965 422.857 164.488C428.962 169.014 426.215 175.799 426.215 175.799C426.215 175.799 431.223 181.454 428.802 189.854C426.378 198.257 415.556 200.195 415.556 200.195L395.85 178.223Z" fill="#231547"/>
<path d="M395.848 178.223C395.848 178.223 393.953 191.793 397 198.257C400.047 204.719 403.117 204.558 403.117 204.558C403.117 204.558 401.726 215.695 399.19 217.072C396.654 218.451 401.339 228.792 408.123 231.214C414.908 233.639 421.854 230.976 423.953 224.956C426.053 218.937 424.922 217.072 424.922 217.072C424.922 217.072 420.184 216.082 419.27 212.636C418.354 209.189 417.169 198.903 417.169 198.903C417.169 198.903 423.373 193.408 422.855 189.371C422.337 185.331 420.562 187.109 419.753 188.078C418.947 189.048 417.653 190.986 416.684 190.177C415.715 189.371 416.2 188.239 416.2 185.817C416.2 183.392 415.069 180.645 412.97 179.192C410.869 177.737 398.592 180.808 395.848 178.223Z" fill="#FFB2A8"/>
<path d="M444.667 243.228C442.678 259.076 439.008 279.238 439.136 282.755C439.343 288.365 441.514 298.472 439.136 301.288C437.276 303.461 416.264 307.597 402.954 307.7C399.181 307.725 396.029 307.416 394.116 306.666C385.509 303.227 384.217 302.996 384.217 299.556C384.217 298.548 384.398 295.086 384.632 290.716C384.966 284.357 385.459 276.085 385.821 270.632V270.604C385.896 269.234 385.974 268.047 386.027 267.114C386.13 265.693 386.155 264.866 386.155 264.866L379.901 275.439L363.102 264.866C363.102 264.866 364.628 261.273 366.875 256.076C372.536 242.894 382.875 219.343 384.863 217.482C387.656 214.897 400.576 210.374 400.576 210.374L409.208 222.005L418.461 210.374C418.461 210.374 442.213 218.696 445.313 223.893C446.451 225.832 445.856 233.767 444.667 243.228Z" fill="#FC4254"/>
<path d="M402.956 307.699L403.602 298.909L384.633 290.715C384.968 284.356 385.46 276.084 385.822 270.63V270.603L399.932 266.598L414.793 271.146C414.793 271.146 428.362 263.573 430.378 260.988C432.394 258.403 431.773 243.539 431.773 243.539C431.809 240.654 433.074 239.44 435.184 239.44C437.498 239.44 440.829 240.901 444.668 243.227C444.648 243.395 444.627 243.562 444.606 243.729C443.158 255.108 440.886 268.573 439.782 276.496C439.77 276.574 439.759 276.652 439.75 276.73C439.605 277.775 439.482 278.719 439.383 279.544C439.225 280.887 439.136 281.916 439.136 282.553C439.136 282.624 439.136 282.693 439.138 282.754C439.273 286.414 440.244 291.987 440.242 296.2C440.242 298.448 439.965 300.309 439.138 301.287C437.278 303.46 416.266 307.596 402.956 307.699Z" fill="#CA2043"/>
<path d="M379.901 275.439L363.102 264.866C363.102 264.866 364.628 261.274 366.875 256.077C371.514 256.853 379.127 258.036 382.109 258.036C382.9 258.036 383.365 257.951 383.365 257.756C383.365 256.464 384.423 238.368 384.423 238.368L386.155 264.866L379.901 275.439Z" fill="#CA2043"/>
<path d="M286.76 233.055L303.518 250.701C303.761 250.955 304.054 251.159 304.38 251.297L406.89 294.971C407.875 295.388 408.496 296.353 408.461 297.423C408.299 302.116 408.516 315.184 415.233 322.716C422.154 330.474 441.821 335.566 448.142 337.039C449.306 337.31 450.49 336.748 451.028 335.681L476.217 285.588C476.812 284.401 476.425 282.966 475.307 282.251C469.005 278.23 449.035 265.884 439.139 264.445C429.826 263.088 422.509 271.321 419.808 274.903C419.103 275.838 417.85 276.161 416.768 275.712L403.728 270.276C403.362 270.123 402.968 270.059 402.572 270.082L387.39 271.035C386.377 271.099 385.422 270.565 384.946 269.669L381.007 262.25C380.595 261.471 379.809 260.955 378.93 260.886L365.093 259.793C364.38 259.736 363.723 259.388 363.276 258.826L353.822 246.959C353.301 246.306 352.495 245.944 351.661 245.99L338.495 246.702C337.6 246.75 336.743 246.331 336.232 245.593L330.535 237.381C330.033 236.659 329.201 236.242 328.324 236.272L318.047 236.62C317.389 236.643 316.75 236.414 316.255 235.981L305.676 226.696C305.09 226.183 304.302 225.96 303.534 226.093L288.197 228.726C286.16 229.077 285.338 231.556 286.76 233.055Z" fill="#FFAF5F"/>
<path d="M440.644 324.223C440.644 324.223 439.567 333.377 439.567 334.67C439.567 335.962 438.167 337.255 436.552 337.47C434.937 337.685 423.414 334.347 422.983 330.848C422.552 327.346 424.491 327.562 425.998 326.485C427.505 325.408 431.783 322.715 431.783 322.715L440.644 324.223Z" fill="#ED827A"/>
<path d="M433 314.421C433 314.421 429.387 321.854 430.386 323.146C431.385 324.439 441.29 328.962 442.367 327.347C443.444 325.731 445.597 320.885 445.274 319.482C444.951 318.082 434.615 312.697 433 314.421Z" fill="white"/>
<path d="M441.4 220.252C441.4 220.252 422.771 222.651 433.971 246.349C445.169 270.045 446.676 274.137 446.245 276.291C445.815 278.445 429.664 313.99 431.387 316.144C433.109 318.298 445.297 323.685 446.31 321.531C447.322 319.375 462.614 284.479 464.552 277.799C466.49 271.122 448.186 221.082 441.4 220.252Z" fill="#FC4254"/>
<path d="M377.284 282.357C377.284 282.357 369.199 292.448 364.837 290.187C360.475 287.925 312.665 263.368 312.502 260.458C312.342 257.55 314.099 255.437 314.099 255.437L377.284 282.357Z" fill="#FC4254"/>
<path d="M312.488 259.328C312.488 259.328 310.236 259.488 309.43 257.873C308.621 256.257 309.43 253.45 309.43 253.45L314.094 255.437L312.488 259.328Z" fill="white"/>
<path d="M309.076 256.39C309.076 256.39 298.774 252.218 297.482 248.503C296.189 244.787 299.097 241.556 301.681 242.039C304.267 242.525 306.851 244.949 307.497 246.725C308.143 248.503 309.435 253.45 309.435 253.45L309.076 256.39Z" fill="#ED827A"/>
<path d="M397 211.688C397 211.688 399.186 215.542 400.155 218.342C401.124 221.143 401.447 224.591 402.416 223.945C403.385 223.296 409.208 222.004 409.208 222.004C409.208 222.004 412.324 225.991 413.508 224.699C414.693 223.404 423.332 213.173 422.835 211.988C422.337 210.804 418.892 209.188 418.354 209.188C417.815 209.188 408.878 220.251 408.878 220.251C408.878 220.251 402.631 210.696 401.555 209.834C400.478 208.973 397.076 210.526 397 211.688Z" fill="white"/>
<path d="M403.121 204.558C403.121 204.558 409.581 203.749 411.519 201.002C411.519 201.002 410.55 208.163 402.344 209.189L403.121 204.558Z" fill="#ED827A"/>
<path d="M408.772 369.999C408.772 369.999 404.896 384.864 404.561 386.802C404.25 388.741 402.648 478.26 401.975 481.156C401.356 484.05 395.514 484.387 392.93 484.387C390.552 484.387 385.721 482.733 382.953 481.493C388.795 480.613 394.894 479.449 394.894 478.26C394.894 475.987 398.772 389.078 399.391 385.2C400.064 381.321 404.508 369.016 404.508 369.016V334.455L408.772 369.999Z" fill="#231547"/>
<path d="M707.828 82.1365H819.973C831.096 51.7225 799.995 57.49 790.109 65.3198C789.285 26.1754 756.949 37.5065 737.176 61.6122C726.672 52.9575 714.524 66.1951 707.828 82.1365Z" fill="#F2F1F0"/>
<path d="M399.898 107.533H546.123C562.514 85.1932 528.68 84.6387 513.466 92.7549C519.803 68.3398 489.921 55.7966 464.698 78.5298C460.242 65.5947 432.669 74.0569 430.213 92.7549C421.883 83.2317 399.898 107.533 399.898 107.533Z" fill="#F2F1F0"/>
<path d="M580.203 26.1112H656.446C673.427 -0.276901 631.368 -9.68551 612.296 16.7048C612.296 6.51487 587.818 13.309 580.203 26.1112Z" fill="#F2F1F0"/>
<path d="M559.77 459.708H604.701C597.909 442.901 573.875 440.719 559.77 459.708Z" fill="#E5E3E1"/>
<path d="M888.398 487.407H930.979C938.032 470.859 899.369 467.896 888.398 487.407Z" fill="#E5E3E1"/>
<path d="M819.953 461.191H839.957C834.322 451.262 823.61 450.74 819.953 461.191Z" fill="#E5E3E1"/>
</svg>
