<svg width="20" height="19" viewBox="0 0 20 19" fill="none" xmlns="http://www.w3.org/2000/svg">
<path d="M12.5 2.5H2.77778C2.30628 2.5 1.8541 2.6873 1.5207 3.0207C1.1873 3.3541 1 3.80628 1 4.27778V18.5L4.55556 14.9444H15.2222C15.6937 14.9444 16.1459 14.7571 16.4793 14.4237C16.8127 14.0903 17 13.6382 17 13.1667V6.5M9.88889 6.94444H4.55556M13.4444 10.5H4.55556" stroke="black" stroke-linecap="round" stroke-linejoin="round"/>
<path d="M16.41 0.5L17.2656 1.86165L18.82 2.25328L17.7897 3.48238L17.9043 5.08502L16.41 4.48252L14.9218 5.08502L15.0363 3.48238L14 2.25328L15.5605 1.86165L16.41 0.5Z" stroke="black" stroke-linecap="round" stroke-linejoin="round"/>
</svg>
