<svg width="22" height="17" viewBox="0 0 22 17" fill="none" xmlns="http://www.w3.org/2000/svg">
<path d="M9.00039 8.50005C7.67491 8.50005 6.60039 7.42556 6.60039 6.10012C6.60039 4.77468 7.67491 3.7002 9.00039 3.7002C10.3259 3.7002 11.4004 4.77468 11.4004 6.10012C11.4004 7.42556 10.3259 8.50005 9.00039 8.50005Z" stroke="black"/>
<path d="M4.22339 14.8998C4.35139 12.5862 5.05939 10.8999 8.99939 10.8999C12.9394 10.8999 13.6474 12.5862 13.7754 14.8998" stroke="black" stroke-linecap="round"/>
<path d="M13 1.57062C11.7844 0.867363 10.4044 0.49809 9 0.500254C4.5816 0.500254 1 4.08174 1 8.5C1 12.9183 4.5816 16.4998 9 16.4998C13.4184 16.4998 17 12.9183 17 8.5" stroke="black" stroke-linecap="round"/>
<path d="M18.9967 6.16691L21.3301 8.50024M17.0523 6.94469C15.5489 6.94469 14.3301 5.72591 14.3301 4.22247C14.3301 2.71903 15.5489 1.50024 17.0523 1.50024C18.5557 1.50024 19.7745 2.71903 19.7745 4.22247C19.7745 5.72591 18.5557 6.94469 17.0523 6.94469Z" stroke="black" stroke-linecap="round" stroke-linejoin="round"/>
</svg>
