<svg width="20" height="17" viewBox="0 0 20 17" fill="none" xmlns="http://www.w3.org/2000/svg">
<path d="M7 13.575H13" stroke="black" stroke-linecap="round" stroke-linejoin="round"/>
<path d="M16.6667 5.74162L19 8.07495M14.7222 6.5194C13.2188 6.5194 12 5.30062 12 3.79717C12 2.29373 13.2188 1.07495 14.7222 1.07495C16.2257 1.07495 17.4444 2.29373 17.4444 3.79717C17.4444 5.30062 16.2257 6.5194 14.7222 6.5194Z" stroke="black" stroke-linecap="round" stroke-linejoin="round"/>
<path d="M17 8.57504V11.9264C17 13.3809 17 14.1082 16.6789 14.6637C16.3966 15.1524 15.946 15.5498 15.3918 15.7988C14.7617 16.0819 13.9369 16.0819 12.2873 16.0819H7.96727C6.31766 16.0819 5.49286 16.0819 4.86279 15.7988C4.30857 15.5498 3.85797 15.1524 3.57558 14.6637C3.25455 14.1082 3.25455 13.3809 3.25455 11.9264V6.36616M11.095 1.0627C10.4676 0.87001 9.78462 0.870054 9.15714 1.06282C8.44277 1.28229 7.83631 1.87658 6.6233 3.06518L1 8.50003" stroke="black" stroke-linecap="round" stroke-linejoin="round"/>
</svg>
