<svg width="15" height="15" viewBox="0 0 15 15" fill="none" xmlns="http://www.w3.org/2000/svg">
<path d="M14.2414 2.88508C14.1952 2.96693 14.1575 3.05528 14.101 3.12925C13.974 3.29465 13.7915 3.34294 13.5918 3.34294C13.1453 3.34294 12.6987 3.34705 12.2525 3.3402C12.1388 3.33848 12.0885 3.3741 12.0474 3.48163C11.7357 4.29768 10.9707 4.8141 10.1112 4.79834C9.31873 4.78396 8.56432 4.26207 8.28625 3.51998C8.2342 3.38129 8.1705 3.33951 8.02496 3.33985C5.67405 3.34465 3.32314 3.34328 0.97223 3.34259C0.895179 3.34259 0.817101 3.3402 0.740735 3.32924C0.445544 3.28609 0.233568 3.03199 0.243499 2.73817C0.25343 2.44538 0.482528 2.20429 0.778404 2.17793C0.837305 2.17279 0.896891 2.1745 0.955792 2.1745C3.31561 2.1745 5.67576 2.17313 8.03558 2.17793C8.17119 2.17793 8.23009 2.13991 8.27872 2.01321C8.66089 1.01908 9.73823 0.491023 10.7515 0.810185C11.3734 1.00607 11.8097 1.4194 12.0453 2.03033C12.0885 2.14265 12.1388 2.18032 12.259 2.17793C12.6734 2.16971 13.0884 2.18649 13.5024 2.17108C13.8658 2.15772 14.1192 2.28682 14.2407 2.63955V2.88577L14.2414 2.88508ZM10.1588 3.62854C10.6413 3.6282 11.0399 3.22719 11.0323 2.74981C11.0248 2.27278 10.631 1.88239 10.1577 1.88273C9.67762 1.88308 9.28312 2.28306 9.28723 2.76488C9.29134 3.24431 9.67967 3.62922 10.1588 3.62854Z" fill="black"/>
<path d="M14.2414 12.209C14.1199 12.5617 13.8661 12.6905 13.5031 12.6774C13.0846 12.6624 12.6648 12.6785 12.246 12.6709C12.1361 12.6689 12.0905 12.7038 12.0505 12.8052C11.7628 13.5325 11.2296 13.9709 10.4601 14.1061C9.56975 14.2626 8.61638 13.7205 8.29413 12.8733C8.2342 12.7158 8.16366 12.6685 7.99517 12.6692C5.63057 12.6761 3.26596 12.674 0.901691 12.6737C0.560954 12.6737 0.338363 12.5182 0.263024 12.2309C0.179466 11.9117 0.389388 11.5792 0.714029 11.523C0.794162 11.509 0.877035 11.5059 0.95888 11.5059C3.32349 11.5049 5.6881 11.5039 8.05236 11.5087C8.1801 11.5087 8.23181 11.4669 8.27564 11.3535C8.765 10.0896 10.2827 9.65019 11.3727 10.4594C11.6899 10.6947 11.9227 11.0025 12.0528 11.3792C12.0868 11.4768 12.1354 11.5093 12.2391 11.508C12.6535 11.5015 13.0689 11.5172 13.4829 11.5018C13.8469 11.4885 14.1113 11.608 14.2421 11.9631V12.2093L14.2414 12.209ZM9.28723 12.0932C9.28895 12.5709 9.6766 12.9606 10.1543 12.9651C10.6296 12.9696 11.0341 12.5655 11.033 12.0874C11.032 11.6076 10.6307 11.2138 10.1488 11.2193C9.66906 11.2248 9.28586 11.6138 9.28758 12.0932H9.28723Z" fill="black"/>
<path d="M14.2415 7.53321C14.1268 7.89038 13.8747 8.01024 13.5104 8.00921C11.1598 8.00168 8.80924 8.00647 6.45867 8.00202C6.31964 8.00202 6.25423 8.03866 6.20286 8.17222C5.82035 9.16943 4.72793 9.69611 3.71531 9.36668C3.10473 9.16806 2.67564 8.76054 2.44209 8.16126C2.39414 8.03798 2.33559 8.00031 2.20717 8.00236C1.73356 8.00887 1.25927 8.01469 0.786005 7.99825C0.344246 7.98318 0.0966557 7.48629 0.334315 7.11371C0.457254 6.92091 0.641149 6.84043 0.86785 6.8418C1.30961 6.84454 1.75171 6.83632 2.19347 6.84625C2.33387 6.84934 2.39654 6.80859 2.44791 6.67435C2.82803 5.67885 3.92489 5.15148 4.93614 5.4816C5.54091 5.67919 5.97034 6.08054 6.20252 6.67571C6.25423 6.80859 6.31929 6.84591 6.45867 6.84591C8.80924 6.84112 11.1598 6.84625 13.5104 6.83872C13.8747 6.83769 14.1268 6.95755 14.2415 7.31472V7.53355V7.53321ZM5.19606 7.42499C5.19675 6.94693 4.81081 6.55552 4.33309 6.55004C3.85572 6.54456 3.45231 6.94351 3.45094 7.42294C3.44957 7.90065 3.85298 8.302 4.33104 8.29824C4.80807 8.29413 5.19538 7.90339 5.19606 7.42534V7.42499Z" fill="black"/>
</svg>
