<svg width="15" height="15" viewBox="0 0 15 15" fill="none" xmlns="http://www.w3.org/2000/svg">
<path d="M1.35049 7.39275C1.35049 8.63271 1.3456 9.87311 1.35271 11.1131C1.35582 11.7117 1.51004 12.2615 1.92602 12.7197C2.41445 13.2579 3.0171 13.5437 3.74419 13.545C6.18544 13.5486 8.62715 13.5543 11.0684 13.5428C12.2875 13.537 13.1968 12.8086 13.4585 11.6686C13.5048 11.4668 13.5128 11.2597 13.5128 11.0526C13.5128 9.79756 13.5163 8.54293 13.5088 7.28786C13.5074 7.09542 13.5457 7.01809 13.7603 7.02209C14.3954 7.0332 14.3954 7.02343 14.3954 7.65852C14.3954 8.81004 14.3963 9.96156 14.3954 11.1131C14.395 11.7273 14.2772 12.3121 13.9625 12.8495C13.5257 13.5948 12.9048 14.1041 12.0661 14.3414C11.6719 14.453 11.2688 14.4907 10.8617 14.4907C8.53115 14.4921 6.20056 14.4947 3.87041 14.489C3.25176 14.4876 2.64822 14.3899 2.09846 14.0805C1.33049 13.6485 0.81006 13.0152 0.559846 12.1682C0.430961 11.7331 0.401184 11.2851 0.401184 10.834C0.401184 8.56027 0.398517 6.287 0.402962 4.0133C0.404295 3.23199 0.55629 2.48757 1.03672 1.84537C1.69359 0.967618 2.59711 0.554742 3.6753 0.537854C5.01393 0.516521 6.35344 0.533854 7.69251 0.528966C7.83473 0.528521 7.88406 0.569853 7.88806 0.716071C7.90672 1.41027 7.91072 1.41027 7.22541 1.41027C6.05656 1.41027 4.88726 1.40494 3.71841 1.41205C2.72689 1.41827 1.99402 1.86092 1.54515 2.74845C1.37449 3.08622 1.3496 3.45554 1.35004 3.82708C1.35049 5.01549 1.35004 6.2039 1.35004 7.3923L1.35049 7.39275Z" fill="#181A20"/>
<path d="M12.7515 1.41027C12.0067 1.41027 11.2756 1.41027 10.5445 1.41027C10.3374 1.41027 10.1299 1.40093 9.92364 1.41338C9.75253 1.4236 9.70098 1.35205 9.71031 1.19383C9.7192 1.04672 9.72098 0.898282 9.70987 0.75162C9.69609 0.573848 9.76986 0.527627 9.94186 0.528516C11.1618 0.535182 12.3818 0.532071 13.6017 0.532071C13.6755 0.532071 13.7497 0.531183 13.8235 0.532071C14.2404 0.535627 14.3946 0.689844 14.3951 1.11116C14.3964 1.94492 14.3951 2.77822 14.3951 3.61197C14.3951 4.05463 14.3862 4.49772 14.3999 4.93993C14.4053 5.10704 14.3466 5.14304 14.1968 5.13281C14.0351 5.1217 13.8706 5.11948 13.7093 5.13326C13.5555 5.14659 13.5071 5.10081 13.5084 4.94171C13.5164 4.09329 13.5124 3.24487 13.5124 2.39646C13.5124 2.37424 13.5142 2.35201 13.5137 2.33024C13.5129 2.27335 13.5373 2.1978 13.4684 2.1738C13.4155 2.15513 13.3835 2.22135 13.348 2.25602C12.9578 2.63867 12.5684 3.02221 12.1796 3.40576C10.7458 4.82082 9.31077 6.23456 7.88059 7.65407C7.75971 7.77406 7.67793 7.80429 7.56505 7.65762C7.4326 7.48518 7.14506 7.37585 7.1535 7.17186C7.16106 6.98653 7.41616 6.85632 7.56549 6.70565C9.25388 5.00171 10.9449 3.30043 12.6342 1.59693C12.6782 1.55248 12.7449 1.52137 12.7507 1.41027H12.7515Z" fill="#181A20"/>
</svg>
