<svg width="29" height="33" viewBox="0 0 29 33" fill="none" xmlns="http://www.w3.org/2000/svg">
<path opacity="0.5" d="M1 13.8809C1 9.08446 1 6.68628 1.56628 5.87947C2.13255 5.07267 4.38748 4.3008 8.89736 2.75704L9.75658 2.46294C12.1075 1.65822 13.2829 1.25586 14.5 1.25586C15.7171 1.25586 16.8925 1.65822 19.2434 2.46294L20.1026 2.75704C24.6125 4.3008 26.8675 5.07267 27.4337 5.87947C28 6.68628 28 9.08446 28 13.8809C28 14.6053 28 15.391 28 16.243C28 24.7 21.6415 28.8041 17.6521 30.5468C16.57 31.0195 16.0289 31.2559 14.5 31.2559C12.971 31.2559 12.43 31.0195 11.3478 30.5468C7.35844 28.8041 1 24.7 1 16.243C1 15.391 1 14.6053 1 13.8809Z" stroke="#EB6753" stroke-width="2"/>
<path d="M14.5 14.7557C16.1569 14.7557 17.5 13.4126 17.5 11.7557C17.5 10.0989 16.1569 8.75574 14.5 8.75574C12.8431 8.75574 11.5 10.0989 11.5 11.7557C11.5 13.4126 12.8431 14.7557 14.5 14.7557Z" stroke="#EB6753" stroke-width="2"/>
<path d="M20.5 20.7557C20.5 22.4126 20.5 23.7557 14.5 23.7557C8.5 23.7557 8.5 22.4126 8.5 20.7557C8.5 19.0988 11.1863 17.7557 14.5 17.7557C17.8137 17.7557 20.5 19.0988 20.5 20.7557Z" stroke="#EB6753" stroke-width="2"/>
</svg>
