<svg width="14" height="14" viewBox="0 0 14 14" fill="none" xmlns="http://www.w3.org/2000/svg">
<path d="M13.752 12.8906V1.10938C13.752 0.773406 13.4785 0.5 13.1426 0.5H1.36133C1.02536 0.5 0.751953 0.773406 0.751953 1.10938V4.76562C0.751953 4.87775 0.842953 4.96875 0.955078 4.96875C1.0672 4.96875 1.1582 4.87775 1.1582 4.76562V1.10938C1.1582 0.99725 1.24961 0.90625 1.36133 0.90625H13.1426C13.2543 0.90625 13.3457 0.99725 13.3457 1.10938V12.8906C13.3457 13.0028 13.2543 13.0938 13.1426 13.0938H9.48633C9.3742 13.0938 9.2832 13.1847 9.2832 13.2969C9.2832 13.409 9.3742 13.5 9.48633 13.5H13.1426C13.4785 13.5 13.752 13.2266 13.752 12.8906Z" fill="black"/>
<path d="M1.36133 5.78125C1.02536 5.78125 0.751953 6.05466 0.751953 6.39062V12.8906C0.751953 13.2266 1.02536 13.5 1.36133 13.5H7.86133C8.1973 13.5 8.4707 13.2266 8.4707 12.8906V6.06847L11.3145 3.22472V5.98438C11.3145 6.0965 11.4055 6.1875 11.5176 6.1875C11.6297 6.1875 11.7207 6.0965 11.7207 5.98438V2.73438C11.7207 2.62225 11.6297 2.53125 11.5176 2.53125H8.26758C8.15545 2.53125 8.06445 2.62225 8.06445 2.73438C8.06445 2.8465 8.15545 2.9375 8.26758 2.9375H11.0268L8.18308 5.78125H1.36133ZM8.06445 12.8906C8.06445 13.0028 7.97305 13.0938 7.86133 13.0938H1.36133C1.24961 13.0938 1.1582 13.0028 1.1582 12.8906V6.39062C1.1582 6.2785 1.24961 6.1875 1.36133 6.1875H8.06445V12.8906Z" fill="black"/>
</svg>
