<svg width="30" height="24" viewBox="0 0 30 24" fill="none" xmlns="http://www.w3.org/2000/svg">
<path d="M0.263672 16.3689V19.0059C0.263672 19.7847 0.895315 20.3857 1.64348 20.3857H3.61813C4.0658 21.9495 5.4824 23.0656 7.19335 23.0656C8.90431 23.0656 10.3209 21.9127 10.7686 20.3857H15.2759H19.7588C20.2064 21.9495 21.623 23.0656 23.334 23.0656C25.0449 23.0656 26.4615 21.9127 26.9092 20.3857H28.6202C29.4051 20.3857 30 19.7541 30 19.0059V17.2582C30 16.5529 29.4419 15.9519 28.7735 15.8783V12.3399C28.7735 10.9969 27.6942 9.9176 26.3512 9.9176L24.6831 9.66003L21.807 5.33665C21.7702 5.29985 21.7334 5.22627 21.6966 5.18947C21.249 4.59462 20.5437 4.18375 19.722 4.18375H16.3185C15.8769 4.18375 15.5212 4.53943 15.5212 4.98097V11.4262C15.5212 13.4008 13.9207 15.0014 11.946 15.0014H1.30619V15.0259C0.705209 15.1731 0.263672 15.7312 0.263672 16.3689ZM21.4697 19.3371C21.4697 18.3313 22.3283 17.4728 23.334 17.4728C24.3765 17.4728 25.1983 18.3313 25.1983 19.3371C25.1983 20.3428 24.3397 21.2013 23.334 21.2013C22.2853 21.2013 21.4697 20.3428 21.4697 19.3371ZM5.32295 19.3371C5.32295 18.3313 6.1815 17.4728 7.18722 17.4728C8.22974 17.4728 9.05149 18.3313 9.05149 19.3371C9.05149 20.3428 8.22974 21.2013 7.18722 21.2013C6.1447 21.2013 5.32295 20.3428 5.32295 19.3371Z" fill="#EB6753"/>
<path d="M2.03598 0.344818H11.4922C12.6145 0.344818 13.5282 1.29535 13.5282 2.46665V10.8068C13.5282 11.9781 12.6145 12.9348 11.4922 12.9348H2.03598C0.913737 12.9348 0 11.9842 0 10.8068V9.96665V9.59257V2.46665C0.00613246 1.29535 0.913737 0.344818 2.03598 0.344818Z" fill="#EB6753"/>
</svg>
