<svg width="15" height="18" viewBox="0 0 15 18" fill="none" xmlns="http://www.w3.org/2000/svg">
<g clip-path="url(#clip0_2547_438)">
<path d="M13.4503 4.90149V5.51294C13.4503 8.78585 13.4503 12.0598 13.4503 15.3327C13.4503 16.753 12.9219 17.2889 11.5243 17.29C8.66444 17.2922 5.80347 17.2922 2.94359 17.29C1.58482 17.29 1.02622 16.7325 1.02514 15.3662C1.0219 12.0393 1.02945 8.71252 1.01759 5.38569C1.01651 5.01257 1.08337 4.8465 1.51149 4.84865C5.33761 4.86483 9.16265 4.85728 12.9888 4.85944C13.1268 4.85944 13.2659 4.88532 13.4514 4.90257L13.4503 4.90149ZM10.8719 11.0742C10.8719 9.94835 10.8708 8.82251 10.8719 7.6956C10.8719 7.31385 10.8417 6.93857 10.3338 6.95151C9.86037 6.96337 9.83341 7.33218 9.83233 7.68589C9.83017 9.9559 9.83017 12.2259 9.83233 14.4959C9.83233 14.8593 9.89056 15.2152 10.351 15.2174C10.8093 15.2195 10.8741 14.8787 10.873 14.5056C10.8687 13.3614 10.8719 12.2184 10.8719 11.0742ZM4.64852 11.1486C4.64852 9.98717 4.64636 8.82575 4.64852 7.66432C4.64852 7.29659 4.59999 6.95151 4.13197 6.95043C3.66072 6.95043 3.61327 7.30414 3.61219 7.6654C3.61003 9.93541 3.61111 12.2043 3.61219 14.4743C3.61219 14.8572 3.66288 15.2346 4.16001 15.2163C4.62156 15.199 4.6496 14.8345 4.64852 14.4733C4.64529 13.3658 4.64744 12.2572 4.64744 11.1497L4.64852 11.1486ZM7.75967 11.1109C7.75967 9.96668 7.75859 8.82359 7.75967 7.67942C7.75967 7.31708 7.72948 6.96337 7.2593 6.94935C6.7902 6.93641 6.72334 7.28257 6.72334 7.64815C6.72118 9.93541 6.72226 12.2227 6.72334 14.5099C6.72334 14.8787 6.79883 15.226 7.25714 15.2163C7.71653 15.2066 7.76291 14.855 7.76183 14.4873C7.75751 13.3614 7.76075 12.2356 7.76075 11.1098L7.75967 11.1109Z" fill="black"/>
<path d="M7.20218 3.82017C5.09178 3.82017 2.98245 3.82232 0.872046 3.82017C0.118253 3.81801 0.006101 3.70154 0.000709058 2.94991C-0.00576127 1.75721 0.00717947 1.74427 1.17831 1.74427C2.01837 1.74427 2.85951 1.72917 3.69958 1.75182C4.03388 1.76044 4.24416 1.65908 4.352 1.34203C4.52131 0.844894 4.87071 0.696076 5.38833 0.709017C6.65652 0.741368 7.92794 0.735977 9.19612 0.711174C9.65443 0.702547 9.95854 0.849207 10.1052 1.28056C10.2357 1.66231 10.4891 1.76584 10.8827 1.75397C11.8112 1.72486 12.7419 1.73996 13.6714 1.74643C14.3616 1.75074 14.491 1.88338 14.4975 2.5563C14.5104 3.80722 14.4975 3.82017 13.2627 3.82017C11.2418 3.82017 9.222 3.82017 7.2011 3.82017H7.20218Z" fill="black"/>
</g>
<defs>
<clipPath id="clip0_2547_438">
<rect width="14.5" height="16.5824" fill="white" transform="translate(0 0.70874)"/>
</clipPath>
</defs>
</svg>
