<svg width="20" height="22" viewBox="0 0 20 22" fill="none" xmlns="http://www.w3.org/2000/svg">
<path d="M1.24292 20.75V19.5C1.24292 17.1794 2.16479 14.9538 3.80574 13.3128C5.44668 11.6719 7.67228 10.75 9.99292 10.75M9.99292 10.75C12.3136 10.75 14.5392 11.6719 16.1801 13.3128C17.821 14.9538 18.7429 17.1794 18.7429 19.5V20.75M9.99292 10.75C11.319 10.75 12.5908 10.2232 13.5285 9.28553C14.4661 8.34785 14.9929 7.07608 14.9929 5.75C14.9929 4.42392 14.4661 3.15215 13.5285 2.21447C12.5908 1.27678 11.319 0.75 9.99292 0.75C8.66684 0.75 7.39507 1.27678 6.45739 2.21447C5.5197 3.15215 4.99292 4.42392 4.99292 5.75C4.99292 7.07608 5.5197 8.34785 6.45739 9.28553C7.39507 10.2232 8.66684 10.75 9.99292 10.75Z" stroke="#181A20" stroke-width="1.25" stroke-linecap="round" stroke-linejoin="round"/>
</svg>
