<svg width="20" height="31" viewBox="0 0 20 31" fill="none" xmlns="http://www.w3.org/2000/svg">
<path fill-rule="evenodd" clip-rule="evenodd" d="M11.6258 6.70515C13.2827 6.70515 14.6258 5.36202 14.6258 3.70518C14.6258 2.04833 13.2827 0.7052 11.6258 0.7052C9.96911 0.7052 8.62587 2.04833 8.62587 3.70518C8.62587 5.36202 9.96911 6.70515 11.6258 6.70515ZM8.70507 7.6135C9.20202 7.36503 9.79571 7.4116 10.2478 7.73455L11.7478 8.80597C12.2249 9.14683 12.4597 9.73451 12.3488 10.3103L10.7757 18.4756L17.3739 28.3729C17.8334 29.0622 17.6472 29.9935 16.9579 30.4531C16.2686 30.9126 15.3373 30.7263 14.8778 30.037L7.93828 19.6278L6.71505 17.7929C6.50093 17.4718 6.41888 17.0804 6.48596 16.7002L7.38073 11.6297L4.70286 12.9686L3.84514 17.2552C3.68259 18.0676 2.8923 18.5942 2.07998 18.4318C1.26767 18.2692 0.74093 17.4788 0.903468 16.6666L1.90513 11.6608C1.99594 11.207 2.29118 10.8205 2.70515 10.6135L8.70507 7.6135ZM17.1515 17.1281L12.8398 15.6908L13.4122 12.7195L18.1002 14.282C18.8861 14.5441 19.3109 15.3935 19.0488 16.1794C18.7869 16.9654 17.9375 17.3902 17.1515 17.1281ZM1.31859 28.4695L6.22044 19.7552L6.69026 20.4599L8.08737 22.5554L3.93329 29.9404C3.52716 30.6624 2.61258 30.9184 1.89057 30.5124C1.16853 30.1062 0.912453 29.1916 1.31859 28.4695Z" fill="#EB6753"/>
</svg>
