<svg width="20" height="18" viewBox="0 0 20 18" fill="none" xmlns="http://www.w3.org/2000/svg">
<g clip-path="url(#clip0_2499_950)">
<path d="M16.9153 2.7648H16.1949V0.89192C16.1949 0.653344 16.0013 0.459717 15.7627 0.459717C15.5241 0.459717 15.3305 0.653344 15.3305 0.89192V2.7648H4.66949V0.89192C4.66949 0.653344 4.47586 0.459717 4.23729 0.459717C3.99871 0.459717 3.80508 0.653344 3.80508 0.89192V2.7648H3.08475C2.20997 2.76595 1.50115 3.47477 1.5 4.34955V15.8738C1.50115 16.7486 2.20997 17.4574 3.08475 17.4586H16.9153C17.79 17.4574 18.4988 16.7486 18.5 15.8738V4.34955C18.4988 3.47477 17.79 2.76595 16.9153 2.7648ZM3.08475 3.62921H16.9153C17.3129 3.62978 17.635 3.95192 17.6356 4.34955V6.22243H2.36441V4.34955C2.36498 3.95192 2.68712 3.62978 3.08475 3.62921ZM16.9153 16.5942H3.08475C2.68712 16.5936 2.36498 16.2714 2.36441 15.8738V7.08684H17.6356V15.8738C17.635 16.2714 17.3129 16.5936 16.9153 16.5942ZM13.6455 10.5906H11.175L10.4109 8.24053C10.3394 8.08148 10.1827 7.97314 10 7.97314C9.81732 7.97314 9.66058 8.08206 9.59027 8.23765L9.58912 8.24053L8.82556 10.5906H6.35393C6.11536 10.5906 5.92173 10.7842 5.92173 11.0228C5.92173 11.1663 5.99146 11.293 6.09864 11.372L6.0998 11.3726L8.09888 12.8248L7.3359 15.1748C7.32264 15.2146 7.31458 15.2607 7.31458 15.3085C7.31458 15.5477 7.5082 15.7413 7.74736 15.7413C7.84244 15.7413 7.93061 15.7107 8.00207 15.6583L8.00092 15.6589L10 14.2061L11.9991 15.6589C12.0694 15.7107 12.1576 15.7419 12.2532 15.7419C12.4918 15.7419 12.6854 15.5482 12.6854 15.3096C12.6854 15.2618 12.6774 15.2151 12.6629 15.1719L12.6641 15.1748L11.9 12.8248L13.9002 11.3726C14.0085 11.293 14.0783 11.1663 14.0783 11.0228C14.0783 10.7842 13.8846 10.5906 13.6461 10.59L13.6455 10.5906ZM11.1387 12.309C11.0304 12.3885 10.9606 12.5153 10.9606 12.6588C10.9606 12.7066 10.9687 12.7527 10.9831 12.796L10.982 12.7931L11.4309 14.1761L10.2547 13.3209C10.1844 13.2691 10.0957 13.238 10.0006 13.238C9.90549 13.238 9.81675 13.2691 9.74471 13.3215L9.74586 13.3209L8.56912 14.1773L9.01803 12.7931C9.03186 12.7527 9.03936 12.7066 9.03936 12.6588C9.03936 12.5153 8.96963 12.3885 8.86244 12.3096L8.86129 12.309L7.68454 11.455H9.13963H9.1402C9.33095 11.455 9.49288 11.3311 9.54936 11.1599L9.55051 11.157L10 9.77341L10.4495 11.157C10.5071 11.3316 10.6691 11.4555 10.8598 11.4555H12.3149L11.1387 12.309Z" fill="#181A20"/>
</g>
<defs>
<clipPath id="clip0_2499_950">
<rect width="20" height="17.26" fill="white" transform="translate(0 0.329102)"/>
</clipPath>
</defs>
</svg>
