<svg width="15" height="17" viewBox="0 0 15 17" fill="none" xmlns="http://www.w3.org/2000/svg">
<path d="M7.5 13.4252L3.97938 16.1774C3.80494 16.3235 3.61463 16.3927 3.40847 16.3849C3.20231 16.3771 3.01994 16.316 2.86135 16.2017C2.70276 16.0881 2.58002 15.9338 2.49311 15.739C2.40621 15.5441 2.40208 15.3331 2.48074 15.1058L3.83666 10.6L0.387404 8.09146C0.1971 7.96157 0.0781604 7.79108 0.0305845 7.58C-0.0169914 7.36892 -0.00906202 7.17408 0.0543725 6.99548C0.117807 6.81687 0.228817 6.6584 0.387404 6.52006C0.54599 6.38173 0.736294 6.31288 0.958314 6.31353H5.21636L6.59606 1.63734C6.67535 1.41002 6.79841 1.23531 6.96525 1.11321C7.13208 0.991112 7.31033 0.930386 7.5 0.931035C7.6903 0.931035 7.86887 0.992086 8.0357 1.11419C8.20254 1.23629 8.32528 1.41067 8.40394 1.63734L9.78364 6.31353H14.0417C14.2637 6.31353 14.454 6.3827 14.6126 6.52104C14.7712 6.65937 14.8822 6.81752 14.9456 6.99548C15.0091 7.17408 15.017 7.36892 14.9694 7.58C14.9218 7.79108 14.8029 7.96157 14.6126 8.09146L11.1633 10.6L12.5193 15.1058C12.5985 15.3331 12.5947 15.5441 12.5078 15.739C12.4209 15.9338 12.2979 16.0881 12.1386 16.2017C11.9801 16.3154 11.7977 16.3764 11.5915 16.3849C11.3854 16.3933 11.1951 16.3242 11.0206 16.1774L7.5 13.4252Z" fill="#F0CC0F"/>
</svg>
